<svg width="86" height="32" fill="none" xmlns="http://www.w3.org/2000/svg"><rect x="53" width="33" height="32" rx="5" fill="#333"/><path d="M11.88 20.884c0 .293-.056.57-.171.827a2.075 2.075 0 01-.451.677 2.187 2.187 0 01-.666.45 2.129 2.129 0 01-.827.162H3.867a2.11 2.11 0 01-.816-.161 2.33 2.33 0 01-.677-.451 2.33 2.33 0 01-.451-.677 2.129 2.129 0 01-.161-.827V7.155h2.105v6.424c.015-.28.079-.54.194-.784a2.048 2.048 0 011.117-1.074 2.01 2.01 0 01.805-.161h3.782c.293 0 .569.057.827.171.258.108.48.258.666.452.193.186.344.408.451.666.115.257.172.533.172.827v7.208zm-8.013-7.208v7.208h5.898v-7.208H3.867zm11.537 4.329c0-.294.054-.566.161-.816a2.32 2.32 0 01.452-.677 2.06 2.06 0 01.676-.451c.258-.115.53-.172.817-.172h5.457v-2.213H16.06V11.56h6.907c.293 0 .57.057.827.171.258.108.48.258.666.452.193.186.344.408.451.666.115.257.172.533.172.827V23h-2.116v-1.934a1.976 1.976 0 01-.215.752 2.24 2.24 0 01-.473.623 2.145 2.145 0 01-.644.409c-.244.1-.502.15-.774.15H17.51a2.11 2.11 0 01-.817-.161 2.33 2.33 0 01-.676-.451 2.33 2.33 0 01-.452-.677 2.129 2.129 0 01-.16-.827v-2.88zm2.106 2.879h5.457v-2.88H17.51v2.88zM38.736 23H36.62v-9.324h-5.897V23h-2.106V11.56h2.106v2.02c.014-.28.078-.542.193-.785a2.048 2.048 0 011.117-1.074c.25-.108.52-.161.806-.161h3.781c.294 0 .57.057.827.171.258.108.48.258.666.452.194.186.344.408.452.666.114.257.171.533.171.827V23zm11.086 0l-5.457-4.888V23H42.26V7.155h2.105v8.916l5.017-4.511h2.975l-6.144 5.521L52.798 23h-2.976z" fill="#333"/><path d="M63.153 11.56V23h-2.116V11.56h2.116zM60.93 7.155h2.33v2.202h-2.33V7.155zm5.865 6.52c0-.293.054-.569.161-.826a2.094 2.094 0 011.128-1.118c.258-.114.53-.171.816-.171h5.898V7.155h2.116V23h-2.116v-1.934a1.974 1.974 0 01-.215.752 2.24 2.24 0 01-.473.623 2.146 2.146 0 01-.644.409c-.244.1-.501.15-.774.15H68.9a2.11 2.11 0 01-.816-.161 2.332 2.332 0 01-.677-.451 2.328 2.328 0 01-.45-.677 2.127 2.127 0 01-.162-.827v-7.208zm2.105 7.209h5.898v-7.208H68.9v7.208z" fill="#fff"/></svg>