<svg width="42" height="42" fill="none" xmlns="http://www.w3.org/2000/svg"><g clip-path="url(#clip0)"><path d="M38.929 4.546a2.865 2.865 0 012.025 3.509l-8.526 31.82a2.865 2.865 0 01-3.509 2.026l-16.602-4.449a2.865 2.865 0 01-2.025-3.508l8.526-31.82A2.865 2.865 0 0122.326.097L38.93 4.546z" fill="#F5F9EC"/><path d="M26.08 8.768h-9.043L10.29 33.945a2.865 2.865 0 002.026 3.508l16.602 4.448a2.865 2.865 0 003.508-2.025l5.233-19.527-11.58-11.58z" fill="#E4E8DB"/><path d="M38.929 4.547a2.864 2.864 0 012.025 3.509L37.247 21.89l-22.136-5.932 3.707-13.835A2.865 2.865 0 0122.327.1l16.602 4.448z" fill="#DCC69F"/><path d="M19.976 36.537l2.595-9.684-1.384-.37-2.594 9.683 1.383.371zm3.337-12.449l.742-2.767-1.384-.37-.741 2.766 1.383.37zm4.154 1.108l.741-2.767-1.383-.37-.742 2.766 1.384.37zm4.146 1.114l.742-2.767-1.384-.371-.741 2.767 1.383.37zm-7.489 11.34l2.595-9.684-1.384-.37-2.594 9.683 1.383.371zm4.156 1.114l2.595-9.684-1.384-.37-2.595 9.683 1.384.371z" fill="#C8BEB2"/><path d="M34.036 6.202l-1.186-.318-4.235 3.949-2.57-.688c-.79-.212-1.687-.029-1.792.366-.106.396.578 1.003 1.369 1.215l2.57.688 1.693 5.538 1.186.318-.113-5.114 2.095.56.921 1.625.79.211-.135-2.26 1.248-1.89-.79-.212-1.61.946-2.095-.562 2.654-4.372z" fill="#F5F9EC"/><path d="M15.111 15.959l22.137 5.931.413-1.541L26.08 8.769h-9.042l-1.927 7.19z" fill="#CDB994"/><path d="M26.045 9.144c-.79-.211-1.687-.028-1.792.367-.106.396.578 1.003 1.369 1.215l2.569.688 1.694 5.538 1.185.318-.078-3.59-4.386-4.385-.56-.15z" fill="#E4E8DB"/><path d="M23.71.468L13.7 37.823l-1.383-.37a2.865 2.865 0 01-2.025-3.509l8.526-31.82A2.865 2.865 0 0122.327.097l1.383.37z" fill="#EA672C"/><path d="M26.73 36.359a2.865 2.865 0 01-2.865 2.864H2.38a1.432 1.432 0 01-1.432-1.432V9.145c0-.792.641-1.433 1.432-1.433h21.485a2.865 2.865 0 012.865 2.865v25.782z" fill="#125D9D"/><path d="M13.838 12.01a8.594 8.594 0 100 17.187 8.594 8.594 0 000-17.188zm6.36 5.37h-3.097a13.911 13.911 0 00-1.23-3.61 7.148 7.148 0 014.328 3.61zm-4.211 3.223c0 .64-.048 1.227-.114 1.79h-4.069a15.162 15.162 0 01-.114-1.79c0-.64.047-1.227.113-1.79h4.072c.065.563.112 1.15.112 1.79zm-3.946-3.223c.398-1.794 1.054-3.098 1.59-3.918.07-.002.136-.02.207-.02.073 0 .14.019.211.02.537.825 1.191 2.13 1.587 3.918H12.04zm-.234-3.61c-.47.925-.934 2.126-1.23 3.61H7.478a7.15 7.15 0 014.329-3.61zM6.93 18.814h3.428a16.84 16.84 0 00-.101 1.79c0 .634.042 1.223.103 1.79H6.93a7.076 7.076 0 01-.254-1.79c0-.622.105-1.215.254-1.79zm.547 5.013h3.102c.3 1.487.763 2.697 1.225 3.609a7.15 7.15 0 01-4.327-3.61zm6.152 3.918c-.513-.79-1.182-2.097-1.587-3.918h3.59c-.403 1.82-1.071 3.126-1.586 3.918-.07.002-.137.02-.208.02-.072 0-.138-.018-.209-.02zm2.243-.31c.463-.912.926-2.12 1.224-3.608H20.2a7.15 7.15 0 01-4.326 3.609zm4.873-5.04h-3.43a16.7 16.7 0 00.103-1.79 16.9 16.9 0 00-.1-1.791h3.427c.15.575.254 1.168.254 1.79 0 .622-.104 1.215-.254 1.79z" fill="#E7BE29"/><path d="M6.185 34.928v-2.05h.773c.136 0 .24.006.312.019a.62.62 0 01.253.096.504.504 0 01.165.197.63.63 0 01.062.28.63.63 0 01-.167.443c-.11.12-.311.181-.601.181h-.526v.834h-.271zm.27-1.076h.531c.175 0 .3-.032.374-.098a.349.349 0 00.11-.275.37.37 0 00-.065-.22.304.304 0 00-.171-.122 1.16 1.16 0 00-.254-.018h-.524v.733zm1.202 1.076l.788-2.05h.292l.84 2.05h-.31l-.239-.621h-.857l-.226.62h-.288zm.592-.842h.695l-.214-.568a5.605 5.605 0 01-.145-.425 2.614 2.614 0 01-.11.391l-.226.602zm1.451.183l.257-.023c.012.103.04.187.084.253a.462.462 0 00.207.16.78.78 0 00.314.06.754.754 0 00.274-.046.381.381 0 00.178-.127.293.293 0 00.058-.175.266.266 0 00-.056-.169.415.415 0 00-.185-.12 3.65 3.65 0 00-.365-.1 1.856 1.856 0 01-.396-.129.553.553 0 01-.219-.19.467.467 0 01-.072-.256c0-.103.03-.2.088-.29a.545.545 0 01.257-.205.975.975 0 01.377-.07c.152 0 .286.025.402.073a.581.581 0 01.368.54l-.26.02a.42.42 0 00-.142-.294c-.08-.067-.2-.1-.357-.1-.164 0-.284.03-.359.09a.27.27 0 00-.113.218c0 .074.027.134.08.182.053.047.189.096.41.146.22.05.371.094.453.13.12.056.208.126.265.21a.51.51 0 01.085.292.552.552 0 01-.094.308.617.617 0 01-.27.225.939.939 0 01-.394.08c-.186 0-.341-.027-.467-.08a.654.654 0 01-.295-.245.693.693 0 01-.112-.368zm1.912 0l.256-.023c.012.103.04.187.084.253a.463.463 0 00.207.16.78.78 0 00.314.06.754.754 0 00.275-.046.38.38 0 00.177-.127.293.293 0 00.058-.175.267.267 0 00-.056-.169.415.415 0 00-.185-.12 3.65 3.65 0 00-.365-.1 1.856 1.856 0 01-.396-.129.553.553 0 01-.219-.19.467.467 0 01-.072-.256c0-.103.03-.2.088-.29a.545.545 0 01.258-.205.975.975 0 01.376-.07c.152 0 .286.025.402.073a.58.58 0 01.368.54l-.26.02a.42.42 0 00-.142-.294c-.08-.067-.2-.1-.357-.1-.164 0-.284.03-.359.09a.27.27 0 00-.112.218c0 .074.026.134.08.182.052.047.188.096.409.146.22.05.371.094.453.13.12.056.208.126.265.21a.51.51 0 01.085.292.552.552 0 01-.094.308.617.617 0 01-.269.225.938.938 0 01-.395.08c-.186 0-.341-.027-.467-.08a.653.653 0 01-.295-.245.692.692 0 01-.112-.368zm2.003.659v-2.05h.773c.136 0 .24.006.312.019a.62.62 0 01.253.096.503.503 0 01.165.197.63.63 0 01.062.28.63.63 0 01-.166.443c-.111.12-.312.181-.602.181h-.526v.834h-.271zm.271-1.076h.53c.175 0 .3-.032.374-.098a.349.349 0 00.11-.275.37.37 0 00-.065-.22.304.304 0 00-.171-.122 1.16 1.16 0 00-.253-.018h-.525v.733zm1.557.077c0-.34.091-.607.274-.8a.932.932 0 01.708-.288c.19 0 .36.045.512.135.152.09.268.217.347.379.08.162.12.345.12.55 0 .208-.042.394-.126.558a.86.86 0 01-.356.373 1.02 1.02 0 01-.498.127.97.97 0 01-.518-.14.9.9 0 01-.346-.382 1.154 1.154 0 01-.117-.512zm.28.004c0 .247.066.442.199.584.133.142.3.213.5.213a.655.655 0 00.504-.215c.132-.144.198-.347.198-.611 0-.167-.028-.313-.084-.437a.65.65 0 00-.614-.393.694.694 0 00-.496.198c-.138.132-.207.353-.207.661zm2.034.995v-2.05h.91c.182 0 .321.018.416.054a.456.456 0 01.228.196.583.583 0 01.086.309.515.515 0 01-.142.367c-.094.1-.24.164-.436.19a.703.703 0 01.164.103c.079.073.154.163.225.273l.357.558h-.342l-.271-.427a3.872 3.872 0 00-.196-.282.615.615 0 00-.138-.138.41.41 0 00-.124-.054.818.818 0 00-.15-.01h-.316v.91h-.27zm.272-1.146h.583a.873.873 0 00.29-.038.309.309 0 00.16-.123.333.333 0 00.055-.184.306.306 0 00-.106-.24c-.07-.062-.181-.093-.333-.093h-.65v.678zm2.263 1.146v-1.809h-.675v-.242h1.625v.242h-.678v1.809h-.272z" fill="#fff"/></g><defs><clipPath id="clip0"><path fill="#fff" d="M0 0h42v42H0z"/></clipPath></defs></svg>