<svg width="70" height="70" fill="none" xmlns="http://www.w3.org/2000/svg"><path d="M51.441 49.184H19.977a1.686 1.686 0 010-3.371h31.464a1.686 1.686 0 010 3.37zm-.876-23.357a4.03 4.03 0 11-8.061 0 4.03 4.03 0 018.061 0zm-23.174 0a4.03 4.03 0 11-8.06 0 4.03 4.03 0 018.06 0z" fill="#2E2E2E"/><path d="M35 70C15.7 70 0 54.299 0 35 .001 15.702 15.701 0 35 0c19.298 0 35 15.701 35 35S54.298 70 35 70zm0-66.629c-17.44 0-31.629 14.19-31.629 31.63C3.371 52.44 17.561 66.63 35 66.63c17.441 0 31.629-14.19 31.629-31.63C66.629 17.56 52.441 3.372 35 3.372z" fill="#2E2E2E"/></svg>