<svg width="70" height="70" fill="none" xmlns="http://www.w3.org/2000/svg"><path d="M50.57 25.82a4.032 4.032 0 11-8.063.002 4.032 4.032 0 018.064-.002zm-23.182 0a4.033 4.033 0 11-8.065 0 4.033 4.033 0 018.065 0zm10.695 29.875h-5.6c-7.091 0-12.86-5.7-12.86-12.708a1.661 1.661 0 113.322 0c0 5.263 4.19 9.385 9.538 9.385h5.6c5.349 0 9.538-4.054 9.538-9.23a1.661 1.661 0 113.323 0c0 7.04-5.65 12.553-12.861 12.553z" fill="#2E2E2E"/><path d="M35 70C15.707 70 .01 54.299.01 35S15.706 0 35 0c19.293 0 34.99 15.701 34.99 35 0 19.298-15.697 35-34.99 35zm0-66.676C17.539 3.324 3.333 17.534 3.333 35c0 17.468 14.206 31.677 31.669 31.677 17.461 0 31.667-14.21 31.667-31.677C66.668 17.533 52.462 3.324 35 3.324z" fill="#2E2E2E"/></svg>