<svg width="70" height="70" fill="none" xmlns="http://www.w3.org/2000/svg"><path d="M50.571 25.82a4.032 4.032 0 11-8.064.002 4.032 4.032 0 018.064-.002zm-23.183 0a4.033 4.033 0 11-8.065 0 4.033 4.033 0 018.065 0zm-6.103 30.141a1.661 1.661 0 01-1.661-1.661c0-7.172 5.769-13.008 12.86-13.008h5.6c7.092 0 12.86 5.803 12.86 12.936a1.662 1.662 0 11-3.321 0c0-5.3-4.28-9.612-9.538-9.612h-5.6c-5.26 0-9.538 4.343-9.538 9.684 0 .918-.745 1.661-1.662 1.661z" fill="#2E2E2E"/><path d="M35 70C15.706 70 .01 54.299.01 35S15.706 0 35 0s34.991 15.701 34.991 35c0 19.298-15.697 35-34.99 35zm0-66.676C17.538 3.324 3.332 17.534 3.332 35c0 17.468 14.206 31.677 31.668 31.677S66.668 52.467 66.668 35 52.462 3.324 35 3.324z" fill="#2E2E2E"/></svg>