<svg width="86" height="32" viewBox="0 0 86 32" fill="none" xmlns="http://www.w3.org/2000/svg">
<rect x="53" width="33" height="32" rx="5" fill="#8CC63F"/>
<path d="M11.8809 20.8838C11.8809 21.1774 11.8236 21.4531 11.709 21.7109C11.6016 21.9688 11.4512 22.1943 11.2578 22.3877C11.0716 22.5739 10.8496 22.7243 10.5918 22.8389C10.334 22.9463 10.0583 23 9.76465 23H3.86719C3.58073 23 3.30859 22.9463 3.05078 22.8389C2.79297 22.7243 2.56738 22.5739 2.37402 22.3877C2.18783 22.1943 2.03743 21.9688 1.92285 21.7109C1.81543 21.4531 1.76172 21.1774 1.76172 20.8838V7.15527H3.86719V13.5791C3.88151 13.2998 3.94596 13.0384 4.06055 12.7949C4.17513 12.5443 4.32552 12.3294 4.51172 12.1504C4.70508 11.9642 4.92708 11.821 5.17773 11.7207C5.42839 11.6133 5.69694 11.5596 5.9834 11.5596H9.76465C10.0583 11.5596 10.334 11.6169 10.5918 11.7314C10.8496 11.8389 11.0716 11.9893 11.2578 12.1826C11.4512 12.3688 11.6016 12.5908 11.709 12.8486C11.8236 13.1064 11.8809 13.3822 11.8809 13.6758V20.8838ZM3.86719 13.6758V20.8838H9.76465V13.6758H3.86719ZM15.4043 18.0049C15.4043 17.7113 15.458 17.4391 15.5654 17.1885C15.68 16.9307 15.8304 16.7051 16.0166 16.5117C16.21 16.3184 16.4355 16.168 16.6934 16.0605C16.9512 15.946 17.2233 15.8887 17.5098 15.8887H22.9668V13.6758H16.0596V11.5596H22.9668C23.2604 11.5596 23.5361 11.6169 23.7939 11.7314C24.0518 11.8389 24.2738 11.9893 24.46 12.1826C24.6533 12.3688 24.8037 12.5908 24.9111 12.8486C25.0257 13.1064 25.083 13.3822 25.083 13.6758V23H22.9668V21.0664C22.9453 21.3314 22.8737 21.582 22.752 21.8184C22.6302 22.0547 22.4727 22.2624 22.2793 22.4414C22.0931 22.6133 21.8783 22.7493 21.6348 22.8496C21.3913 22.9499 21.1335 23 20.8613 23H17.5098C17.2233 23 16.9512 22.9463 16.6934 22.8389C16.4355 22.7243 16.21 22.5739 16.0166 22.3877C15.8304 22.1943 15.68 21.9688 15.5654 21.7109C15.458 21.4531 15.4043 21.1774 15.4043 20.8838V18.0049ZM17.5098 20.8838H22.9668V18.0049H17.5098V20.8838ZM38.7363 23H36.6201V13.6758H30.7227V23H28.6172V11.5596H30.7227V13.5791C30.737 13.2998 30.8014 13.0384 30.916 12.7949C31.0306 12.5443 31.181 12.3294 31.3672 12.1504C31.5605 11.9642 31.7826 11.821 32.0332 11.7207C32.2839 11.6133 32.5524 11.5596 32.8389 11.5596H36.6201C36.9137 11.5596 37.1895 11.6169 37.4473 11.7314C37.7051 11.8389 37.9271 11.9893 38.1133 12.1826C38.3066 12.3688 38.457 12.5908 38.5645 12.8486C38.679 13.1064 38.7363 13.3822 38.7363 13.6758V23ZM49.8223 23L44.3652 18.1123V23H42.2598V7.15527H44.3652V16.0713L49.3818 11.5596H52.3574L46.2129 17.0811L52.7979 23H49.8223Z" fill="#1D495F"/>
<path d="M63.1533 11.5596V23H61.0371V11.5596H63.1533ZM60.9297 7.15527H63.2607V9.35742H60.9297V7.15527ZM66.7949 13.6758C66.7949 13.3822 66.8486 13.1064 66.9561 12.8486C67.0706 12.5908 67.221 12.3688 67.4072 12.1826C67.6006 11.9893 67.8262 11.8389 68.084 11.7314C68.3418 11.6169 68.6139 11.5596 68.9004 11.5596H74.7979V7.15527H76.9141V23H74.7979V21.0664C74.7764 21.3314 74.7048 21.582 74.583 21.8184C74.4613 22.0547 74.3037 22.2624 74.1104 22.4414C73.9242 22.6133 73.7093 22.7493 73.4658 22.8496C73.2223 22.9499 72.9645 23 72.6924 23H68.9004C68.6139 23 68.3418 22.9463 68.084 22.8389C67.8262 22.7243 67.6006 22.5739 67.4072 22.3877C67.221 22.1943 67.0706 21.9688 66.9561 21.7109C66.8486 21.4531 66.7949 21.1774 66.7949 20.8838V13.6758ZM68.9004 20.8838H74.7979V13.6758H68.9004V20.8838Z" fill="white"/>
</svg>
