<svg width="28" height="25" viewBox="0 0 28 25" fill="none" xmlns="http://www.w3.org/2000/svg">
<path d="M28 16.9189C28 13.8166 26.2332 11.0479 23.587 9.70115C23.5048 15.6494 18.7172 20.472 12.8121 20.5547C14.1491 23.2203 16.8977 25 19.9775 25C21.4215 25 22.8258 24.6126 24.0596 23.8766L27.965 24.9647L26.8847 21.0308C27.6154 19.788 28 18.3735 28 16.9189Z" fill="#FF0000"/>
<path d="M18.9534 9.5459C18.9534 4.28219 14.7022 0 9.47669 0C4.25114 0 0 4.28219 0 9.5459C0 11.2614 0.453309 12.9316 1.3141 14.398L0.0348408 19.0565L4.65976 17.7681C6.1155 18.6352 7.77366 19.0918 9.47669 19.0918C14.7022 19.0918 18.9534 14.8096 18.9534 9.5459ZM8.02246 7.32422H6.56824C6.56824 5.7087 7.87288 4.39453 9.47669 4.39453C11.0805 4.39453 12.3851 5.7087 12.3851 7.32422C12.3851 8.14419 12.0405 8.93231 11.4393 9.4862L10.2038 10.6253V11.7676H8.74958V9.98021L10.4575 8.4055C10.7628 8.12416 10.9309 7.74021 10.9309 7.32422C10.9309 6.51646 10.2786 5.85938 9.47669 5.85938C8.67478 5.85938 8.02246 6.51646 8.02246 7.32422ZM8.74958 13.2324H10.2038V14.6973H8.74958V13.2324Z" fill="#FF0000"/>
</svg>
