<svg width="14" height="16" viewBox="0 0 14 16" fill="none" xmlns="http://www.w3.org/2000/svg">
<path d="M1.9774 16C0.870057 16 0 15.102 0 13.9592V3.5102C0 2.44898 0.870057 1.46939 1.9774 1.46939H3.55932V0.571429C3.55932 0.244898 3.79661 0 4.11299 0C4.42938 0 4.66667 0.244898 4.66667 0.571429V1.46939H9.33333V0.571429C9.33333 0.244898 9.57062 0 9.88701 0C10.2034 0 10.4407 0.244898 10.4407 0.571429V1.46939H12.0226C13.1299 1.46939 14 2.36735 14 3.5102V13.8776C14 15.0204 13.1299 15.9184 12.0226 15.9184H1.9774V16ZM1.10734 13.9592C1.10734 14.449 1.50282 14.8571 1.9774 14.8571H12.0226C12.4972 14.8571 12.8927 14.449 12.8927 13.9592V7.10204H1.10734V13.9592ZM1.9774 2.61225C1.50282 2.61225 1.10734 3.02041 1.10734 3.5102V5.87755H12.8927V3.5102C12.8927 3.02041 12.4972 2.61225 12.0226 2.61225H10.4407V3.5102C10.4407 3.83674 10.2034 4.08163 9.88701 4.08163C9.57062 4.08163 9.33333 3.83674 9.33333 3.5102V2.61225H4.74576V3.5102C4.74576 3.83674 4.50847 4.08163 4.19209 4.08163C3.87571 4.08163 3.63842 3.83674 3.63842 3.5102V2.61225H1.9774Z" fill="#A4A4A4"/>
</svg>
