<svg width="15" height="15" viewBox="0 0 15 15" xmlns="http://www.w3.org/2000/svg">
<path d="M3.02976 6.75294L6.65329 10.3765C6.90035 10.6235 7.22976 10.6235 7.47682 10.3765L11.1004 6.75294C11.3474 6.50589 11.3474 6.17647 11.1004 5.92941C10.8533 5.68236 10.4415 5.68236 10.2768 5.92941L7.72388 8.48236L7.72388 0.576475C7.72388 0.247063 7.47682 4.43539e-06 7.14741 4.4066e-06C6.818 4.3778e-06 6.57094 0.247063 6.57094 0.576475L6.57094 8.48236L4.018 5.92941C3.93564 5.84706 3.77094 5.76471 3.60623 5.76471C3.44153 5.76471 3.27682 5.84706 3.19447 5.92941C2.7827 6.17647 2.7827 6.50588 3.02976 6.75294Z" fill="inherit"/>
<path d="M13.5882 8.8324C13.2588 8.8324 13.0118 9.07946 13.0118 9.40887V12.7853H1.23529V9.40887C1.23529 9.07946 0.988235 8.8324 0.658824 8.8324C0.329412 8.8324 0 9.07946 0 9.40887V13.4442C0 13.7736 0.247059 14.0206 0.576471 14.0206H13.5882C13.9176 14.0206 14.1647 13.7736 14.1647 13.4442V9.40887C14.1647 9.07946 13.9176 8.8324 13.5882 8.8324Z" fill="inherit"/>
</svg>
