<svg width="20" height="20" viewBox="0 0 20 20" xmlns="http://www.w3.org/2000/svg">
<path d="M16.6193 18.8888H2.97401C2.48051 18.8888 2.00723 18.6927 1.65828 18.3438C1.30932 17.9948 1.11328 17.5215 1.11328 17.028V3.38271C1.11328 2.88922 1.30932 2.41594 1.65828 2.06698C2.00723 1.71803 2.48051 1.52199 2.97401 1.52199H11.6574C11.8219 1.52199 11.9797 1.58733 12.096 1.70365C12.2123 1.81997 12.2776 1.97773 12.2776 2.14223C12.2776 2.30673 12.2123 2.46449 12.096 2.58081C11.9797 2.69712 11.8219 2.76247 11.6574 2.76247H2.97401C2.80951 2.76247 2.65175 2.82782 2.53543 2.94414C2.41911 3.06045 2.35376 3.21821 2.35376 3.38271V17.028C2.35376 17.1925 2.41911 17.3503 2.53543 17.4666C2.65175 17.5829 2.80951 17.6483 2.97401 17.6483H16.6193C16.7838 17.6483 16.9416 17.5829 17.0579 17.4666C17.1742 17.3503 17.2396 17.1925 17.2396 17.028V8.34465C17.2396 8.18015 17.3049 8.02239 17.4212 7.90607C17.5375 7.78975 17.6953 7.72441 17.8598 7.72441C18.0243 7.72441 18.1821 7.78975 18.2984 7.90607C18.4147 8.02239 18.4801 8.18015 18.4801 8.34465V17.028C18.4801 17.5215 18.284 17.9948 17.9351 18.3438C17.5861 18.6927 17.1128 18.8888 16.6193 18.8888Z" fill="inherit"/>
<path d="M6.07566 14.5469C5.99404 14.5474 5.91312 14.5317 5.83755 14.5008C5.76198 14.47 5.69325 14.4245 5.63529 14.367C5.56061 14.2954 5.50503 14.2062 5.47362 14.1077C5.4422 14.0091 5.43595 13.9042 5.45542 13.8026L6.13769 10.4905C6.16121 10.3709 6.21946 10.2609 6.30515 10.1742L14.6536 1.83813C15.1191 1.3726 15.7505 1.11107 16.4089 1.11107C17.0673 1.11107 17.6987 1.3726 18.1642 1.83813C18.6297 2.30366 18.8912 2.93506 18.8912 3.59342C18.8912 4.25178 18.6297 4.88317 18.1642 5.3487L9.82813 13.6848C9.7404 13.769 9.63082 13.827 9.5118 13.8522L6.19971 14.5469H6.07566ZM7.31615 10.9185L6.86337 13.1265L9.08384 12.6862L17.2834 4.47416C17.3987 4.35891 17.4901 4.22208 17.5525 4.07149C17.6149 3.92091 17.647 3.75951 17.647 3.59652C17.647 3.43352 17.6149 3.27213 17.5525 3.12154C17.4901 2.97095 17.3987 2.83413 17.2834 2.71887C17.1682 2.60362 17.0314 2.5122 16.8808 2.44982C16.7302 2.38745 16.5688 2.35534 16.4058 2.35534C16.2428 2.35534 16.0814 2.38745 15.9308 2.44982C15.7802 2.5122 15.6434 2.60362 15.5282 2.71887L7.31615 10.9185Z" fill="inherit"/>
</svg>
