<svg width="88" height="22" viewBox="0 0 88 22" fill="" xmlns="http://www.w3.org/2000/svg">
<path d="M17.1611 7.23001C17.1011 7.89001 16.9711 8.62001 16.7711 9.42001H5.79109C5.75109 10.2 5.96108 10.81 6.42108 11.25C6.88108 11.69 7.53108 11.91 8.37108 11.91C9.65108 11.91 10.4711 11.54 10.8311 10.8H16.5311C16.0911 12.38 15.0911 13.63 13.5411 14.57C11.9911 15.5 10.1211 15.96 7.9511 15.96C5.2311 15.96 3.17109 15.27 1.77109 13.88C0.371091 12.49 -0.198916 10.54 0.0610839 8.01999C0.321084 5.53999 1.31109 3.57999 3.02109 2.14999C4.73109 0.719994 6.89111 0 9.52111 0C12.0011 0 13.9511 0.679999 15.3711 2.03C16.7811 3.38 17.3811 5.11001 17.1611 7.23001ZM6.1211 6.17999H11.3711C11.4511 5.35999 11.2911 4.72001 10.9111 4.26001C10.5211 3.80001 9.91108 3.57001 9.09108 3.57001C8.29108 3.57001 7.63109 3.81001 7.10109 4.29001C6.56109 4.77001 6.2411 5.39999 6.1211 6.17999Z" fill="inherit"/>
<path d="M30.7211 0.120117C32.6811 0.120117 34.2011 0.85011 35.3011 2.30011C36.3911 3.75011 36.8011 5.65013 36.5411 8.01013C36.3011 10.3501 35.4811 12.2401 34.0711 13.7001C32.6611 15.1501 30.9711 15.8701 28.9911 15.8701C27.8711 15.8701 26.9211 15.6201 26.1411 15.1001C25.3611 14.5901 24.8411 13.9701 24.5811 13.2201L23.7411 21.1401H17.8611L20.0211 0.530121H25.9011L25.6611 2.75012C26.1011 1.99012 26.7711 1.36014 27.6711 0.860138C28.5611 0.370138 29.5811 0.120117 30.7211 0.120117ZM25.4111 10.3101C25.8711 10.9001 26.5111 11.2001 27.3311 11.2001C28.1511 11.2001 28.8511 10.9001 29.4511 10.3001C30.0411 9.70011 30.3711 8.94011 30.4511 8.02011C30.5511 7.10011 30.3711 6.35012 29.9111 5.75012C29.4511 5.16012 28.8111 4.87012 27.9911 4.87012C27.1711 4.87012 26.4711 5.16011 25.8911 5.74011C25.3111 6.32011 24.9711 7.08011 24.8711 8.02011C24.7711 8.95011 24.9411 9.72012 25.4111 10.3101Z" fill="inherit"/>
<path d="M54.9211 7.23001C54.8611 7.89001 54.7311 8.62001 54.5311 9.42001H43.5511C43.5111 10.2 43.7211 10.81 44.1811 11.25C44.6411 11.69 45.2911 11.91 46.1311 11.91C47.4111 11.91 48.2311 11.54 48.5911 10.8H54.2911C53.8511 12.38 52.8511 13.63 51.3011 14.57C49.7511 15.5 47.8811 15.96 45.7111 15.96C42.9911 15.96 40.9311 15.27 39.5311 13.88C38.1311 12.49 37.5611 10.54 37.8211 8.01999C38.0811 5.53999 39.0711 3.57999 40.7811 2.14999C42.4911 0.719994 44.6511 0 47.2811 0C49.7611 0 51.7111 0.679999 53.1311 2.03C54.5411 3.38 55.1411 5.11001 54.9211 7.23001ZM43.8811 6.17999H49.1311C49.2111 5.35999 49.0511 4.72001 48.6711 4.26001C48.2811 3.80001 47.6711 3.57001 46.8511 3.57001C46.0511 3.57001 45.3911 3.81001 44.8611 4.29001C44.3311 4.77001 44.0011 5.39999 43.8811 6.17999Z" fill="inherit"/>
<path d="M56.5412 7.23001C56.4912 7.89001 56.4912 8.62001 56.5512 9.42001H67.5312C67.4312 10.2 67.1212 10.81 66.5812 11.25C66.0412 11.69 65.3512 11.91 64.5112 11.91C63.2312 11.91 62.4712 11.54 62.2412 10.8H56.5412C56.7012 12.38 57.4812 13.63 58.8712 14.57C60.2612 15.5 62.0412 15.96 64.2212 15.96C66.9412 15.96 69.1212 15.27 70.7612 13.88C72.4012 12.49 73.3112 10.54 73.4912 8.01999C73.6612 5.53999 73.0212 3.57999 71.5612 2.14999C70.1012 0.719994 68.0612 0 65.4412 0C62.9612 0 60.8912 0.679999 59.2412 2.03C57.5912 3.38 56.6912 5.11001 56.5412 7.23001ZM67.7612 6.17999H62.5112C62.5712 5.35999 62.8412 4.72001 63.3112 4.26001C63.7812 3.80001 64.4312 3.57001 65.2512 3.57001C66.0512 3.57001 66.6712 3.81001 67.1212 4.29001C67.5612 4.77001 67.7812 5.39999 67.7612 6.17999Z" fill="inherit"/>
<path d="M74.811 15.45L76.371 0.540009H82.251L81.9211 3.87C82.3011 2.73 82.911 1.84001 83.751 1.20001C84.591 0.560012 85.531 0.23999 86.571 0.23999C86.951 0.23999 87.321 0.270017 87.681 0.330017L87.1111 5.88C86.6111 5.8 86.1111 5.76001 85.6111 5.76001C84.3911 5.76001 83.4011 6.09999 82.6411 6.79999C81.8811 7.48999 81.411 8.70001 81.231 10.45L80.691 15.46H74.811V15.45Z" fill="inherit"/>
</svg>
