<svg width="3" height="6" viewBox="0 0 3 6" xmlns="http://www.w3.org/2000/svg">
<path d="M-1.32802e-07 3.03816C-1.38608e-07 3.17098 0.0597085 3.27059 0.11941 3.3702L2.17911 5.82729C2.35821 6.02652 2.62686 6.05972 2.83581 5.8937C3.01491 5.69448 3.04477 5.39564 2.89552 5.16321C2.89552 5.16321 2.89552 5.16321 2.86567 5.13001L1.10448 3.00496L2.86567 0.879905C3.04478 0.680681 3.04478 0.348641 2.86567 0.149418C2.68657 -0.0498059 2.38806 -0.049806 2.20895 0.149418C2.20895 0.149418 2.20896 0.149418 2.17911 0.182622L0.11941 2.67292C0.0597085 2.77253 -1.26997e-07 2.90535 -1.32802e-07 3.03816Z" fill="inherit"/>
</svg>
