<svg width="22" height="22" viewBox="0 0 22 22" fill="none" xmlns="http://www.w3.org/2000/svg">
<g filter="url(#filter0_d)">
<path d="M16.6483 3.04849L12.6969 7.00005L16.6484 10.9516C17.1171 11.4203 17.1171 12.1797 16.6484 12.6485C16.414 12.8828 16.107 13 15.7999 13C15.4928 13 15.1859 12.8828 14.9515 12.6484L11 8.69696L7.04843 12.6485C6.81408 12.8828 6.50712 13 6.20004 13C5.89297 13 5.58601 12.8828 5.35166 12.6484C4.88294 12.1797 4.88294 11.4203 5.35166 10.9515L9.30309 7.00005L5.35154 3.04849C4.88282 2.57977 4.88282 1.82042 5.35154 1.35158C5.82025 0.882746 6.5796 0.882866 7.04843 1.35158L11 5.30315L14.9515 1.35158C15.4202 0.882866 16.1796 0.882866 16.6484 1.35158C17.1173 1.8203 17.1171 2.57977 16.6483 3.04849Z" fill="#EB5757"/>
<path d="M16.6483 3.04849L12.6969 7.00005L16.6484 10.9516C17.1171 11.4203 17.1171 12.1797 16.6484 12.6485C16.414 12.8828 16.107 13 15.7999 13C15.4928 13 15.1859 12.8828 14.9515 12.6484L11 8.69696L7.04843 12.6485C6.81408 12.8828 6.50712 13 6.20004 13C5.89297 13 5.58601 12.8828 5.35166 12.6484C4.88294 12.1797 4.88294 11.4203 5.35166 10.9515L9.30309 7.00005L5.35154 3.04849C4.88282 2.57977 4.88282 1.82042 5.35154 1.35158C5.82025 0.882746 6.5796 0.882866 7.04843 1.35158L11 5.30315L14.9515 1.35158C15.4202 0.882866 16.1796 0.882866 16.6484 1.35158C17.1173 1.8203 17.1171 2.57977 16.6483 3.04849Z" stroke="white"/>
</g>
<defs>
<filter id="filter0_d" x="0.5" y="0.5" width="21" height="21" filterUnits="userSpaceOnUse" color-interpolation-filters="sRGB">
<feFlood flood-opacity="0" result="BackgroundImageFix"/>
<feColorMatrix in="SourceAlpha" type="matrix" values="0 0 0 0 0 0 0 0 0 0 0 0 0 0 0 0 0 0 127 0"/>
<feOffset dy="4"/>
<feGaussianBlur stdDeviation="2"/>
<feColorMatrix type="matrix" values="0 0 0 0 0 0 0 0 0 0 0 0 0 0 0 0 0 0 0.25 0"/>
<feBlend mode="normal" in2="BackgroundImageFix" result="effect1_dropShadow"/>
<feBlend mode="normal" in="SourceGraphic" in2="effect1_dropShadow" result="shape"/>
</filter>
</defs>
</svg>
