<svg width="66" height="66" fill="none" xmlns="http://www.w3.org/2000/svg"><g clip-path="url(#clip0)" fill="red"><path d="M51.398 19.123l1.964-2.689a2.29 2.29 0 003.106-.561l.643-.88c.962-1.261.659-3.214-.642-4.123l-3.857-2.82c-1.261-.962-3.215-.658-4.124.642l-.642.88a2.275 2.275 0 00-.414 1.703c.088.567.38 1.068.824 1.426l-1.96 2.683a26.86 26.86 0 00-9.047-3.165V8.06h.965a2.293 2.293 0 002.29-2.29V3.568C40.504 1.6 38.904 0 36.936 0h-7.872a3.572 3.572 0 00-3.567 3.568V5.77a2.293 2.293 0 002.29 2.29h.965v4.16a27.034 27.034 0 00-9.052 3.158l-1.955-2.677c.443-.358.735-.859.824-1.426a2.275 2.275 0 00-.414-1.703l-.643-.88c-.909-1.3-2.862-1.604-4.123-.642L9.53 10.87c-1.3.91-1.604 2.863-.642 4.124l.643.88a2.289 2.289 0 003.106.561l1.955 2.676a27.101 27.101 0 00-5.368 6.907.969.969 0 101.701.927A25.127 25.127 0 0133 13.822c13.852 0 25.12 11.268 25.12 25.12a25.11 25.11 0 01-6.11 16.42.969.969 0 001.466 1.268 27.049 27.049 0 006.582-17.688c0-7.821-3.337-14.876-8.66-19.82zm-1.988-8.407l.643-.88a1.018 1.018 0 011.416-.22l3.857 2.818c.452.33.55.965.22 1.416l-.642.88a.354.354 0 01-.493.077l-4.924-3.598a.351.351 0 01-.077-.493zm.407 3.133l1.979 1.446-1.868 2.556a27.273 27.273 0 00-1.977-1.448l1.866-2.554zM27.434 5.771V3.568c0-.9.732-1.63 1.63-1.63h7.872c.899 0 1.63.73 1.63 1.63V5.77a.353.353 0 01-.353.353H27.787a.353.353 0 01-.353-.353zM11.096 14.73l-.642-.88a1.015 1.015 0 01.22-1.416l3.858-2.818a1.018 1.018 0 011.416.22l.643.88c.114.218.098.32-.077.493l-4.925 3.598a.353.353 0 01-.493-.077zm3.11.565l1.978-1.446 1.859 2.544c-.68.452-1.34.935-1.979 1.447l-1.859-2.545zm16.484-3.311V8.06h4.62v3.924a27.294 27.294 0 00-4.62-.001zM49.367 58A25.117 25.117 0 0133 64.062c-13.851 0-25.12-11.27-25.12-25.12 0-2.952.507-5.842 1.506-8.59a.969.969 0 00-1.82-.661 26.976 26.976 0 00-1.624 9.25C5.942 53.863 18.081 66 33 66c6.47 0 12.73-2.32 17.63-6.532A.969.969 0 0049.367 58z"/><path d="M46.735 23.076a.969.969 0 00-.16-1.36c-3.902-3.079-8.596-4.705-13.576-4.705-12.093 0-21.932 9.838-21.932 21.932 0 12.093 9.839 21.932 21.932 21.932 12.094 0 21.933-9.839 21.933-21.932a21.915 21.915 0 00-5.418-14.433.968.968 0 10-1.459 1.275 19.975 19.975 0 014.915 12.19h-2.972a.969.969 0 000 1.937h2.972c-.492 10.255-8.746 18.51-19.002 19.002V55.94a.969.969 0 00-1.937 0v2.973c-10.256-.492-18.51-8.747-19.003-19.002h2.973a.969.969 0 000-1.938h-2.973c.492-10.256 8.747-18.51 19.003-19.002v2.972a.969.969 0 001.937 0V18.97a19.76 19.76 0 0111.406 4.265.969.969 0 001.36-.16z"/><path d="M33 35.226a3.72 3.72 0 00-3.717 3.717A3.72 3.72 0 0033 42.659c.673 0 1.305-.181 1.85-.496l6.647 6.647a.968.968 0 101.37-1.37l-6.647-6.646a3.692 3.692 0 00.496-1.851A3.72 3.72 0 0033 35.226zm-1.78 3.717c0-.981.799-1.78 1.78-1.78.98 0 1.779.799 1.779 1.78a1.78 1.78 0 01-1.78 1.779c-.98 0-1.779-.799-1.779-1.78z"/></g><defs><clipPath id="clip0"><path fill="#fff" d="M0 0h66v66H0z"/></clipPath></defs></svg>