<svg width="69" height="69" fill="none" xmlns="http://www.w3.org/2000/svg"><path d="M45.141 18.571H12.098a1.015 1.015 0 100 2.03h33.043a1.015 1.015 0 100-2.03zM12.098 13.56H28.62a1.015 1.015 0 000-2.03H12.1a1.015 1.015 0 100 2.03zm33.043 11.25H12.098a1.015 1.015 0 100 2.03h33.043a1.015 1.015 0 100-2.03z" fill="red"/><path d="M19.625 61.947H9.05A3.151 3.151 0 015.902 58.8V5.178A3.152 3.152 0 019.05 2.03h30.464c.099 0 .196.009.292.022v6.33a5.184 5.184 0 005.177 5.178h6.33c.014.096.023.193.023.291v17.286a1.015 1.015 0 102.03 0V13.852c0-1.114-.434-2.16-1.221-2.948L42.462 1.22A4.141 4.141 0 0039.514 0H9.05a5.184 5.184 0 00-5.178 5.178V58.8a5.184 5.184 0 005.178 5.177h10.575a1.015 1.015 0 100-2.03zM49.9 11.53h-4.916a3.152 3.152 0 01-3.148-3.148V3.466L49.9 11.53z" fill="red"/><path d="M64.817 49.692l-8.6-14.517a2.225 2.225 0 00-3.05-.78l-2.093 1.238a3.974 3.974 0 00-1.752 4.634 3.111 3.111 0 01-2.19-.023c-1.651-.52-2.907-1.565-4.98-1.04-3.522.896-3.415.85-3.734.96-2.062-1.174-3.301-1.523-5.49-.677l-1.951.755a3.122 3.122 0 01-2.733-.229l-.533-.313c.26-1.557-.43-3.2-1.892-4.066l-2.092-1.24a2.229 2.229 0 00-3.05.781l-8.6 14.517a2.225 2.225 0 00.78 3.05l2.092 1.24a3.942 3.942 0 002.016.553c.766 0 1.522-.222 2.168-.64l.436.256-.92 1.282a3.402 3.402 0 003.292 5.345 3.393 3.393 0 001.368 2.191 3.37 3.37 0 002.513.596 3.4 3.4 0 004.695 2.553c.23.598.63 1.138 1.188 1.538a3.407 3.407 0 004.594-.582l2.446 1.45a3.402 3.402 0 004.664-1.194c.245-.414.398-.865.453-1.33l.006.004a3.408 3.408 0 005.13-2.677 3.41 3.41 0 003.76-1.566c.258-.435.408-.905.457-1.378a3.41 3.41 0 004.17-1.434 3.382 3.382 0 00.37-2.58 3.39 3.39 0 00-.692-1.347l1.348-.788a3.96 3.96 0 003.533-.253l2.092-1.24a2.225 2.225 0 00.78-3.049zm-48.834 2.543l-2.091-1.24a.196.196 0 01-.07-.268l8.601-14.518a.196.196 0 01.27-.068l2.09 1.239c.93.55 1.221 1.743.68 2.655l-6.824 11.52a1.94 1.94 0 01-2.656.68zm4.629 6.299a1.373 1.373 0 01-.315-1.917l1.353-1.884c.431-.6 1.29-.765 1.917-.315.615.442.756 1.301.315 1.917l-1.353 1.884a1.375 1.375 0 01-1.917.315zm3.88 2.786a1.375 1.375 0 01-.314-1.917l1.353-1.884 1.493-2.08a1.364 1.364 0 011.118-.573 1.371 1.371 0 011.353 1.151c.06.362-.026.726-.24 1.024l-2.846 3.964c-.442.617-1.3.758-1.916.315zm3.881 2.786a1.375 1.375 0 01-.315-1.916l2.846-3.965a1.375 1.375 0 011.917-.315c.615.442.756 1.301.315 1.917l-1.265 1.761-1.581 2.203a1.375 1.375 0 01-1.917.315zm4.515 1.901a1.375 1.375 0 01-.315-1.916l.947-1.319a1.375 1.375 0 011.917-.315c.615.442.756 1.302.315 1.917l-.947 1.318a1.375 1.375 0 01-1.916.315zm22.752-8.093a1.376 1.376 0 01-1.883.482l-8.985-5.323a1.015 1.015 0 00-1.035 1.746l6.793 4.025a1.373 1.373 0 11-1.4 2.364l-6.797-4.026a1.015 1.015 0 10-1.035 1.746l5.005 2.966h.001a1.374 1.374 0 11-1.401 2.364l-2.686-1.591h-.002v-.001l-1.96-1.161a1.015 1.015 0 10-1.035 1.746l1.96 1.162h.001a1.373 1.373 0 11-1.4 2.365l-2.288-1.355a3.407 3.407 0 00-.872-4.614 3.383 3.383 0 00-1.414-.59 3.41 3.41 0 00-1.202-3.958 3.39 3.39 0 00-2.511-.595 3.38 3.38 0 00-1.37-2.19 3.41 3.41 0 00-4.404.37 3.381 3.381 0 00-.97-1.076 3.41 3.41 0 00-3.762-.138l-.465-.274 6.384-10.776.304.18a5.14 5.14 0 004.498.373l1.951-.754c1.117-.431 1.732-.46 2.837.062a4.544 4.544 0 00-1.152 3.026v4.5c0 1.196.972 2.169 2.166 2.17h.003a4.458 4.458 0 003.173-1.314 4.472 4.472 0 001.077-1.725l13.394 7.932c.316.187.54.486.63.842.092.355.039.724-.148 1.04zM63 50.995l-2.091 1.24a1.94 1.94 0 01-2.656-.68l-3.198-5.4a1.015 1.015 0 00-1.747 1.035l3.199 5.4c.06.101.125.198.193.292l-.89.52c-.18.106-.352.224-.517.35l-13.79-8.165a1.016 1.016 0 00-1.532.873c-.01.06.105 1.104-.72 1.929a2.442 2.442 0 01-1.738.72h-.001a.139.139 0 01-.138-.14v-4.5c0-1.176.809-2.168 1.903-2.445l3.371-.853c1.223-.31 1.915.344 3.746.964a5.131 5.131 0 003.882-.063l.612 1.034a1.015 1.015 0 101.747-1.034l-1.207-2.037a1.937 1.937 0 01.68-2.655l2.092-1.24a.196.196 0 01.269.07l8.6 14.517a.196.196 0 01-.069.268z" fill="red"/></svg>