<svg width="55" height="55" fill="none" xmlns="http://www.w3.org/2000/svg"><g clip-path="url(#clip0)"><path d="M49.27 48.125H5.73A5.737 5.737 0 010 42.395v-29.79a5.737 5.737 0 015.73-5.73h43.54a5.737 5.737 0 015.73 5.73v29.79a5.737 5.737 0 01-5.73 5.73zM5.73 9.167a3.442 3.442 0 00-3.438 3.437v29.792a3.442 3.442 0 003.437 3.437h43.542a3.442 3.442 0 003.437-3.437V12.604a3.442 3.442 0 00-3.437-3.437H5.729z" fill="url(#paint0_linear)"/><path d="M17.187 27.5a5.737 5.737 0 01-5.729-5.73 5.737 5.737 0 015.73-5.728 5.737 5.737 0 015.729 5.729 5.737 5.737 0 01-5.73 5.73zm0-9.167a3.442 3.442 0 00-3.437 3.438 3.442 3.442 0 003.437 3.437 3.442 3.442 0 003.438-3.437 3.442 3.442 0 00-3.438-3.438z" fill="url(#paint1_linear)"/><path d="M26.354 38.958a1.146 1.146 0 01-1.146-1.145V35.52a3.442 3.442 0 00-3.437-3.438h-9.167a3.442 3.442 0 00-3.437 3.438v2.292a1.146 1.146 0 01-2.292 0V35.52a5.737 5.737 0 015.73-5.73h9.166a5.737 5.737 0 015.729 5.73v2.292c0 .632-.513 1.145-1.146 1.145z" fill="url(#paint2_linear)"/><path d="M46.98 20.625H33.23a1.146 1.146 0 010-2.292h13.75a1.146 1.146 0 010 2.292z" fill="url(#paint3_linear)"/><path d="M46.98 29.792H33.23a1.146 1.146 0 010-2.292h13.75a1.146 1.146 0 010 2.292z" fill="url(#paint4_linear)"/><path d="M46.98 38.958H33.23a1.146 1.146 0 010-2.291h13.75a1.146 1.146 0 010 2.291z" fill="url(#paint5_linear)"/></g><defs><linearGradient id="paint0_linear" x1="14.896" y1="8.594" x2="52.767" y2="20.204" gradientUnits="userSpaceOnUse"><stop stop-color="#E40300"/><stop offset="1" stop-color="#B70208"/></linearGradient><linearGradient id="paint1_linear" x1="14.562" y1="16.519" x2="22.759" y2="18.404" gradientUnits="userSpaceOnUse"><stop stop-color="#E40300"/><stop offset="1" stop-color="#B70208"/></linearGradient><linearGradient id="paint2_linear" x1="12.461" y1="30.174" x2="24.717" y2="36.514" gradientUnits="userSpaceOnUse"><stop stop-color="#E40300"/><stop offset="1" stop-color="#B70208"/></linearGradient><linearGradient id="paint3_linear" x1="36.428" y1="18.429" x2="39.793" y2="23.846" gradientUnits="userSpaceOnUse"><stop stop-color="#E40300"/><stop offset="1" stop-color="#B70208"/></linearGradient><linearGradient id="paint4_linear" x1="36.428" y1="27.596" x2="39.793" y2="33.012" gradientUnits="userSpaceOnUse"><stop stop-color="#E40300"/><stop offset="1" stop-color="#B70208"/></linearGradient><linearGradient id="paint5_linear" x1="36.428" y1="36.762" x2="39.793" y2="42.179" gradientUnits="userSpaceOnUse"><stop stop-color="#E40300"/><stop offset="1" stop-color="#B70208"/></linearGradient><clipPath id="clip0"><path fill="#fff" d="M0 0h55v55H0z"/></clipPath></defs></svg>