<svg width="232" height="34" fill="none" xmlns="http://www.w3.org/2000/svg"><path d="M194.003 9.614c-1.617 0-3.142.26-4.566.78-1.424.486-2.606 1.055-3.544 1.7l-.243-1.994h-7.281v23.016h7.817V17.432c.586-.587 1.307-1.065 2.187-1.458.871-.386 1.734-.587 2.572-.587 1.424 0 2.413.277 2.958.83.553.553.821 1.474.821 2.765v14.126h7.817V18.345c0-2.975-.679-5.178-2.036-6.602-1.358-1.417-3.528-2.129-6.502-2.129zm-23.384 2.187c-2.011-1.458-4.793-2.187-8.354-2.187-1.809 0-3.544.143-5.194.436-1.617.293-2.991.662-4.131 1.114v5.053a25.006 25.006 0 017.717-1.215c2.136 0 3.594.26 4.373.779.78.486 1.165 1.307 1.165 2.48v.536h-6.41c-3.2 0-5.613.679-7.23 2.036-1.584 1.324-2.38 3.176-2.38 5.538 0 1.617.369 2.975 1.115 4.08a6.768 6.768 0 002.957 2.38c1.265.52 2.623.78 4.081.78 1.943 0 3.56-.21 4.851-.63 1.324-.418 2.413-1.021 3.251-1.792l.385 1.944h6.845v-14.37c.017-3.192-.997-5.504-3.041-6.962zm-4.416 14.763c-.553.645-1.282 1.181-2.186 1.6-.905.42-1.978.629-3.201.629-1.232 0-2.137-.243-2.715-.73-.586-.485-.871-1.147-.871-1.993 0-1.844 1.148-2.765 3.444-2.765h5.538v3.259h-.009zm56.036-6.895l9.224-9.569h-8.881l-7.524 7.382V.39h-7.817v32.726h7.817v-7.088l2.279-2.237 6.359 9.325H232l-9.761-13.447zm-79.613-2.53c1.039-.612 1.86-1.475 2.48-2.573.645-1.131.972-2.522.972-4.172 0-2.715-.812-4.826-2.43-6.31-1.583-1.49-3.946-2.236-7.088-2.236h-16.505v31.268h16.991c3.268 0 5.781-.78 7.524-2.33 1.751-1.583 2.623-3.87 2.623-6.845 0-2.01-.403-3.51-1.215-4.515-.813-1.006-1.927-1.768-3.352-2.288zm-14.763-9.661h5.974c1.617 0 2.732.31 3.352.921.611.587.921 1.475.921 2.673 0 1.098-.31 1.96-.921 2.572-.612.612-1.601.922-2.958.922h-6.359V7.478h-.009zm10.298 19.178c-.679.587-1.735.872-3.159.872h-7.139v-7.575h6.846c1.65 0 2.815.31 3.493.922.679.587 1.023 1.475 1.023 2.673 0 1.491-.352 2.53-1.064 3.108z" fill="#000"/><path d="M20.921 20.49c0 2.17-.57 3.787-1.7 4.85-1.132 1.065-2.749 1.6-4.852 1.6s-3.72-.535-4.851-1.6c-1.131-1.063-1.7-2.689-1.7-4.85V1.846H0v19.371c0 2.69.586 4.952 1.751 6.795 1.198 1.844 2.866 3.234 5.002 4.173 2.17.938 4.709 1.407 7.624 1.407 2.916 0 5.438-.469 7.575-1.407 2.17-.939 3.837-2.33 5.002-4.173 1.198-1.843 1.793-4.113 1.793-6.795V1.848h-7.818V20.49h-.008zM49.056 9.614c-1.617 0-3.142.26-4.566.78-1.425.485-2.606 1.055-3.544 1.7l-.243-1.994h-7.281v23.016h7.817V17.43c.586-.586 1.307-1.064 2.187-1.458.871-.385 1.734-.586 2.572-.586 1.424 0 2.413.277 2.957.83.553.553.83 1.474.83 2.764v14.127h7.817V18.345c0-2.975-.679-5.178-2.036-6.603-1.357-1.416-3.527-2.128-6.51-2.128zm24.03 0c-4.014 0-7.022 1.081-9.032 3.251-2.011 2.17-3.008 5.086-3.008 8.739 0 4.013 1.215 7.021 3.644 9.032 2.43 1.977 5.647 2.957 9.66 2.957 1.81 0 3.478-.125 5.003-.385 1.524-.226 2.832-.595 3.93-1.114V27c-.872.352-1.978.645-3.302.871a22.294 22.294 0 01-3.837.344c-2.263 0-4.064-.294-5.388-.872-1.298-.611-2.12-1.684-2.48-3.2H84.59v-4.131c0-3.175-1.005-5.697-3.008-7.574-2.01-1.885-4.843-2.824-8.496-2.824zm4.708 10.004h-9.518c0-1.617.369-2.798 1.115-3.544.745-.78 2.052-1.165 3.93-1.165 1.616 0 2.764.344 3.443 1.023.678.645 1.022 1.533 1.022 2.672v1.014h.008zm24.759 1.793l8.495-11.31h-8.495l-4.273 5.78-4.273-5.78H85.51l8.496 11.31-8.84 11.697h8.546l4.567-6.066 4.566 6.066h8.546l-8.839-11.697z" fill="red"/></svg>