<svg width="20" height="20" fill="none" xmlns="http://www.w3.org/2000/svg"><g clip-path="url(#clip0)"><path d="M20 10c0 3.302-2.667 6-6 6-3.302 0-6-2.698-6-6s2.667-6 5.968-6A6.002 6.002 0 0120 10z" fill="#FFB600"/><path d="M14 4c3.302 0 6 2.698 6 6s-2.667 6-6 6c-3.302 0-6-2.698-6-6" fill="#F7981D"/><path d="M14 4c3.302 0 6 2.698 6 6s-2.667 6-6 6" fill="#FF8500"/><path d="M5.937 4A6.002 6.002 0 000 10c0 3.302 2.667 6 6 6 1.556 0 2.952-.603 4.032-1.556.222-.19.412-.412.603-.635H9.397a7.325 7.325 0 01-.445-.603h2.127c.127-.19.254-.412.35-.635H8.603a3.781 3.781 0 01-.254-.634h3.302c.19-.604.317-1.239.317-1.905 0-.445-.063-.857-.127-1.27H8.16c.031-.222.095-.413.158-.635h3.302a3.78 3.78 0 00-.254-.635H8.571c.096-.222.223-.413.35-.635h2.127a3.019 3.019 0 00-.477-.635H9.397A5.41 5.41 0 0110 5.62c-1.048-.984-2.476-1.556-4.032-1.556 0-.063 0-.063-.031-.063z" fill="#FF5050"/><path d="M0 10c0 3.302 2.667 6 6 6 1.556 0 2.952-.603 4.032-1.556.222-.19.412-.412.603-.634H9.397a7.325 7.325 0 01-.445-.604h2.127a4.11 4.11 0 00.35-.634H8.603a3.785 3.785 0 01-.254-.635h3.302c.19-.604.317-1.239.317-1.905 0-.445-.063-.857-.127-1.27H8.16c.031-.222.095-.413.158-.635h3.302a3.78 3.78 0 00-.254-.635H8.571c.096-.222.223-.413.35-.635h2.127a3.019 3.019 0 00-.477-.635H9.397c.19-.222.38-.412.603-.603-1.048-.984-2.476-1.555-4.032-1.555h-.031" fill="#E52836"/><path d="M6 16c1.556 0 2.952-.603 4.032-1.556.222-.19.412-.412.603-.634H9.397a7.323 7.323 0 01-.445-.604h2.127a4.11 4.11 0 00.35-.634H8.603a3.785 3.785 0 01-.254-.635h3.302c.19-.604.317-1.239.317-1.905 0-.445-.063-.857-.127-1.27H8.16c.031-.222.095-.413.158-.635h3.302a3.788 3.788 0 00-.254-.635H8.571c.096-.222.223-.413.35-.635h2.127a3.019 3.019 0 00-.477-.635H9.397c.19-.222.38-.412.603-.603-1.048-.984-2.476-1.555-4.032-1.555h-.031" fill="#CB2026"/><path d="M8.126 11.524l.095-.54c-.032 0-.095.032-.159.032-.222 0-.254-.127-.222-.19l.19-1.112h.35l.095-.603h-.318l.064-.38h-.635s-.38 2.094-.38 2.348c0 .381.221.54.507.54.19 0 .35-.063.413-.095zm.224-1.016c0 .889.603 1.111 1.11 1.111.477 0 .667-.095.667-.095l.127-.603s-.349.158-.666.158c-.699 0-.572-.508-.572-.508h1.302s.095-.412.095-.571c0-.413-.222-.92-.92-.92-.667-.064-1.143.634-1.143 1.428zm1.11-.92c.35 0 .286.412.286.444h-.698c0-.032.064-.445.413-.445zm4.032 1.936l.127-.699s-.317.16-.54.16c-.444 0-.635-.35-.635-.731 0-.762.381-1.175.826-1.175.317 0 .571.19.571.19l.096-.666s-.381-.159-.73-.159c-.73 0-1.46.635-1.46 1.842 0 .793.38 1.333 1.142 1.333.254 0 .603-.095.603-.095zM4.635 9.016c-.444 0-.762.127-.762.127l-.095.54s.286-.128.698-.128c.223 0 .413.032.413.223 0 .127-.032.158-.032.158h-.285c-.54 0-1.143.223-1.143.953 0 .571.38.698.603.698.444 0 .635-.285.667-.285l-.032.253h.571l.254-1.746c0-.762-.635-.793-.857-.793zm.127 1.428c0 .096-.063.603-.444.603-.19 0-.254-.158-.254-.254 0-.158.095-.38.571-.38.095.031.127.031.127.031zm1.332 1.143c.16 0 .953.032.953-.825 0-.794-.762-.635-.762-.953 0-.158.127-.222.35-.222.094 0 .444.032.444.032l.095-.571s-.222-.064-.603-.064c-.477 0-.953.19-.953.825 0 .73.794.667.794.953 0 .19-.222.222-.381.222-.286 0-.571-.095-.571-.095l-.096.571c.032.064.19.127.73.127zm12.668-3.079l-.127.857s-.254-.317-.604-.317c-.57 0-1.079.698-1.079 1.523 0 .508.254 1.048.794 1.048a.847.847 0 00.603-.254l-.032.222h.635l.476-3.047-.666-.032zm-.286 1.683c0 .349-.159.793-.508.793-.222 0-.35-.19-.35-.508 0-.508.223-.825.509-.825.222 0 .349.159.349.54zM1.174 11.556l.381-2.286.064 2.286h.444L2.89 9.27l-.35 2.286h.667l.508-3.048H2.667l-.635 1.873L2 8.508h-.92l-.51 3.048h.603zm9.842 0c.19-1.048.222-1.905.666-1.747.064-.412.16-.571.223-.73h-.127c-.286 0-.508.381-.508.381l.063-.349h-.603l-.413 2.476h.699v-.031zm3.936-2.54c-.444 0-.761.127-.761.127l-.096.54s.286-.128.699-.128c.222 0 .412.032.412.223 0 .127-.031.158-.031.158h-.286c-.54 0-1.143.223-1.143.953 0 .571.381.698.603.698.445 0 .635-.285.667-.285l-.032.253h.572l.254-1.746c.031-.762-.635-.793-.858-.793zm.16 1.428c0 .096-.064.603-.445.603-.19 0-.254-.158-.254-.254 0-.158.095-.38.571-.38.095.031.095.031.127.031zm1.237 1.112c.19-1.048.222-1.905.666-1.747.064-.412.16-.571.223-.73h-.127c-.286 0-.508.381-.508.381l.063-.349h-.603l-.413 2.476h.699v-.031z" fill="#fff"/><path d="M7.143 11.08c0 .38.222.54.508.54.222 0 .412-.064.476-.096l.095-.54c-.032 0-.095.032-.159.032-.222 0-.254-.127-.222-.19l.19-1.112h.35l.095-.603h-.318l.064-.38m.445 1.777c0 .889.286 1.111.794 1.111.476 0 .666-.095.666-.095l.127-.603s-.349.158-.666.158c-.699 0-.572-.508-.572-.508h1.302s.095-.412.095-.571c0-.413-.222-.92-.92-.92-.667-.064-.826.634-.826 1.428zm.794-.92c.349 0 .412.412.412.444h-.825c0-.032.063-.445.413-.445zm4.031 1.936l.127-.699s-.317.16-.54.16c-.444 0-.635-.35-.635-.731 0-.762.381-1.175.826-1.175.317 0 .571.19.571.19l.096-.666s-.381-.159-.73-.159c-.73 0-1.144.635-1.144 1.842 0 .793.064 1.333.826 1.333.254 0 .603-.095.603-.095zm-9.714-1.81s.286-.127.698-.127c.223 0 .413.032.413.222 0 .127-.032.16-.032.16h-.285c-.54 0-1.143.221-1.143.952 0 .571.38.698.603.698.444 0 .635-.286.667-.286l-.032.254h.571l.254-1.746c0-.73-.635-.762-.889-.762l-.825.635zm1.302.73c0 .096-.381.603-.762.603-.19 0-.254-.158-.254-.253 0-.16.095-.381.571-.381.095.031.445.031.445.031zm.316 1.08s.191.063.73.063c.16 0 .953.032.953-.825 0-.794-.762-.635-.762-.953 0-.158.127-.222.35-.222.095 0 .444.032.444.032l.095-.571s-.222-.064-.603-.064c-.476 0-.635.19-.635.825 0 .73.476.667.476.953 0 .19-.222.222-.38.222m12.57-1.619s-.254-.317-.603-.317c-.572 0-.762.698-.762 1.523 0 .508-.064 1.048.476 1.048.381 0 .603-.254.603-.254l-.031.222h.634l.477-3.047-.794.825zm-.032.825c0 .35-.285.794-.635.794-.222 0-.349-.19-.349-.508 0-.508.222-.825.508-.825.222 0 .476.159.476.54zM1.174 11.556l.381-2.286.064 2.286h.444L2.89 9.27l-.35 2.286h.667l.508-3.048h-.793l-.89 1.873L2 8.508h-.35L.572 11.556h.603zm9.176 0h.666c.19-1.048.223-1.905.667-1.747.063-.412.159-.571.222-.73h-.127c-.286 0-.508.381-.508.381l.064-.349m2.761.603s.286-.127.699-.127c.222 0 .412.032.412.222 0 .127-.031.16-.031.16h-.286c-.54 0-1.143.221-1.143.952 0 .571.381.698.603.698.445 0 .635-.286.667-.286l-.032.254h.572l.254-1.746c0-.73-.635-.762-.89-.762l-.825.635zm1.302.73c0 .096-.381.603-.762.603-.19 0-.254-.158-.254-.253 0-.16.095-.381.571-.381.127.031.445.031.445.031zm.287 1.112h.666c.19-1.048.223-1.905.667-1.747.063-.412.159-.571.222-.73h-.127c-.285 0-.508.381-.508.381l.064-.349" fill="#DCE5E5"/></g><defs><clipPath id="clip0"><path fill="#fff" d="M0 0h20v20H0z"/></clipPath></defs></svg>