<svg width="69" height="69" fill="none" xmlns="http://www.w3.org/2000/svg"><g clip-path="url(#clip0)" fill="red"><path d="M68.432 8.709L60.286.94c-.31-.297-.63-.604-1.228-.604h-32.63A1.73 1.73 0 0024.7 2.064v5.308L13.2 9.343a1.703 1.703 0 00-1.383 1.965l.584 3.403c-3.738 1.258-7.576 2.555-11.28 3.885a1.711 1.711 0 00-1.023 2.175l7.37 20.486a1.011 1.011 0 101.902-.684L2.11 20.389c3.49-1.25 7.104-2.473 10.637-3.662l3.473 20.248 3.996 23.32a1.712 1.712 0 001.965 1.385l10.824-1.858 8.458-1.45-12.72 4.573-10.032 3.607-7.79-21.67a1.01 1.01 0 10-1.903.685l7.901 21.976a1.709 1.709 0 001.6 1.121c.19 0 .385-.033.574-.102l10.333-3.715 23.462-8.433 4.482-.768h9.901c.954 0 1.729-.777 1.729-1.732V9.847c0-.605-.328-.913-.568-1.138zm-2.678.239h-5.183c-.242.002-.809.006-.953-.137-.033-.033-.072-.143-.072-.348l-.011-5.446 6.22 5.93zm1.224 44.676H26.721V33.926a1.01 1.01 0 00-2.021 0v19.987c0 .956.775 1.733 1.728 1.733h18.977L32.663 57.83l-10.509 1.803-3.942-23-4.348-25.353 10.835-1.857v19.813a1.01 1.01 0 102.022 0V2.357h30.79l.014 6.109c0 .74.225 1.339.669 1.78.682.677 1.647.725 2.246.725l.146-.001h6.392v42.654z"/><path d="M31.593 16.03a1.01 1.01 0 001.01 1.011h28.9a1.01 1.01 0 100-2.021h-28.9a1.01 1.01 0 00-1.01 1.01zm29.909 6.17H32.603a1.01 1.01 0 100 2.022h28.9a1.01 1.01 0 000-2.022zm0 7.18H32.603a1.01 1.01 0 000 2.022h28.9a1.01 1.01 0 100-2.021zm0 7.181H32.603a1.01 1.01 0 100 2.022h28.9a1.01 1.01 0 100-2.022zm0 7.181H32.603a1.01 1.01 0 000 2.021h28.9a1.01 1.01 0 100-2.021z"/></g><defs><clipPath id="clip0"><path fill="#fff" d="M0 0h69v69H0z"/></clipPath></defs></svg>