<svg width="41" height="55" fill="none" xmlns="http://www.w3.org/2000/svg"><g clip-path="url(#clip0)"><path d="M31.737 41.314l-23-.004c-.635 0-1.15.513-1.15 1.146 0 .633.514 1.146 1.15 1.146l23 .004c.634 0 1.15-.513 1.15-1.146 0-.633-.514-1.146-1.15-1.146z" fill="url(#paint0_linear)"/><path d="M27.134 45.897H13.336c-.636 0-1.15.513-1.15 1.146 0 .633.514 1.146 1.15 1.146h13.798c.636 0 1.15-.513 1.15-1.146 0-.633-.514-1.146-1.15-1.146z" fill="url(#paint1_linear)"/><path d="M20.5 13.75c-6.974 0-12.648 5.654-12.648 12.604 0 6.95 5.674 12.604 12.648 12.604 6.974 0 12.648-5.654 12.648-12.604 0-6.95-5.674-12.604-12.648-12.604zM10.268 27.5h4.506c.128 3.121.775 6.225 1.897 8.416a10.295 10.295 0 01-6.403-8.416zm4.506-2.291h-4.506a10.295 10.295 0 016.404-8.416c-1.123 2.19-1.77 5.294-1.898 8.416zM20.5 36.667c-1.317 0-3.17-3.55-3.404-9.167h6.807c-.233 5.617-2.086 9.167-3.403 9.167zm-3.404-11.458c.234-5.617 2.087-9.167 3.404-9.167 1.317 0 3.17 3.55 3.403 9.167h-6.806zm7.232 10.707c1.123-2.19 1.77-5.294 1.898-8.416h4.506a10.295 10.295 0 01-6.404 8.416zm1.898-10.707c-.128-3.122-.775-6.226-1.898-8.416a10.295 10.295 0 016.404 8.416h-4.506z" fill="url(#paint2_linear)"/><path d="M36.598 6.875h-2.3V4.507c0-2.503-2.126-4.532-4.6-4.507a4.195 4.195 0 00-1.027.145L4.156 6.9c-2.42.13-4.353 2.115-4.353 4.559v38.958c0 2.527 2.063 4.583 4.6 4.583h32.195c2.536 0 4.6-2.055 4.6-4.583V11.459c0-2.528-2.064-4.584-4.6-4.584zM29.262 2.36c1.342-.341 2.736.742 2.736 2.148v2.368H12.874L29.262 2.36zm9.635 48.058a2.299 2.299 0 01-2.3 2.291H4.403a2.299 2.299 0 01-2.3-2.291V11.459a2.299 2.299 0 012.3-2.292h32.196a2.3 2.3 0 012.3 2.292v38.958z" fill="url(#paint3_linear)"/></g><defs><linearGradient id="paint0_linear" x1="14.439" y1="41.406" x2="17.006" y2="47.912" gradientUnits="userSpaceOnUse"><stop stop-color="#E40300"/><stop offset="1" stop-color="#B70208"/></linearGradient><linearGradient id="paint1_linear" x1="16.546" y1="45.993" x2="19.906" y2="51.42" gradientUnits="userSpaceOnUse"><stop stop-color="#E40300"/><stop offset="1" stop-color="#B70208"/></linearGradient><linearGradient id="paint2_linear" x1="14.703" y1="14.801" x2="32.795" y2="18.975" gradientUnits="userSpaceOnUse"><stop stop-color="#E40300"/><stop offset="1" stop-color="#B70208"/></linearGradient><linearGradient id="paint3_linear" x1="11.014" y1="2.292" x2="41.288" y2="7.531" gradientUnits="userSpaceOnUse"><stop stop-color="#E40300"/><stop offset="1" stop-color="#B70208"/></linearGradient><clipPath id="clip0"><path fill="#fff" d="M0 0h41v55H0z"/></clipPath></defs></svg>