<svg width="16" height="16" fill="none" xmlns="http://www.w3.org/2000/svg"><g clip-path="url(#clip0)" fill="red"><path d="M8.647 3.806a4.282 4.282 0 012.33 1.209 4.304 4.304 0 011.209 2.33c.037.223.23.378.449.378a.456.456 0 00.453-.534 5.209 5.209 0 00-1.463-2.82 5.209 5.209 0 00-2.82-1.461.458.458 0 00-.526.371.45.45 0 00.368.527zm7.334 3.252a8.57 8.57 0 00-2.407-4.643A8.569 8.569 0 008.93.007a.454.454 0 10-.148.898 7.672 7.672 0 014.15 2.151 7.65 7.65 0 012.151 4.15c.037.223.23.379.45.379.026 0 .05-.004.077-.007a.447.447 0 00.371-.52zm-3.454 6.266l-1.981-1.981c-.395-.393-1.049-.381-1.457.027l-.998.998a27.523 27.523 0 01-.197-.11c-.63-.349-1.493-.827-2.4-1.736-.911-.91-1.39-1.774-1.74-2.405l-.108-.193.67-.668.329-.33c.409-.41.42-1.063.027-1.457L2.69 3.487c-.393-.393-1.047-.381-1.456.028l-.559.561.016.016a3.229 3.229 0 00-.46.811 3.365 3.365 0 00-.205.823c-.262 2.17.73 4.151 3.419 6.841 3.718 3.718 6.714 3.437 6.843 3.423a3.348 3.348 0 001.635-.665l.012.01.566-.553c.408-.41.42-1.063.026-1.458z"/></g><defs><clipPath id="clip0"><path fill="#fff" d="M0 0h16v16H0z"/></clipPath></defs></svg>