<svg width="20" height="20" fill="none" xmlns="http://www.w3.org/2000/svg"><path d="M7.333 12.873l1.016-5.714h1.587l-.984 5.714H7.333z" fill="#3C58BF"/><path d="M7.333 12.873l1.302-5.714h1.301l-.984 5.714H7.333z" fill="#293688"/><path d="M14.699 7.222a4.026 4.026 0 00-1.46-.254c-1.588 0-2.73.794-2.73 1.937 0 .857.793 1.301 1.428 1.587.635.286.825.476.825.73 0 .381-.508.572-.952.572-.635 0-.984-.096-1.524-.318l-.222-.095-.222 1.301c.38.16 1.08.318 1.81.318 1.682 0 2.793-.794 2.793-2 0-.667-.413-1.175-1.365-1.587-.572-.286-.92-.445-.92-.73 0-.254.285-.508.92-.508.54 0 .92.095 1.206.222l.159.063.254-1.238z" fill="#3C58BF"/><path d="M14.699 7.222a4.026 4.026 0 00-1.46-.254c-1.588 0-2.445.794-2.445 1.937 0 .857.508 1.301 1.143 1.587.635.286.825.476.825.73 0 .381-.508.572-.952.572-.635 0-.984-.096-1.524-.318l-.222-.095-.222 1.301c.38.16 1.08.318 1.81.318 1.682 0 2.793-.794 2.793-2 0-.667-.413-1.175-1.365-1.587-.572-.286-.92-.445-.92-.73 0-.254.285-.508.92-.508.54 0 .92.095 1.206.222l.159.063.254-1.238z" fill="#293688"/><path d="M17.428 7.159c-.38 0-.667.031-.825.412l-2.381 5.302h1.714l.317-.952h2.032l.19.952H20l-1.333-5.714h-1.238zm-.73 3.81c.095-.287.635-1.683.635-1.683s.127-.35.222-.572l.095.54s.318 1.428.381 1.746h-1.333v-.032z" fill="#3C58BF"/><path d="M17.809 7.159c-.381 0-.667.031-.825.412l-2.762 5.302h1.714l.317-.952h2.032l.19.952H20l-1.333-5.714h-.857zm-1.111 3.81c.127-.318.635-1.683.635-1.683s.127-.35.222-.572l.095.54s.318 1.428.381 1.746h-1.333v-.032z" fill="#293688"/><path d="M4.413 11.159l-.159-.826c-.285-.952-1.206-2-2.222-2.508l1.429 5.08h1.714L7.747 7.19H6.032l-1.619 3.97z" fill="#3C58BF"/><path d="M4.413 11.159l-.159-.826c-.285-.952-1.206-2-2.222-2.508l1.429 5.08h1.714L7.747 7.19H6.35l-1.937 3.97z" fill="#293688"/><path d="M0 7.159l.286.063c2.031.476 3.428 1.683 3.968 3.111l-.571-2.698c-.096-.381-.381-.476-.73-.476H0z" fill="#FFBC00"/><path d="M0 7.159c2.032.476 3.714 1.714 4.254 3.143l-.54-2.254a.775.775 0 00-.762-.604L0 7.16z" fill="#F7981D"/><path d="M0 7.159c2.032.476 3.714 1.714 4.254 3.143l-.381-1.239c-.095-.38-.222-.761-.667-.92L0 7.159z" fill="#ED7C00"/><path d="M6.001 10.968l-1.08-1.08-.507 1.207-.127-.793c-.286-.953-1.207-2-2.223-2.508l1.429 5.079h1.714l.794-1.905zm2.953 1.905l-1.365-1.397-.254 1.397h1.619zm3.65-1.968c.127.127.19.222.158.349 0 .38-.508.571-.952.571-.635 0-.984-.095-1.524-.317l-.222-.095-.222 1.301c.38.159 1.08.318 1.81.318 1.015 0 1.84-.286 2.317-.794l-1.365-1.333zm1.84 1.968h1.492l.318-.952h2.032l.19.952H20l-.54-2.317-1.905-1.842.096.508s.317 1.429.38 1.746h-1.333c.127-.317.635-1.682.635-1.682s.127-.35.222-.572" fill="#051244"/></svg>