<svg width="69" height="69" fill="none" xmlns="http://www.w3.org/2000/svg"><g clip-path="url(#clip0)" fill="red"><path d="M65.71 40.415h-1.032v-9.3a4.367 4.367 0 00-1.852-3.569V26.28a3.335 3.335 0 00-3.332-3.332h-.77l2.95-4.328a3.188 3.188 0 00-.839-4.425L40.818.554a3.161 3.161 0 00-2.386-.497 3.163 3.163 0 00-2.039 1.335L19.116 26.745H14.31l1.16-11.742a.349.349 0 01.218-.293 7.474 7.474 0 003.647-2.962.346.346 0 01.327-.154l7.54.745a.984.984 0 00.194-1.957l-7.541-.745a2.301 2.301 0 00-2.18 1.055 5.495 5.495 0 01-2.68 2.178 2.298 2.298 0 00-1.482 1.94l-1.18 11.935H11.08l1.834-18.572a1.218 1.218 0 011.332-1.092l15.239 1.505a.984.984 0 00.193-1.957l-15.24-1.505a3.188 3.188 0 00-3.482 2.856L9.478 22.948H6.96a3.335 3.335 0 00-3.332 3.332v.864a4.375 4.375 0 00-2.549 3.97V64.63c0 2.41 1.96 4.37 4.37 4.37h54.859c2.41 0 4.37-1.96 4.37-4.37v-9.3h1.032c1.22 0 2.21-.992 2.21-2.21V42.625c0-1.22-.99-2.21-2.21-2.21zm-6.216-15.5c.753 0 1.365.612 1.365 1.365v.5a4.382 4.382 0 00-.551-.035h-4.172l1.247-1.83h2.111zM38.018 2.499a1.211 1.211 0 011.01-.532c.242 0 .478.072.683.212l20.017 13.64a1.22 1.22 0 01.32 1.693l-6.291 9.232h-1.51l3.084-4.526a2.3 2.3 0 00.108-2.438 5.494 5.494 0 01-.659-3.392 2.3 2.3 0 00-.995-2.206L43.41 7.11a2.3 2.3 0 00-2.418-.118 5.496 5.496 0 01-3.397.627 2.327 2.327 0 00-2.23.992L23.006 26.745h-1.51L38.018 2.499zm.433 16.697c-4.281 0-7.796 3.338-8.082 7.549h-4.984L36.988 9.718a.351.351 0 01.333-.152 7.475 7.475 0 004.62-.853.347.347 0 01.36.022l10.377 7.072a.347.347 0 01.152.327 7.473 7.473 0 00.896 4.612.349.349 0 01-.02.365l-3.839 5.633h-3.333c-.286-4.21-3.8-7.548-8.083-7.548zm6.112 7.549H32.34a6.145 6.145 0 016.111-5.583 6.145 6.145 0 016.112 5.583zM5.595 26.28c0-.753.612-1.365 1.365-1.365h2.324l-.181 1.83H5.595v-.465zm-2.55 4.834a2.406 2.406 0 012.404-2.403h54.859a2.406 2.406 0 012.403 2.404v2.728H3.045v-2.729zM62.711 64.63a2.406 2.406 0 01-2.403 2.404H5.449a2.406 2.406 0 01-2.404-2.404v-2.728h5.302a.983.983 0 100-1.966H3.045V35.809h59.666v4.606h-9.348a7.465 7.465 0 00-6.708 4.203l-.012.024-.03.065c-.144.306-.27.623-.371.95v.003a7.431 7.431 0 00-.336 2.212c0 4.112 3.345 7.457 7.457 7.457h9.348v4.607H14.643a.983.983 0 100 1.966H62.71v2.728zm3.243-11.51c0 .134-.11.243-.244.243H53.363a5.496 5.496 0 01-5.49-5.49 5.466 5.466 0 01.663-2.616 5.496 5.496 0 014.827-2.875H65.71c.135 0 .244.11.244.244v10.493z"/><path d="M53.594 43.883c-2.2 0-3.99 1.79-3.99 3.99 0 2.199 1.79 3.988 3.99 3.988s3.989-1.79 3.989-3.989c0-2.2-1.79-3.989-3.99-3.989zm0 6.012a2.025 2.025 0 01-2.023-2.023c0-1.115.907-2.022 2.023-2.022 1.115 0 2.022.907 2.022 2.022a2.025 2.025 0 01-2.022 2.023z"/></g><defs><clipPath id="clip0"><path fill="#fff" d="M0 0h69v69H0z"/></clipPath></defs></svg>