<?xml version="1.0" encoding="utf-8"?><svg viewBox="0 0 88 32" xmlns="http://www.w3.org/2000/svg" xmlns:xlink="http://www.w3.org/1999/xlink"><style>:root>svg{display:none}:root>svg:target{display:block}</style><svg fill="inherit" viewBox="0 0 21 8" id="Arrow-link" xmlns="http://www.w3.org/2000/svg"><path d="M20.354 4.354a.5.5 0 000-.708L17.172.464a.5.5 0 10-.707.708L19.293 4l-2.828 2.828a.5.5 0 10.707.708l3.182-3.182zM0 4.5h20v-1H0v1z"/></svg><svg fill="none" viewBox="0 0 86 32" id="bank" xmlns="http://www.w3.org/2000/svg"><rect x="53" width="33" height="32" rx="5" fill="#8CC63F"/><path d="M11.88 20.884c0 .293-.056.57-.171.827a2.075 2.075 0 01-.451.677 2.187 2.187 0 01-.666.45 2.129 2.129 0 01-.827.162H3.867c-.286 0-.558-.054-.816-.161a2.33 2.33 0 01-.677-.451 2.33 2.33 0 01-.451-.677 2.129 2.129 0 01-.161-.827V7.155h2.105v6.424c.015-.28.079-.54.194-.784a2.048 2.048 0 011.117-1.074c.25-.108.519-.161.805-.161h3.782c.293 0 .569.057.827.171.258.108.48.258.666.452.193.186.344.408.451.666.115.257.172.533.172.827v7.208zm-8.013-7.208v7.208h5.898v-7.208H3.867zm11.537 4.329c0-.294.054-.566.161-.816.115-.258.265-.484.452-.677.193-.194.419-.344.676-.451.258-.115.53-.172.817-.172h5.457v-2.213H16.06V11.56h6.907c.293 0 .57.057.827.171.258.108.48.258.666.452.193.186.344.408.451.666.115.257.172.533.172.827V23h-2.116v-1.934a1.976 1.976 0 01-.215.752 2.24 2.24 0 01-.473.623 2.145 2.145 0 01-.644.409c-.244.1-.502.15-.774.15H17.51c-.287 0-.559-.054-.817-.161a2.33 2.33 0 01-.676-.451 2.33 2.33 0 01-.452-.677 2.129 2.129 0 01-.16-.827v-2.88zm2.106 2.879h5.457v-2.88H17.51v2.88zM38.736 23H36.62v-9.324h-5.897V23h-2.106V11.56h2.106v2.02c.014-.28.078-.542.193-.785a2.048 2.048 0 011.117-1.074c.25-.108.52-.161.806-.161h3.781c.294 0 .57.057.827.171.258.108.48.258.666.452.194.186.344.408.452.666.114.257.171.533.171.827V23zm11.086 0l-5.457-4.888V23H42.26V7.155h2.105v8.916l5.017-4.511h2.975l-6.144 5.521L52.798 23h-2.976z" fill="#1D495F"/><path d="M63.153 11.56V23h-2.116V11.56h2.116zM60.93 7.155h2.33v2.202h-2.33V7.155zm5.865 6.52c0-.293.054-.569.161-.826.115-.258.265-.48.451-.666.194-.194.42-.344.677-.452.258-.114.53-.171.816-.171h5.898V7.155h2.116V23h-2.116v-1.934a1.974 1.974 0 01-.215.752 2.24 2.24 0 01-.473.623 2.146 2.146 0 01-.644.409c-.244.1-.501.15-.774.15H68.9c-.286 0-.558-.054-.816-.161a2.332 2.332 0 01-.677-.451 2.328 2.328 0 01-.45-.677 2.127 2.127 0 01-.162-.827v-7.208zm2.105 7.209h5.898v-7.208H68.9v7.208z" fill="#fff"/></svg><svg fill="none" viewBox="0 0 16 16" id="cabinet" xmlns="http://www.w3.org/2000/svg"><path d="M14 15v-1.667c0-.884-.316-1.732-.879-2.357C12.56 10.351 11.796 10 11 10H5c-.796 0-1.559.351-2.121.976C2.316 11.601 2 12.45 2 13.333V15M8 7a3 3 0 100-6 3 3 0 000 6z" stroke="#2E2E2E" stroke-linecap="round" stroke-linejoin="round"/></svg><svg fill="none" viewBox="0 0 28 25" id="chat" xmlns="http://www.w3.org/2000/svg"><path d="M28 16.919A8.112 8.112 0 0023.587 9.7c-.082 5.948-4.87 10.771-10.775 10.854C14.15 23.22 16.898 25 19.977 25a7.95 7.95 0 004.083-1.123l3.905 1.088-1.08-3.934A8.097 8.097 0 0028 16.919z" fill="red"/><path d="M18.953 9.546C18.953 4.282 14.703 0 9.477 0 4.25 0 0 4.282 0 9.546a9.57 9.57 0 001.314 4.852l-1.28 4.659 4.626-1.289a9.395 9.395 0 004.817 1.324c5.225 0 9.476-4.282 9.476-9.546zM8.023 7.324H6.567c0-1.615 1.305-2.93 2.909-2.93 1.604 0 2.908 1.315 2.908 2.93 0 .82-.345 1.608-.946 2.162l-1.235 1.14v1.142H8.75V9.98l1.707-1.575c.306-.28.474-.665.474-1.08 0-.809-.652-1.466-1.454-1.466-.802 0-1.455.657-1.455 1.465zm.727 5.908h1.454v1.465H8.75v-1.465z" fill="red"/></svg><svg fill="none" viewBox="0 0 8 8" id="close" xmlns="http://www.w3.org/2000/svg"><path d="M8 .806L7.194 0 4 3.194.806 0 0 .806 3.194 4 0 7.194.806 8 4 4.806 7.194 8 8 7.194 4.806 4 8 .806z" fill="#D1D1D3"/></svg><svg fill="none" viewBox="0 0 16 16" id="credit-card" xmlns="http://www.w3.org/2000/svg"><path d="M14 2.667H2C1.264 2.667.667 3.264.667 4v8c0 .736.597 1.333 1.333 1.333h12c.737 0 1.334-.597 1.334-1.333V4c0-.736-.597-1.333-1.334-1.333zM.667 6.667h14.667" stroke="inherit" stroke-linecap="round" stroke-linejoin="round"/></svg><svg fill="none" viewBox="0 0 14 16" id="date" xmlns="http://www.w3.org/2000/svg"><path d="M1.977 16C.87 16 0 15.102 0 13.96V3.51C0 2.45.87 1.47 1.977 1.47H3.56V.57c0-.326.238-.571.554-.571.316 0 .554.245.554.571v.898h4.666V.571c0-.326.238-.571.554-.571.316 0 .554.245.554.571v.898h1.582C13.13 1.47 14 2.367 14 3.51v10.368c0 1.142-.87 2.04-1.977 2.04H1.977V16zm-.87-2.04c0 .489.396.897.87.897h10.046c.474 0 .87-.408.87-.898V7.102H1.107v6.857zm.87-11.348c-.474 0-.87.408-.87.898v2.368h11.786V3.51c0-.49-.396-.898-.87-.898H10.44v.898c0 .327-.238.572-.554.572-.316 0-.554-.245-.554-.572v-.898H4.746v.898c0 .327-.238.572-.554.572-.316 0-.554-.245-.554-.572v-.898h-1.66z" fill="#A4A4A4"/></svg><svg viewBox="0 0 15 15" id="download" xmlns="http://www.w3.org/2000/svg"><path d="M3.03 6.753l3.623 3.623c.247.248.577.248.824 0L11.1 6.753c.247-.247.247-.577 0-.824s-.659-.247-.823 0L7.724 8.482V.576A.563.563 0 007.147 0a.563.563 0 00-.576.576v7.906L4.018 5.93a.63.63 0 00-.412-.164.63.63 0 00-.412.164c-.411.247-.411.577-.164.824z" fill="inherit"/><path d="M13.588 8.832a.563.563 0 00-.576.577v3.376H1.235V9.41a.563.563 0 00-.576-.577c-.33 0-.659.247-.659.577v4.035c0 .33.247.577.576.577h13.012c.33 0 .577-.247.577-.577V9.41a.563.563 0 00-.577-.577z" fill="inherit"/></svg><svg viewBox="0 0 20 20" id="edit" xmlns="http://www.w3.org/2000/svg"><path d="M16.62 18.889H2.973a1.86 1.86 0 01-1.86-1.861V3.383a1.86 1.86 0 011.86-1.861h8.683a.62.62 0 110 1.24H2.974a.62.62 0 00-.62.62v13.646a.62.62 0 00.62.62h13.645a.62.62 0 00.62-.62V8.345a.62.62 0 111.241 0v8.683a1.861 1.861 0 01-1.86 1.86z" fill="inherit"/><path d="M6.076 14.547a.62.62 0 01-.44-.18.62.62 0 01-.18-.564l.682-3.313a.62.62 0 01.167-.316l8.349-8.336a2.482 2.482 0 113.51 3.51l-8.336 8.337a.652.652 0 01-.316.167l-3.312.695h-.124zm1.24-3.629l-.453 2.209 2.22-.44 8.2-8.213a1.24 1.24 0 10-1.755-1.755l-8.212 8.2z" fill="inherit"/></svg><svg fill="inherit" viewBox="0 0 16 16" id="facebook" xmlns="http://www.w3.org/2000/svg"><path d="M12 .003L9.924 0C7.594 0 6.087 1.546 6.087 3.938v1.815H4.001a.326.326 0 00-.326.327v2.63c0 .18.146.326.326.326h2.086v6.638c0 .18.146.326.326.326h2.722c.18 0 .327-.146.327-.326V9.036H11.9c.18 0 .326-.146.326-.326l.001-2.63a.327.327 0 00-.326-.327h-2.44V4.214c0-.74.176-1.115 1.14-1.115h1.397c.18 0 .326-.147.326-.327V.33A.326.326 0 0012 .003z"/></svg><svg fill="inherit" viewBox="0 0 8 5" id="handle-arrow" xmlns="http://www.w3.org/2000/svg"><path d="M.94 5L4 1.91 7.06 5 8 4.049 4 0 0 4.049.94 5z"/></svg><svg fill="inherit" viewBox="0 0 18 18" id="hint" xmlns="http://www.w3.org/2000/svg"><path fill-rule="evenodd" clip-rule="evenodd" d="M9 16.5a7.5 7.5 0 100-15 7.5 7.5 0 000 15z" stroke="inherit" stroke-width="1.5" stroke-linecap="round" stroke-linejoin="round"/><path d="M9 6v3" stroke="inherit" stroke-width="1.5" stroke-linecap="round" stroke-linejoin="round"/><circle cx="9" cy="12" r=".75"/></svg><svg fill="inherit" viewBox="0 0 16 16" id="instagram" xmlns="http://www.w3.org/2000/svg"><path d="M11 0H5a5 5 0 00-5 5v6a5 5 0 005 5h6a5 5 0 005-5V5a5 5 0 00-5-5zm3.5 11c0 1.93-1.57 3.5-3.5 3.5H5c-1.93 0-3.5-1.57-3.5-3.5V5c0-1.93 1.57-3.5 3.5-3.5h6c1.93 0 3.5 1.57 3.5 3.5v6z"/><path d="M8 4a4 4 0 100 8 4 4 0 000-8zm0 6.5A2.503 2.503 0 015.5 8c0-1.379 1.122-2.5 2.5-2.5s2.5 1.121 2.5 2.5c0 1.378-1.122 2.5-2.5 2.5zM12.3 4.233a.533.533 0 100-1.066.533.533 0 000 1.066z"/></svg><svg viewBox="0 0 88 22" id="logo" xmlns="http://www.w3.org/2000/svg"><path d="M17.161 7.23c-.06.66-.19 1.39-.39 2.19H5.791c-.04.78.17 1.39.63 1.83.46.44 1.11.66 1.95.66 1.28 0 2.1-.37 2.46-1.11h5.7c-.44 1.58-1.44 2.83-2.99 3.77-1.55.93-3.42 1.39-5.59 1.39-2.72 0-4.78-.69-6.18-2.08-1.4-1.39-1.97-3.34-1.71-5.86.26-2.48 1.25-4.44 2.96-5.87C4.731.72 6.891 0 9.521 0c2.48 0 4.43.68 5.85 2.03 1.41 1.35 2.01 3.08 1.79 5.2zM6.121 6.18h5.25c.08-.82-.08-1.46-.46-1.92-.39-.46-1-.69-1.82-.69-.8 0-1.46.24-1.99.72-.54.48-.86 1.11-.98 1.89zM30.721.12c1.96 0 3.48.73 4.58 2.18 1.09 1.45 1.5 3.35 1.24 5.71-.24 2.34-1.06 4.23-2.47 5.69-1.41 1.45-3.1 2.17-5.08 2.17-1.12 0-2.07-.25-2.85-.77-.78-.51-1.3-1.13-1.56-1.88l-.84 7.92h-5.88L20.021.53h5.88l-.24 2.22c.44-.76 1.11-1.39 2.01-1.89.89-.49 1.91-.74 3.05-.74zm-5.31 10.19c.46.59 1.1.89 1.92.89.82 0 1.52-.3 2.12-.9.59-.6.92-1.36 1-2.28.1-.92-.08-1.67-.54-2.27-.46-.59-1.1-.88-1.92-.88-.82 0-1.52.29-2.1.87-.58.58-.92 1.34-1.02 2.28-.1.93.07 1.7.54 2.29zM54.921 7.23c-.06.66-.19 1.39-.39 2.19h-10.98c-.04.78.17 1.39.63 1.83.46.44 1.11.66 1.95.66 1.28 0 2.1-.37 2.46-1.11h5.7c-.44 1.58-1.44 2.83-2.99 3.77-1.55.93-3.42 1.39-5.59 1.39-2.72 0-4.78-.69-6.18-2.08-1.4-1.39-1.97-3.34-1.71-5.86.26-2.48 1.25-4.44 2.96-5.87C42.491.72 44.651 0 47.281 0c2.48 0 4.43.68 5.85 2.03 1.41 1.35 2.01 3.08 1.79 5.2zm-11.04-1.05h5.25c.08-.82-.08-1.46-.46-1.92-.39-.46-1-.69-1.82-.69-.8 0-1.46.24-1.99.72s-.86 1.11-.98 1.89zM56.541 7.23c-.05.66-.05 1.39.01 2.19h10.98c-.1.78-.41 1.39-.95 1.83-.54.44-1.23.66-2.07.66-1.28 0-2.04-.37-2.27-1.11h-5.7c.16 1.58.94 2.83 2.33 3.77 1.39.93 3.17 1.39 5.35 1.39 2.72 0 4.9-.69 6.54-2.08 1.64-1.39 2.55-3.34 2.73-5.86.17-2.48-.47-4.44-1.93-5.87C70.101.72 68.061 0 65.441 0c-2.48 0-4.55.68-6.2 2.03-1.65 1.35-2.55 3.08-2.7 5.2zm11.22-1.05h-5.25c.06-.82.33-1.46.8-1.92.47-.46 1.12-.69 1.94-.69.8 0 1.42.24 1.87.72.44.48.66 1.11.64 1.89zM74.811 15.45L76.371.54h5.88l-.33 3.33c.38-1.14.99-2.03 1.83-2.67.84-.64 1.78-.96 2.82-.96.38 0 .75.03 1.11.09l-.57 5.55c-.5-.08-1-.12-1.5-.12-1.22 0-2.21.34-2.97 1.04-.76.69-1.23 1.9-1.41 3.65l-.54 5.01h-5.88v-.01z" fill="inherit"/></svg><svg viewBox="0 0 3 6" id="pag-arrow" xmlns="http://www.w3.org/2000/svg"><path d="M0 3.038c0 .133.06.233.12.332l2.06 2.457c.178.2.447.233.656.067.179-.2.209-.498.06-.73l-.03-.034-1.762-2.125L2.866.88c.179-.2.179-.531 0-.73a.436.436 0 00-.657 0l-.03.033-2.06 2.49c-.06.1-.119.232-.119.365z" fill="inherit"/></svg><svg fill="none" viewBox="0 0 17 16" id="transaction" xmlns="http://www.w3.org/2000/svg"><path d="M16.688 5.315H3.28l3.126-3.571L5.561 1 .801 6.442h15.887V5.315zM.914 8.696v1.127h13.409l-3.127 3.571.845.744 4.76-5.442H.914z" fill="#2D4251"/></svg><svg fill="none" stroke="inherit" viewBox="0 0 16 16" id="trash" xmlns="http://www.w3.org/2000/svg"><path d="M2 4h12M5.333 4V2.667a1.333 1.333 0 011.333-1.334h2.667a1.333 1.333 0 011.333 1.334V4m2 0v9.333a1.333 1.333 0 01-1.333 1.334H4.666a1.334 1.334 0 01-1.333-1.334V4h9.333zM6.667 7.333v4M9.333 7.333v4" stroke-linecap="round" stroke-linejoin="round"/></svg><svg fill="none" viewBox="0 0 22 22" id="x" xmlns="http://www.w3.org/2000/svg"><g filter="url(#rfilter0_d)"><path d="M16.648 3.048L12.697 7l3.951 3.952a1.2 1.2 0 11-1.697 1.696L11 8.697l-3.952 3.952a1.196 1.196 0 01-1.696 0 1.2 1.2 0 010-1.697L9.303 7 5.352 3.048a1.2 1.2 0 111.696-1.696L11 5.303l3.951-3.951a1.2 1.2 0 111.697 1.696z" fill="#EB5757"/><path d="M16.648 3.048L12.697 7l3.951 3.952a1.2 1.2 0 11-1.697 1.696L11 8.697l-3.952 3.952a1.196 1.196 0 01-1.696 0 1.2 1.2 0 010-1.697L9.303 7 5.352 3.048a1.2 1.2 0 111.696-1.696L11 5.303l3.951-3.951a1.2 1.2 0 111.697 1.696z" stroke="#fff"/></g><defs><filter id="rfilter0_d" x=".5" y=".5" width="21" height="21" filterUnits="userSpaceOnUse" color-interpolation-filters="sRGB"><feFlood flood-opacity="0" result="BackgroundImageFix"/><feColorMatrix in="SourceAlpha" values="0 0 0 0 0 0 0 0 0 0 0 0 0 0 0 0 0 0 127 0"/><feOffset dy="4"/><feGaussianBlur stdDeviation="2"/><feColorMatrix values="0 0 0 0 0 0 0 0 0 0 0 0 0 0 0 0 0 0 0.25 0"/><feBlend in2="BackgroundImageFix" result="effect1_dropShadow"/><feBlend in="SourceGraphic" in2="effect1_dropShadow" result="shape"/></filter></defs></svg></svg>