<svg width="42" height="42" viewBox="0 0 42 42" fill="none" xmlns="http://www.w3.org/2000/svg">
<g clip-path="url(#clip0)">
<path d="M38.9286 4.54619C40.4568 4.95565 41.3638 6.52645 40.9542 8.05465L32.4279 39.8754C32.0184 41.4036 30.4476 42.3106 28.9194 41.901L12.3173 37.4524C10.7891 37.0429 9.88216 35.4721 10.2917 33.9439L18.818 2.12324C19.2275 0.595051 20.7983 -0.311874 22.3265 0.0976791L38.9286 4.54619Z" fill="#F5F9EC"/>
<path d="M26.0792 8.76831H17.0369L10.2912 33.9447C9.88171 35.4728 10.7887 37.0436 12.3169 37.453L28.919 41.9014C30.4471 42.3108 32.0179 41.4042 32.4274 39.876L37.6598 20.3488L26.0792 8.76831Z" fill="#E4E8DB"/>
<path d="M38.9289 4.54713C40.4571 4.9566 41.364 6.5274 40.9544 8.05559L37.2473 21.8907L15.1113 15.9594L18.8184 2.12428C19.2279 0.596089 20.7987 -0.310836 22.3269 0.0987167L38.9289 4.54713Z" fill="#DCC69F"/>
<path d="M19.9761 36.537L22.5708 26.853L21.1873 26.4823L18.5926 36.1663L19.9761 36.537Z" fill="#C8BEB2"/>
<path d="M23.3133 24.0877L24.0547 21.3208L22.6712 20.9501L21.9299 23.717L23.3133 24.0877Z" fill="#C8BEB2"/>
<path d="M27.4667 25.1957L28.208 22.4289L26.8245 22.0582L26.0832 24.8251L27.4667 25.1957Z" fill="#C8BEB2"/>
<path d="M31.6132 26.3096L32.3545 23.5427L30.971 23.172L30.2297 25.9389L31.6132 26.3096Z" fill="#C8BEB2"/>
<path d="M24.124 37.6502L26.7188 27.9661L25.3353 27.5954L22.7406 37.2795L24.124 37.6502Z" fill="#C8BEB2"/>
<path d="M28.2798 38.7641L30.8745 29.08L29.491 28.7093L26.8963 38.3934L28.2798 38.7641Z" fill="#C8BEB2"/>
<path d="M34.0363 6.20165L32.8504 5.88385L28.6148 9.83293C27.5047 9.53554 26.2595 9.20181 26.0455 9.14452C25.255 8.93272 24.3585 9.11614 24.2526 9.51137C24.1467 9.90669 24.8313 10.5138 25.6219 10.7256C25.8357 10.7829 27.081 11.1166 28.1911 11.414L29.8847 16.9519L31.0706 17.2697L30.958 12.1555C31.737 12.3643 32.5321 12.5773 33.0533 12.7169L33.9741 14.3405L34.7646 14.5523L34.6287 12.2916L35.8768 10.4017L35.0863 10.1899L33.4771 11.1357C32.9559 10.9961 32.1609 10.783 31.3818 10.5743L34.0363 6.20165Z" fill="#F5F9EC"/>
<path d="M15.1113 15.959L37.2476 21.8903L37.6605 20.349L26.0799 8.76831H17.0381L15.1113 15.959Z" fill="#CDB994"/>
<path d="M26.0454 9.14449C25.2547 8.9326 24.3581 9.11612 24.2526 9.51135C24.1467 9.90667 24.8309 10.5139 25.6219 10.7257C25.8355 10.7831 27.0809 11.1168 28.1907 11.4141L29.8846 16.9521L31.0704 17.2698L30.9917 13.6806L26.6056 9.29462C26.3273 9.22005 26.1206 9.16464 26.0454 9.14449Z" fill="#E4E8DB"/>
<path d="M23.71 0.468381L13.7008 37.8232L12.3173 37.4525C10.7891 37.043 9.88216 35.4722 10.2917 33.944L18.8181 2.12324C19.2276 0.595051 20.7984 -0.311874 22.3266 0.0976791L23.71 0.468381Z" fill="#EA672C"/>
<path d="M26.7295 36.3586C26.7295 37.9406 25.4469 39.2232 23.8648 39.2232H2.38007C1.58898 39.2232 0.947754 38.582 0.947754 37.7909V9.14454C0.947754 8.35345 1.58898 7.71222 2.38007 7.71222H23.8648C25.4469 7.71222 26.7295 8.99477 26.7295 10.5769V36.3586Z" fill="#125D9D"/>
<path d="M13.8385 12.0092C9.09228 12.0092 5.24463 15.8568 5.24463 20.6031C5.24463 25.3493 9.09228 29.197 13.8385 29.197C18.5848 29.197 22.4324 25.3493 22.4324 20.6031C22.4324 15.8568 18.5849 12.0092 13.8385 12.0092ZM20.1986 17.3803H17.1014C16.8052 15.8961 16.3426 14.6964 15.8702 13.7709C17.7627 14.3357 19.3164 15.648 20.1986 17.3803ZM15.987 20.6031C15.987 21.2424 15.9391 21.8297 15.8733 22.3935H11.804C11.7379 21.8297 11.69 21.2423 11.69 20.6031C11.69 19.9634 11.7371 19.3762 11.8026 18.8127H15.8747C15.9398 19.3762 15.987 19.9635 15.987 20.6031ZM12.0415 17.3803C12.4392 15.5856 13.0952 14.2817 13.6301 13.4624C13.7008 13.4604 13.7672 13.4415 13.8385 13.4415C13.9106 13.4415 13.9773 13.4607 14.049 13.4628C14.5865 14.2873 15.2401 15.5917 15.6358 17.3803H12.0415ZM11.8069 13.7709C11.3362 14.6945 10.8732 15.8955 10.5767 17.3803H7.47842C8.36072 15.648 9.91434 14.336 11.8069 13.7709ZM6.93118 18.8127H10.3592C10.2994 19.3799 10.2577 19.9698 10.2577 20.6031C10.2577 21.2367 10.3004 21.8259 10.3612 22.3935H6.93109C6.78142 21.8178 6.67686 21.2249 6.67686 20.6031C6.67695 19.9813 6.7815 19.3883 6.93118 18.8127ZM7.47842 23.8258H10.5802C10.8795 25.3133 11.3428 26.5233 11.8048 27.4346C9.91335 26.8694 8.36037 25.5574 7.47842 23.8258ZM13.6301 27.7437C13.1168 26.9541 12.4482 25.6468 12.0433 23.8258H15.6339C15.2297 25.6455 14.5618 26.9523 14.0468 27.7437C13.9761 27.7458 13.9101 27.7646 13.8387 27.7646C13.7674 27.7646 13.7011 27.7458 13.6301 27.7437ZM15.873 27.4346C16.3357 26.5224 16.7987 25.3134 17.0973 23.8258H20.1987C19.3168 25.5574 17.7642 26.8691 15.873 27.4346ZM20.746 22.3935H17.3162C17.3767 21.8259 17.4193 21.2367 17.4193 20.6031C17.4193 19.9698 17.3781 19.3799 17.3183 18.8127H20.7459C20.8956 19.3883 21.0001 19.9813 21.0001 20.6031C21.0001 21.2249 20.8956 21.8179 20.746 22.3935Z" fill="#E7BE29"/>
<path d="M6.18457 34.9277V32.8772H6.95811C7.09427 32.8772 7.1982 32.8837 7.27 32.8968C7.37071 32.9136 7.45504 32.9456 7.52316 32.9926C7.59119 33.0397 7.64598 33.1057 7.68752 33.1905C7.72897 33.2754 7.74973 33.3687 7.74973 33.4703C7.74973 33.6447 7.69423 33.7923 7.58332 33.9129C7.47231 34.0338 7.27188 34.094 6.98183 34.094H6.4559V34.9277H6.18457ZM6.4559 33.8521H6.98604C7.16132 33.8521 7.28584 33.8195 7.35952 33.7541C7.43319 33.6889 7.46998 33.597 7.46998 33.4786C7.46998 33.3928 7.44832 33.3194 7.4049 33.2583C7.36158 33.1972 7.30437 33.1569 7.23356 33.1373C7.18782 33.1252 7.10349 33.1191 6.9804 33.1191H6.4559V33.8521Z" fill="white"/>
<path d="M7.65723 34.9277L8.44473 32.8772H8.7371L9.57635 34.9277H9.26724L9.02804 34.3067H8.17062L7.94539 34.9277H7.65723ZM8.24886 34.0856H8.94407L8.73003 33.5177C8.66477 33.3452 8.61625 33.2035 8.58456 33.0925C8.55842 33.224 8.52163 33.3546 8.47409 33.4841L8.24886 34.0856Z" fill="white"/>
<path d="M9.70068 34.2689L9.95662 34.2465C9.9687 34.3491 9.9969 34.4333 10.0412 34.499C10.0855 34.5647 10.1543 34.6178 10.2476 34.6584C10.3408 34.699 10.4457 34.7193 10.5623 34.7193C10.6658 34.7193 10.7572 34.7039 10.8365 34.6731C10.9157 34.6423 10.9747 34.6002 11.0135 34.5465C11.0522 34.4929 11.0715 34.4344 11.0715 34.371C11.0715 34.3066 11.0529 34.2505 11.0155 34.2024C10.9782 34.1544 10.9167 34.1141 10.8309 34.0814C10.7758 34.06 10.6542 34.0267 10.4658 33.9814C10.2775 33.9362 10.1455 33.8935 10.07 33.8533C9.97202 33.8021 9.89906 33.7385 9.85108 33.6624C9.803 33.5864 9.77901 33.5014 9.77901 33.4071C9.77901 33.3036 9.80838 33.2069 9.8671 33.1169C9.92582 33.0269 10.0116 32.9586 10.1245 32.912C10.2373 32.8653 10.3627 32.842 10.5007 32.842C10.6527 32.842 10.7867 32.8665 10.9028 32.9154C11.0189 32.9644 11.1082 33.0365 11.1707 33.1315C11.2332 33.2267 11.2667 33.3344 11.2714 33.4546L11.0112 33.4742C10.9973 33.3447 10.9499 33.2468 10.8693 33.1805C10.7886 33.1144 10.6695 33.0812 10.5119 33.0812C10.3478 33.0812 10.2282 33.1113 10.1531 33.1715C10.078 33.2316 10.0405 33.3041 10.0405 33.389C10.0405 33.4627 10.0671 33.5233 10.1203 33.5708C10.1725 33.6184 10.3088 33.6671 10.5294 33.717C10.7499 33.767 10.9011 33.8106 10.9832 33.8478C11.1026 33.9029 11.1906 33.9726 11.2476 34.0569C11.3044 34.1413 11.3329 34.2386 11.3329 34.3486C11.3329 34.4577 11.3016 34.5605 11.2392 34.657C11.1767 34.7535 11.0869 34.8286 10.9699 34.8822C10.8528 34.9358 10.7211 34.9626 10.5748 34.9626C10.3892 34.9626 10.2337 34.9355 10.1083 34.8815C9.98285 34.8274 9.88447 34.746 9.81312 34.6374C9.74195 34.5289 9.70444 34.406 9.70068 34.2689Z" fill="white"/>
<path d="M11.6118 34.2689L11.8678 34.2465C11.8798 34.3491 11.908 34.4333 11.9523 34.499C11.9967 34.5647 12.0654 34.6178 12.1587 34.6584C12.252 34.699 12.3568 34.7193 12.4734 34.7193C12.5769 34.7193 12.6683 34.7039 12.7476 34.6731C12.8269 34.6423 12.8859 34.6002 12.9246 34.5465C12.9633 34.4929 12.9826 34.4344 12.9826 34.371C12.9826 34.3066 12.964 34.2505 12.9267 34.2024C12.8894 34.1544 12.8279 34.1141 12.742 34.0814C12.6869 34.06 12.5653 34.0267 12.3769 33.9814C12.1886 33.9362 12.0566 33.8935 11.9811 33.8533C11.8832 33.8021 11.8102 33.7385 11.7622 33.6624C11.7141 33.5864 11.6901 33.5014 11.6901 33.4071C11.6901 33.3036 11.7195 33.2069 11.7782 33.1169C11.837 33.0269 11.9227 32.9586 12.0356 32.912C12.1484 32.8653 12.2738 32.842 12.4119 32.842C12.5639 32.842 12.6979 32.8665 12.814 32.9154C12.9301 32.9644 13.0193 33.0365 13.0818 33.1315C13.1443 33.2267 13.1779 33.3344 13.1825 33.4546L12.9224 33.4742C12.9084 33.3447 12.8611 33.2468 12.7804 33.1805C12.6998 33.1144 12.5806 33.0812 12.423 33.0812C12.259 33.0812 12.1394 33.1113 12.0642 33.1715C11.9891 33.2316 11.9516 33.3041 11.9516 33.389C11.9516 33.4627 11.9782 33.5233 12.0314 33.5708C12.0836 33.6184 12.2199 33.6671 12.4405 33.717C12.661 33.767 12.8123 33.8106 12.8944 33.8478C13.0137 33.9029 13.1018 33.9726 13.1587 34.0569C13.2156 34.1413 13.244 34.2386 13.244 34.3486C13.244 34.4577 13.2128 34.5605 13.1503 34.657C13.0878 34.7535 12.998 34.8286 12.881 34.8822C12.7639 34.9358 12.6323 34.9626 12.4859 34.9626C12.3003 34.9626 12.1448 34.9355 12.0194 34.8815C11.894 34.8274 11.7956 34.746 11.7243 34.6374C11.6531 34.5289 11.6155 34.406 11.6118 34.2689Z" fill="white"/>
<path d="M13.6147 34.9277V32.8772H14.3883C14.5244 32.8772 14.6284 32.8837 14.7002 32.8968C14.8009 32.9136 14.8852 32.9456 14.9533 32.9926C15.0214 33.0397 15.0762 33.1057 15.1177 33.1905C15.1591 33.2754 15.1799 33.3687 15.1799 33.4703C15.1799 33.6447 15.1244 33.7923 15.0135 33.9129C14.9025 34.0338 14.7021 34.094 14.412 34.094H13.8861V34.9277H13.6147ZM13.8861 33.8521H14.4162C14.5915 33.8521 14.716 33.8195 14.7897 33.7541C14.8634 33.6889 14.9002 33.597 14.9002 33.4786C14.9002 33.3928 14.8785 33.3194 14.8351 33.2583C14.7918 33.1972 14.7345 33.1569 14.6637 33.1373C14.618 33.1252 14.5337 33.1191 14.4106 33.1191H13.8861V33.8521Z" fill="white"/>
<path d="M15.4429 33.929C15.4429 33.5886 15.5343 33.3222 15.7171 33.1296C15.8999 32.9371 16.1358 32.8407 16.4248 32.8407C16.6141 32.8407 16.7848 32.886 16.9368 32.9764C17.0888 33.0669 17.2046 33.193 17.2844 33.3548C17.3641 33.5167 17.404 33.7001 17.404 33.9052C17.404 34.1131 17.362 34.2992 17.2781 34.4632C17.1941 34.6274 17.0753 34.7517 16.9215 34.836C16.7676 34.9204 16.6016 34.9626 16.4235 34.9626C16.2305 34.9626 16.058 34.9159 15.906 34.8227C15.754 34.7295 15.6388 34.6022 15.5605 34.4408C15.482 34.2796 15.4429 34.109 15.4429 33.929ZM15.7226 33.9332C15.7226 34.1804 15.789 34.3751 15.922 34.5171C16.0548 34.6594 16.2215 34.7305 16.422 34.7305C16.6262 34.7305 16.7944 34.6587 16.9263 34.5151C17.0583 34.3715 17.1242 34.1677 17.1242 33.9038C17.1242 33.737 17.096 33.5912 17.0396 33.4667C16.9832 33.3422 16.9007 33.2457 16.792 33.1772C16.6833 33.1086 16.5614 33.0744 16.4262 33.0744C16.2341 33.0744 16.0689 33.1404 15.9304 33.2724C15.7918 33.4043 15.7226 33.6246 15.7226 33.9332Z" fill="white"/>
<path d="M17.7573 34.9277V32.8772H18.6665C18.8493 32.8772 18.9882 32.8956 19.0833 32.9324C19.1785 32.9693 19.2544 33.0344 19.3113 33.1276C19.3681 33.2209 19.3966 33.3239 19.3966 33.4367C19.3966 33.5822 19.3495 33.7048 19.2553 33.8045C19.1612 33.9043 19.0157 33.9677 18.8189 33.9948C18.8907 34.0293 18.9453 34.0633 18.9826 34.0969C19.0618 34.1697 19.1369 34.2605 19.2078 34.3697L19.5645 34.9277H19.2231L18.9518 34.5011C18.8725 34.378 18.8072 34.2838 18.7559 34.2186C18.7046 34.1533 18.6587 34.1076 18.6181 34.0815C18.5776 34.0555 18.5363 34.0373 18.4943 34.027C18.4635 34.0205 18.4132 34.0172 18.3432 34.0172H18.0285V34.9278H17.7573V34.9277ZM18.0287 33.7822H18.612C18.736 33.7822 18.833 33.7694 18.9029 33.7437C18.9728 33.7181 19.026 33.6771 19.0623 33.6206C19.0987 33.5642 19.1169 33.5029 19.1169 33.4366C19.1169 33.3397 19.0816 33.2599 19.0112 33.1974C18.9408 33.135 18.8296 33.1037 18.6776 33.1037H18.0286V33.7822H18.0287Z" fill="white"/>
<path d="M20.2923 34.9277V33.1192H19.6167V32.8772H21.242V33.1192H20.5636V34.9277H20.2923Z" fill="white"/>
</g>
<defs>
<clipPath id="clip0">
<rect width="42" height="42" fill="white"/>
</clipPath>
</defs>
</svg>
