<svg width="70" height="70" viewBox="0 0 70 70" fill="none" xmlns="http://www.w3.org/2000/svg">
<path d="M51.4413 49.1839H19.9775C19.0471 49.1839 18.292 48.4289 18.292 47.4987C18.292 46.5675 19.0471 45.8125 19.9775 45.8125H51.4413C52.3716 45.8125 53.1268 46.5675 53.1268 47.4987C53.1269 48.429 52.3718 49.1839 51.4413 49.1839Z" fill="#2E2E2E"/>
<path d="M50.5652 25.8266C50.5652 28.0532 48.7605 29.8575 46.5345 29.8575C44.3084 29.8575 42.5049 28.0532 42.5049 25.8266C42.5049 23.6011 44.3084 21.7969 46.5345 21.7969C48.7605 21.7969 50.5652 23.6011 50.5652 25.8266Z" fill="#2E2E2E"/>
<path d="M27.3912 25.8266C27.3912 28.0532 25.5865 29.8575 23.3616 29.8575C21.1356 29.8575 19.332 28.0532 19.332 25.8266C19.332 23.6011 21.1356 21.7969 23.3616 21.7969C25.5877 21.7969 27.3912 23.6011 27.3912 25.8266Z" fill="#2E2E2E"/>
<path d="M35 70C15.7003 70 0 54.299 0 35.0006C0.0010012 15.701 15.7015 0 35 0C54.2985 0 70 15.701 70 35.0005C70 54.2988 54.2985 70 35 70ZM35 3.37148C17.5601 3.37148 3.37104 17.5604 3.37104 35.0006C3.37104 52.4408 17.5601 66.6296 35 66.6296C52.4411 66.6296 66.629 52.4407 66.629 35.0005C66.629 17.5603 52.4411 3.37148 35 3.37148Z" fill="#2E2E2E"/>
</svg>
