<svg width="70" height="70" viewBox="0 0 70 70" fill="none" xmlns="http://www.w3.org/2000/svg">
<path d="M50.5712 25.82C50.5712 28.0475 48.7668 29.8531 46.5393 29.8531C44.3129 29.8531 42.5073 28.0475 42.5073 25.82C42.5073 23.5926 44.3129 21.7881 46.5393 21.7881C48.7668 21.7881 50.5712 23.5926 50.5712 25.82Z" fill="#2E2E2E"/>
<path d="M27.3884 25.82C27.3884 28.0475 25.5828 29.8531 23.3564 29.8531C21.13 29.8531 19.3245 28.0475 19.3245 25.82C19.3245 23.5926 21.13 21.7881 23.3564 21.7881C25.5828 21.7881 27.3884 23.5926 27.3884 25.82Z" fill="#2E2E2E"/>
<path d="M21.2853 55.9612C20.3682 55.9612 19.6238 55.2179 19.6238 54.2997C19.6238 47.1275 25.3926 41.2922 32.484 41.2922H38.0844C45.1759 41.2922 50.9447 47.0953 50.9447 54.2277C50.9447 55.1459 50.2014 55.8903 49.2832 55.8903C48.366 55.8903 47.6228 55.1459 47.6228 54.2277C47.6228 48.9285 43.3439 44.6163 38.0846 44.6163H32.4841C27.2248 44.6163 22.947 48.9595 22.947 54.2996C22.9468 55.2179 22.2024 55.9612 21.2853 55.9612Z" fill="#2E2E2E"/>
<path d="M35.0004 70C15.7057 70 0.00878906 54.2986 0.00878906 34.9994C0.00878906 15.7014 15.7057 0 35.0004 0C54.2941 0 69.991 15.7014 69.991 34.9994C69.991 54.2985 54.2941 70 35.0004 70ZM35.0004 3.32421C17.5378 3.32421 3.33189 17.5336 3.33189 34.9994C3.33189 52.4665 17.5379 66.6758 35.0004 66.6758C52.462 66.6758 66.6679 52.4664 66.6679 34.9994C66.6679 17.5335 52.462 3.32421 35.0004 3.32421Z" fill="#2E2E2E"/>
</svg>
