<svg width="70" height="70" viewBox="0 0 70 70" fill="none" xmlns="http://www.w3.org/2000/svg">
<path d="M50.5708 25.82C50.5708 28.0475 48.7663 29.8531 46.5388 29.8531C44.3124 29.8531 42.5068 28.0475 42.5068 25.82C42.5068 23.5926 44.3124 21.7881 46.5388 21.7881C48.7663 21.7881 50.5708 23.5926 50.5708 25.82Z" fill="#2E2E2E"/>
<path d="M27.3881 25.82C27.3881 28.0475 25.5826 29.8531 23.3562 29.8531C21.1298 29.8531 19.3242 28.0475 19.3242 25.82C19.3242 23.5926 21.1298 21.7881 23.3562 21.7881C25.5826 21.7881 27.3881 23.5926 27.3881 25.82Z" fill="#2E2E2E"/>
<path d="M38.0826 55.6954H32.4833C25.3919 55.6954 19.6221 49.9953 19.6221 42.987C19.6221 42.0688 20.3665 41.3255 21.2836 41.3255C22.2007 41.3255 22.945 42.0688 22.945 42.987C22.945 48.2496 27.1343 52.3724 32.4833 52.3724H38.0826C43.4316 52.3724 47.6209 48.3182 47.6209 43.1421C47.6209 42.2238 48.3653 41.4806 49.2824 41.4806C50.2006 41.4806 50.9439 42.2238 50.9439 43.1421C50.944 50.1813 45.2947 55.6954 38.0826 55.6954Z" fill="#2E2E2E"/>
<path d="M35.0005 70C15.7057 70 0.00878906 54.2986 0.00878906 34.9994C0.00878906 15.7014 15.7057 0 35.0005 0C54.2941 0 69.991 15.7014 69.991 34.9994C69.991 54.2985 54.2941 70 35.0005 70ZM35.0005 3.32421C17.5378 3.32421 3.33189 17.5336 3.33189 34.9994C3.33189 52.4665 17.5379 66.6758 35.0005 66.6758C52.462 66.6758 66.6679 52.4664 66.6679 34.9994C66.6679 17.5335 52.462 3.32421 35.0005 3.32421Z" fill="#2E2E2E"/>
</svg>
