<svg width="66" height="66" viewBox="0 0 66 66" fill="none" xmlns="http://www.w3.org/2000/svg">
<g clip-path="url(#clip0)">
<path d="M51.3983 19.1226L53.3624 16.4343C53.7471 16.6873 54.1831 16.8112 54.6162 16.8112C55.3228 16.8112 56.0206 16.486 56.4686 15.8729L57.1113 14.9932C58.0734 13.7317 57.7695 11.7787 56.4693 10.8695L52.6121 8.0511C51.3507 7.08868 49.3975 7.39277 48.4882 8.69292L47.8456 9.57258C47.4847 10.0665 47.3377 10.6715 47.4318 11.2759C47.5201 11.843 47.8126 12.3441 48.2559 12.702L46.2958 15.3846C43.5424 13.8246 40.4905 12.7331 37.2485 12.2197V8.06128H38.2135C39.4764 8.06128 40.5038 7.0339 40.5038 5.771V3.56761C40.5037 1.60037 38.9032 0 36.936 0H29.0645C27.0974 0 25.4969 1.60037 25.4969 3.56761V5.77113C25.4969 7.03403 26.5243 8.06141 27.7872 8.06141H28.7522V12.2206C25.5433 12.7298 22.482 13.8086 19.7004 15.3785L17.7446 12.7022C18.188 12.3442 18.4804 11.8431 18.5687 11.2761C18.6628 10.6716 18.5159 10.0667 18.155 9.57271L17.5123 8.69305C16.603 7.3929 14.65 7.08868 13.3885 8.05123L9.53135 10.8694C8.23107 11.7787 7.92724 13.7316 8.8894 14.9932L9.53212 15.873C9.98007 16.4861 10.6776 16.8113 11.3844 16.8113C11.8176 16.8113 12.2536 16.6874 12.6382 16.4344L14.5927 19.1096C12.4739 21.0755 10.6521 23.3967 9.22481 26.0166C8.9688 26.4864 9.14218 27.0747 9.61204 27.3307C10.0819 27.5868 10.6701 27.4133 10.9261 26.9435C15.335 18.8502 23.7934 13.8226 33.0003 13.8226C46.8515 13.8226 58.1202 25.0913 58.1202 38.9426C58.1202 44.975 55.9504 50.8069 52.0102 55.3638C51.6604 55.7685 51.7047 56.3802 52.1095 56.7301C52.5123 57.0789 53.1247 57.0369 53.4757 56.6308C57.7201 51.7218 60.0577 45.44 60.0577 38.9425C60.0577 31.122 56.7211 24.0671 51.3983 19.1226ZM49.4099 10.7156L50.0526 9.83593C50.3655 9.38966 51.0339 9.28447 51.4691 9.61551L55.3264 12.4338C55.7777 12.7635 55.8768 13.3989 55.5469 13.8503L54.9043 14.73C54.7894 14.8871 54.5684 14.9214 54.4111 14.8068L49.4866 11.2088C49.384 11.1338 49.3545 11.0322 49.3461 10.9782C49.3376 10.9242 49.3348 10.8183 49.4099 10.7156ZM49.817 13.8494L51.7956 15.295L49.928 17.8512C49.2918 17.3397 48.6325 16.8562 47.9512 16.4027L49.817 13.8494ZM27.4344 5.771V3.56761C27.4344 2.66875 28.1656 1.93746 29.0645 1.93746H36.936C37.8349 1.93746 38.5662 2.66875 38.5662 3.56761V5.77113C38.5662 5.96578 38.4079 6.12408 38.2132 6.12408H27.7873C27.5927 6.12395 27.4344 5.96565 27.4344 5.771ZM11.0964 14.73L10.4537 13.8503C10.1239 13.399 10.2228 12.7635 10.6742 12.4338L14.5316 9.61551C14.9669 9.28447 15.6353 9.38979 15.948 9.83593L16.5908 10.7157C16.7052 10.9337 16.6894 11.0361 16.5139 11.2088L11.5895 14.8067C11.4325 14.9214 11.2113 14.887 11.0964 14.73ZM14.2051 15.295L16.1837 13.8494L18.0426 16.3934C17.3623 16.8447 16.7024 17.3276 16.0643 17.8396L14.2051 15.295ZM30.6896 11.9838V8.06128H35.3109V11.9849C34.549 11.9202 33.7787 11.8853 33.0003 11.8853C32.2245 11.8853 31.4538 11.9184 30.6896 11.9838Z" fill="#FF0000"/>
<path d="M49.3673 57.9991C44.8191 61.9093 39.0063 64.0626 32.9999 64.0626C19.1487 64.0626 7.87997 52.7939 7.87997 38.9427C7.87997 35.9911 8.3867 33.1013 9.38624 30.3539C9.56916 29.8512 9.3098 29.2953 8.80707 29.1124C8.30446 28.9294 7.74849 29.1887 7.56557 29.6916C6.48856 32.6519 5.94238 35.7645 5.94238 38.9427C5.94264 53.8623 18.0805 66.0001 32.9999 66.0001C39.4695 66.0001 45.7307 63.6804 50.6302 59.4683C51.0359 59.1195 51.082 58.5079 50.7332 58.1023C50.3845 57.6966 49.7728 57.6506 49.3673 57.9991Z" fill="#FF0000"/>
<path d="M46.7346 23.0758C47.0659 22.6558 46.9941 22.0467 46.5741 21.7153C42.6733 18.6375 37.9791 17.0107 32.9995 17.0107C20.906 17.0107 11.0674 26.8494 11.0674 38.9427C11.0674 51.0362 20.906 60.8748 32.9995 60.8748C45.093 60.8748 54.9316 51.0362 54.9316 38.9427C54.9316 33.63 53.0074 28.5042 49.5137 24.5099C49.1615 24.107 48.5496 24.0662 48.1469 24.4185C47.7442 24.7706 47.7033 25.3826 48.0555 25.7854C51.0274 29.1831 52.7527 33.4793 52.9702 37.9741H49.9978C49.4629 37.9741 49.0291 38.4079 49.0291 38.9429C49.0291 39.4778 49.4628 39.9116 49.9978 39.9116H52.9703C52.4785 50.1675 44.224 58.422 33.9681 58.9137V55.9412C33.9681 55.4062 33.5343 54.9725 32.9994 54.9725C32.4644 54.9725 32.0306 55.4061 32.0306 55.9412V58.9137C21.7747 58.422 13.5202 50.1674 13.0284 39.9116H16.0009C16.5358 39.9116 16.9696 39.4778 16.9696 38.9429C16.9696 38.4079 16.536 37.9741 16.0009 37.9741H13.0284C13.5201 27.7182 21.7747 19.4636 32.0306 18.9719V21.9444C32.0306 22.4793 32.4643 22.9131 32.9994 22.9131C33.5343 22.9131 33.9681 22.4795 33.9681 21.9444V18.9715C38.1469 19.1675 42.0724 20.6313 45.374 23.2363C45.7941 23.5676 46.4032 23.4958 46.7346 23.0758Z" fill="#FF0000"/>
<path d="M32.9996 35.2263C30.9503 35.2263 29.2832 36.8935 29.2832 38.9427C29.2832 40.9919 30.9503 42.659 32.9996 42.659C33.6732 42.659 34.305 42.4779 34.8504 42.1634L41.4969 48.8099C41.8753 49.1883 42.4886 49.1883 42.8668 48.8099C43.2452 48.4317 43.2452 47.8183 42.8668 47.44L36.2203 40.7935C36.535 40.2481 36.7159 39.6163 36.7159 38.9428C36.7161 36.8933 35.0488 35.2263 32.9996 35.2263ZM31.2205 38.9427C31.2205 37.9617 32.0186 37.1636 32.9996 37.1636C33.9805 37.1636 34.7786 37.9617 34.7786 38.9427C34.7786 39.9237 33.9805 40.7216 32.9996 40.7216C32.0186 40.7216 31.2205 39.9235 31.2205 38.9427Z" fill="#FF0000"/>
</g>
<defs>
<clipPath id="clip0">
<rect width="66" height="66" fill="white"/>
</clipPath>
</defs>
</svg>
