<svg width="69" height="69" viewBox="0 0 69 69" fill="none" xmlns="http://www.w3.org/2000/svg">
<path d="M45.1411 18.5713H12.0981C11.5374 18.5713 11.083 19.0257 11.083 19.5863C11.083 20.147 11.5374 20.6014 12.0981 20.6014H45.1412C45.7019 20.6014 46.1563 20.147 46.1563 19.5863C46.1563 19.0257 45.7017 18.5713 45.1411 18.5713Z" fill="#FF0000"/>
<path d="M12.0981 13.5603H28.6195C29.1801 13.5603 29.6346 13.1058 29.6346 12.5452C29.6346 11.9846 29.1801 11.5302 28.6195 11.5302H12.0981C11.5374 11.5302 11.083 11.9846 11.083 12.5452C11.083 13.106 11.5374 13.5603 12.0981 13.5603Z" fill="#FF0000"/>
<path d="M45.1411 24.8098H12.0981C11.5374 24.8098 11.083 25.2642 11.083 25.8249C11.083 26.3855 11.5374 26.8399 12.0981 26.8399H45.1412C45.7019 26.8399 46.1563 26.3855 46.1563 25.8249C46.1562 25.2642 45.7017 24.8098 45.1411 24.8098Z" fill="#FF0000"/>
<path d="M19.6246 61.9474H9.0499C7.31425 61.9474 5.90204 60.5354 5.90204 58.7997V5.17783C5.90204 3.44218 7.31425 2.02997 9.0499 2.02997H39.5145C39.6129 2.02997 39.7098 2.039 39.8056 2.05194V8.38242C39.8056 11.2376 42.1284 13.5603 44.9834 13.5603H51.3137C51.3268 13.6562 51.3357 13.7531 51.3357 13.8515V31.1367C51.3357 31.6973 51.7901 32.1517 52.3508 32.1517C52.9114 32.1517 53.3658 31.6973 53.3658 31.1367V13.8516C53.3658 12.7382 52.9321 11.6913 52.1448 10.9039L42.4619 1.22098C41.6746 0.433676 40.6279 0 39.5145 0H9.0499C6.19476 0 3.87207 2.32282 3.87207 5.17783V58.7997C3.87207 61.6547 6.19489 63.9774 9.0499 63.9774H19.6246C20.1852 63.9774 20.6396 63.523 20.6396 62.9624C20.6396 62.4017 20.1852 61.9474 19.6246 61.9474ZM49.9003 11.5303H44.9835C43.2479 11.5303 41.8357 10.1181 41.8357 8.38242V3.46563L49.9003 11.5303Z" fill="#FF0000"/>
<path d="M64.8168 49.692L56.2163 35.1751C55.5895 34.1166 54.2254 33.7668 53.1664 34.3941L51.0745 35.6335C49.4507 36.5955 48.7643 38.5422 49.3218 40.2673C48.617 40.5227 47.8443 40.5187 47.1327 40.2436C45.481 39.7239 44.2253 38.6786 42.1514 39.2031C38.6299 40.0997 38.7369 40.0548 38.4184 40.164C36.3564 38.99 35.117 38.6407 32.9281 39.4874L30.977 40.2417C30.0737 40.5908 29.0783 40.508 28.2435 40.0134L27.7111 39.6996C27.9709 38.1427 27.2805 36.4998 25.8186 35.6338C25.8186 35.6338 25.8186 35.6338 25.8184 35.6337L23.7266 34.3944C22.6706 33.7689 21.3024 34.119 20.6769 35.1751L12.0761 49.6922C11.4493 50.7503 11.7981 52.1148 12.8568 52.7419L14.9487 53.9812C15.5816 54.3563 16.2773 54.5345 16.9646 54.5345C17.731 54.5345 18.4867 54.3125 19.1327 53.8941L19.5687 54.1514L18.6482 55.4334C17.5514 56.9614 17.8999 59.0861 19.4281 60.1831C20.1348 60.6904 21.0227 60.922 21.9408 60.7778C22.0865 61.6294 22.5531 62.4264 23.3086 62.969C24.0181 63.4784 24.9019 63.7103 25.8217 63.5655C25.9678 64.4164 26.4341 65.2127 27.1891 65.7549C28.2039 66.4833 29.4656 66.5675 30.5169 66.1185C30.747 66.716 31.1468 67.2556 31.7046 67.6561C33.1611 68.7015 35.1675 68.4289 36.2993 67.0745L38.7453 68.5235C40.3629 69.4821 42.45 68.9493 43.4091 67.3299C43.6544 66.9159 43.8066 66.4647 43.8622 66.0009L43.8677 66.0043C45.4829 66.9609 47.5747 66.4253 48.5316 64.8106C48.8087 64.3428 48.9605 63.8354 48.9975 63.3269C50.4211 63.6849 51.9727 63.0869 52.7584 61.7608C53.0162 61.3258 53.1656 60.8559 53.2148 60.383C54.7406 60.9817 56.524 60.403 57.3857 58.9487C57.8491 58.1663 57.9803 57.2505 57.7548 56.3695C57.6258 55.8655 57.3886 55.408 57.063 55.0216L58.4112 54.2339C59.5518 54.7021 60.8533 54.6271 61.9441 53.9811L64.0357 52.7418C65.0944 52.1151 65.4441 50.7509 64.8168 49.692ZM15.9834 52.2348L13.8915 50.9953C13.7986 50.9402 13.7677 50.8197 13.8227 50.7267L22.4234 36.2094C22.4788 36.116 22.5997 36.0857 22.6921 36.1407L24.7838 37.3798C25.7133 37.9306 26.0041 39.1228 25.4635 40.0353L18.6388 51.555C18.0941 52.4747 16.903 52.7794 15.9834 52.2348ZM20.6119 58.534C19.9955 58.0914 19.8545 57.234 20.2974 56.6173L21.6503 54.7328C22.0813 54.1324 22.9401 53.9681 23.5669 54.4181C24.1821 54.8597 24.3232 55.7194 23.8817 56.3346L22.5287 58.2192C22.0871 58.8346 21.2268 58.9753 20.6119 58.534ZM24.4925 61.32C23.8773 60.8782 23.7362 60.0183 24.1778 59.4032L25.5307 57.5188C25.5307 57.5188 25.5307 57.5188 25.5307 57.5187C25.5307 57.5187 25.5307 57.5185 25.5309 57.5185L27.0239 55.4388C27.2379 55.1409 27.555 54.9438 27.917 54.8845C27.9922 54.8721 28.0675 54.8661 28.1423 54.8661C28.4272 54.8661 28.7044 54.9547 28.9406 55.1241C29.2384 55.3382 29.4354 55.6551 29.4947 56.0171C29.5541 56.3792 29.4691 56.7427 29.2551 57.0406L26.409 61.0052C25.9667 61.6217 25.1092 61.7628 24.4925 61.32ZM28.3731 64.1057C27.7581 63.6642 27.6169 62.805 28.0577 62.1899C28.0578 62.1896 28.0581 62.1894 28.0582 62.1891L30.9044 58.2247C31.3457 57.6096 32.2061 57.4684 32.821 57.9099C33.4362 58.3515 33.5773 59.2113 33.1357 59.8265L31.8712 61.588C31.8712 61.588 31.8712 61.588 31.871 61.5882L30.2896 63.7911C29.8479 64.4063 28.9884 64.5476 28.3731 64.1057ZM32.8885 66.007C32.2737 65.5655 32.1323 64.7067 32.5729 64.0914L33.5202 62.7721C33.9617 62.1568 34.8219 62.0161 35.4368 62.4574C36.0519 62.8989 36.1931 63.7588 35.7515 64.3741L34.805 65.6922C34.3635 66.3075 33.5035 66.4488 32.8885 66.007ZM55.6395 57.9141C55.2533 58.5659 54.4091 58.7821 53.7571 58.396C52.6531 57.742 45.5316 53.5229 44.7723 53.073C44.2898 52.7873 43.6673 52.9465 43.3816 53.4288C43.0959 53.9111 43.2551 54.5337 43.7374 54.8194L50.53 58.8437L50.5301 58.8438C51.1823 59.23 51.3998 60.0717 51.0121 60.7264C50.6257 61.3785 49.7811 61.5942 49.1294 61.2084C46.6171 59.7201 44.5771 58.5115 42.3332 57.182C41.8506 56.8963 41.2282 57.0555 40.9425 57.5378C40.6568 58.0201 40.816 58.6427 41.2983 58.9284L46.3032 61.8936L46.3043 61.8942C46.9568 62.2817 47.1722 63.1229 46.7853 63.7762C46.3989 64.4284 45.5546 64.6444 44.9025 64.2582L42.2165 62.667C42.2162 62.6668 42.2158 62.6667 42.2155 62.6664C42.2152 62.6663 42.215 62.6662 42.2147 62.666L40.2545 61.5046C39.7721 61.2188 39.1496 61.3779 38.8639 61.8604C38.5782 62.3427 38.7373 62.9653 39.2197 63.2511L41.1802 64.4126C41.1805 64.4127 41.1808 64.413 41.1811 64.4131C41.8332 64.7994 42.0507 65.6408 41.663 66.2955C41.2766 66.9477 40.4323 67.1637 39.7802 66.7775L37.4931 65.4227C38.4735 63.9098 38.1006 61.871 36.6207 60.8088C36.1861 60.497 35.7022 60.3028 35.2072 60.2194C35.7322 58.8155 35.2795 57.1765 34.0048 56.2614C33.2501 55.7194 32.3465 55.5322 31.4937 55.6659C31.3419 54.7785 30.8567 54.0011 30.1245 53.4757C28.7474 52.4875 26.8761 52.6773 25.7202 53.8467C25.4853 53.4342 25.1611 53.0641 24.7508 52.7697C23.6065 51.9484 22.1209 51.9407 20.988 52.6325L20.523 52.3579L26.9068 41.5822L27.2107 41.7615C28.553 42.5566 30.1909 42.7223 31.7089 42.1353L33.6601 41.381C34.7766 40.9495 35.3923 40.9213 36.4967 41.4425C35.7741 42.2543 35.3452 43.3202 35.3452 44.4689V48.9694C35.3452 50.1648 36.317 51.1379 37.5114 51.1387H37.5143C38.7124 51.1387 39.8391 50.6723 40.6866 49.8253C41.1806 49.3315 41.5453 48.7429 41.7639 48.1003C43.0745 48.8764 53.9025 55.2884 55.1579 56.0322C55.4736 56.2193 55.6976 56.518 55.7886 56.8735C55.8795 57.2286 55.8266 57.5983 55.6395 57.9141ZM63.0015 50.9953L60.9095 52.2348C59.9899 52.7792 58.7988 52.4742 58.2544 51.5551L55.0556 46.1558C54.7697 45.6734 54.1469 45.5143 53.6649 45.7997C53.1826 46.0854 53.0233 46.708 53.3089 47.1904L56.5077 52.5899C56.5679 52.6915 56.6333 52.7881 56.7009 52.8823L55.8116 53.4018C55.6318 53.5083 55.4589 53.6256 55.2936 53.7529L41.5039 45.5868C40.8284 45.1869 39.9718 45.6744 39.9718 46.4601C39.9612 46.5207 40.0766 47.5641 39.2515 48.389C38.7873 48.8527 38.1704 49.1082 37.5142 49.1082C37.5137 49.1082 37.5131 49.1082 37.5126 49.1082C37.4367 49.1082 37.375 49.0457 37.375 48.9689V44.4684C37.375 43.2927 38.1839 42.3008 39.2778 42.0239L42.6491 41.1707C43.8723 40.8615 44.5638 41.5147 46.3954 42.1346C47.6669 42.6265 49.0495 42.5962 50.2767 42.0721L50.8893 43.1063C51.1751 43.5889 51.7978 43.7479 52.2799 43.4623C52.7623 43.1766 52.9216 42.554 52.636 42.0717L51.4293 40.035C50.8834 39.1135 51.1875 37.9259 52.1089 37.3797L54.2008 36.1405C54.2921 36.0862 54.413 36.114 54.4696 36.2094L63.0701 50.7265C63.1256 50.8201 63.095 50.9399 63.0015 50.9953Z" fill="#FF0000"/>
</svg>
