<svg width="16" height="16" viewBox="0 0 16 16" fill="none" xmlns="http://www.w3.org/2000/svg">
<path d="M12.7497 13.5001C13.0643 13.5001 13.337 13.3961 13.5688 13.191L9.60247 9.22446C9.5073 9.2926 9.41506 9.35886 9.32793 9.42187C9.03111 9.64057 8.7902 9.81122 8.60521 9.9335C8.42025 10.0561 8.17416 10.181 7.86696 10.3085C7.55957 10.4362 7.27319 10.4999 7.00753 10.4999H6.99975H6.99197C6.72628 10.4999 6.4399 10.4363 6.13253 10.3085C5.82516 10.181 5.57907 10.0561 5.39428 9.9335C5.20932 9.81122 4.96854 9.64059 4.67156 9.42187C4.5888 9.3612 4.49702 9.29463 4.39779 9.22339L0.430664 13.191C0.662446 13.3961 0.935302 13.5001 1.24997 13.5001H12.7497Z" fill="#FF0000"/>
<path d="M0.789135 6.72676C0.492336 6.52889 0.229138 6.30226 0 6.047V12.0817L3.49594 8.58579C2.79655 8.09752 1.89543 7.47856 0.789135 6.72676Z" fill="#FF0000"/>
<path d="M13.2182 6.72676C12.1541 7.44699 11.2497 8.06702 10.5049 8.58719L13.9994 12.0819V6.047C13.7754 6.29713 13.515 6.5236 13.2182 6.72676Z" fill="#FF0000"/>
<path d="M12.7496 2.50012H1.2499C0.848713 2.50012 0.540273 2.6356 0.324199 2.90627C0.107948 3.17706 0 3.51573 0 3.92187C0 4.24993 0.143253 4.6054 0.429631 4.98836C0.716009 5.37117 1.02074 5.67186 1.34367 5.89058C1.5207 6.01566 2.05457 6.3868 2.94527 7.00389C3.42609 7.33708 3.84423 7.6275 4.20356 7.87812C4.50984 8.09152 4.77398 8.27633 4.99206 8.4297C5.0171 8.44727 5.05647 8.47543 5.10873 8.51279C5.16503 8.55323 5.23627 8.60455 5.32416 8.66802C5.49342 8.79043 5.63403 8.88938 5.74602 8.96497C5.85785 9.04058 5.99335 9.12505 6.15232 9.21884C6.31115 9.3125 6.46096 9.38293 6.60157 9.42978C6.7422 9.4766 6.87239 9.50008 6.99216 9.50008H6.99994H7.00771C7.12745 9.50008 7.25767 9.4766 7.39833 9.42978C7.53891 9.38293 7.68859 9.31265 7.84756 9.21884C8.00636 9.12505 8.14169 9.04041 8.25388 8.96497C8.36587 8.88938 8.50648 8.79045 8.67576 8.66802C8.76347 8.60455 8.83472 8.55321 8.89102 8.51292C8.9433 8.4754 8.98265 8.44742 9.00784 8.4297C9.17773 8.31149 9.44247 8.12744 9.79842 7.88028C10.4461 7.43026 11.4 6.76791 12.664 5.89058C13.0442 5.62504 13.3618 5.3046 13.6171 4.92972C13.8719 4.55484 13.9996 4.16161 13.9996 3.75015C13.9996 3.40638 13.8758 3.11222 13.6286 2.86723C13.3811 2.62253 13.0881 2.50012 12.7496 2.50012Z" fill="#FF0000"/>
</svg>
