<svg width="55" height="55" viewBox="0 0 55 55" fill="none" xmlns="http://www.w3.org/2000/svg">
<g clip-path="url(#clip0)">
<path d="M49.2708 48.125H5.72917C2.57125 48.125 0 45.5538 0 42.3958V12.6042C0 9.44625 2.57125 6.875 5.72917 6.875H49.2708C52.4288 6.875 55 9.44625 55 12.6042V42.3958C55 45.5538 52.4288 48.125 49.2708 48.125ZM5.72917 9.16667C3.83396 9.16667 2.29167 10.709 2.29167 12.6042V42.3958C2.29167 44.291 3.83396 45.8333 5.72917 45.8333H49.2708C51.166 45.8333 52.7083 44.291 52.7083 42.3958V12.6042C52.7083 10.709 51.166 9.16667 49.2708 9.16667H5.72917Z" fill="url(#paint0_linear)"/>
<path d="M17.1874 27.5001C14.0295 27.5001 11.4583 24.9288 11.4583 21.7709C11.4583 18.613 14.0295 16.0417 17.1874 16.0417C20.3453 16.0417 22.9166 18.613 22.9166 21.7709C22.9166 24.9288 20.3453 27.5001 17.1874 27.5001ZM17.1874 18.3334C15.2922 18.3334 13.7499 19.8757 13.7499 21.7709C13.7499 23.6661 15.2922 25.2084 17.1874 25.2084C19.0826 25.2084 20.6249 23.6661 20.6249 21.7709C20.6249 19.8757 19.0826 18.3334 17.1874 18.3334Z" fill="url(#paint1_linear)"/>
<path d="M26.3542 38.9584C25.7217 38.9584 25.2083 38.4451 25.2083 37.8126V35.5209C25.2083 33.6257 23.666 32.0834 21.7708 32.0834H12.6042C10.709 32.0834 9.16667 33.6257 9.16667 35.5209V37.8126C9.16667 38.4451 8.65333 38.9584 8.02083 38.9584C7.38833 38.9584 6.875 38.4451 6.875 37.8126V35.5209C6.875 32.363 9.44625 29.7917 12.6042 29.7917H21.7708C24.9288 29.7917 27.5 32.363 27.5 35.5209V37.8126C27.5 38.4451 26.9867 38.9584 26.3542 38.9584Z" fill="url(#paint2_linear)"/>
<path d="M46.9791 20.6249H33.2291C32.5966 20.6249 32.0833 20.1116 32.0833 19.4791C32.0833 18.8466 32.5966 18.3333 33.2291 18.3333H46.9791C47.6116 18.3333 48.1249 18.8466 48.1249 19.4791C48.1249 20.1116 47.6116 20.6249 46.9791 20.6249Z" fill="url(#paint3_linear)"/>
<path d="M46.9791 29.7917H33.2291C32.5966 29.7917 32.0833 29.2783 32.0833 28.6458C32.0833 28.0133 32.5966 27.5 33.2291 27.5H46.9791C47.6116 27.5 48.1249 28.0133 48.1249 28.6458C48.1249 29.2783 47.6116 29.7917 46.9791 29.7917Z" fill="url(#paint4_linear)"/>
<path d="M46.9791 38.9584H33.2291C32.5966 38.9584 32.0833 38.4451 32.0833 37.8126C32.0833 37.1801 32.5966 36.6667 33.2291 36.6667H46.9791C47.6116 36.6667 48.1249 37.1801 48.1249 37.8126C48.1249 38.4451 47.6116 38.9584 46.9791 38.9584Z" fill="url(#paint5_linear)"/>
</g>
<defs>
<linearGradient id="paint0_linear" x1="14.8958" y1="8.59375" x2="52.7665" y2="20.2041" gradientUnits="userSpaceOnUse">
<stop stop-color="#E40300"/>
<stop offset="1" stop-color="#B70208"/>
</linearGradient>
<linearGradient id="paint1_linear" x1="14.5616" y1="16.5192" x2="22.7594" y2="18.4042" gradientUnits="userSpaceOnUse">
<stop stop-color="#E40300"/>
<stop offset="1" stop-color="#B70208"/>
</linearGradient>
<linearGradient id="paint2_linear" x1="12.4609" y1="30.1737" x2="24.7169" y2="36.5143" gradientUnits="userSpaceOnUse">
<stop stop-color="#E40300"/>
<stop offset="1" stop-color="#B70208"/>
</linearGradient>
<linearGradient id="paint3_linear" x1="36.4279" y1="18.4287" x2="39.7933" y2="23.8455" gradientUnits="userSpaceOnUse">
<stop stop-color="#E40300"/>
<stop offset="1" stop-color="#B70208"/>
</linearGradient>
<linearGradient id="paint4_linear" x1="36.4279" y1="27.5955" x2="39.7932" y2="33.0122" gradientUnits="userSpaceOnUse">
<stop stop-color="#E40300"/>
<stop offset="1" stop-color="#B70208"/>
</linearGradient>
<linearGradient id="paint5_linear" x1="36.4279" y1="36.7622" x2="39.7933" y2="42.1789" gradientUnits="userSpaceOnUse">
<stop stop-color="#E40300"/>
<stop offset="1" stop-color="#B70208"/>
</linearGradient>
<clipPath id="clip0">
<rect width="55" height="55" fill="white"/>
</clipPath>
</defs>
</svg>
