<svg width="232" height="34" viewBox="0 0 232 34" fill="none" xmlns="http://www.w3.org/2000/svg">
<path d="M194.003 9.61436C192.386 9.61436 190.861 9.87409 189.437 10.3936C188.013 10.8795 186.831 11.4492 185.893 12.0944L185.65 10.1003H178.369V33.116H186.186V17.4315C186.772 16.845 187.493 16.3674 188.373 15.9736C189.244 15.5882 190.107 15.3871 190.945 15.3871C192.369 15.3871 193.358 15.6636 193.903 16.2166C194.456 16.7696 194.724 17.6912 194.724 18.9815V33.1076H202.541V18.3447C202.541 15.3704 201.862 13.1668 200.505 11.7425C199.147 10.3265 196.977 9.61436 194.003 9.61436ZM170.619 11.8011C168.608 10.3433 165.826 9.61436 162.265 9.61436C160.456 9.61436 158.721 9.7568 157.071 10.05C155.454 10.3433 154.08 10.7119 152.94 11.1644V16.2166C155.462 15.4039 158.034 15.0017 160.657 15.0017C162.793 15.0017 164.251 15.2615 165.03 15.7809C165.81 16.2669 166.195 17.088 166.195 18.2609V18.7972H159.785C156.585 18.7972 154.172 19.4758 152.555 20.8331C150.971 22.1569 150.175 24.0086 150.175 26.3713C150.175 27.9884 150.544 29.3457 151.29 30.4516C152.035 31.5157 153.024 32.3116 154.247 32.8311C155.512 33.3506 156.87 33.6103 158.328 33.6103C160.271 33.6103 161.888 33.4009 163.179 32.9819C164.503 32.563 165.592 31.9598 166.43 31.1889L166.815 33.1327H173.66V18.7637C173.677 15.5715 172.663 13.259 170.619 11.8011ZM166.203 26.564C165.65 27.2092 164.921 27.7454 164.017 28.1643C163.112 28.5832 162.039 28.7927 160.816 28.7927C159.584 28.7927 158.679 28.5497 158.101 28.0638C157.515 27.5778 157.23 26.9159 157.23 26.0697C157.23 24.2264 158.378 23.3048 160.674 23.3048H166.212V26.564H166.203ZM222.239 19.6685L231.463 10.1003H222.582L215.058 17.4817V0.389648H207.241V33.116H215.058V26.0278L217.337 23.7907L223.696 33.116H232L222.239 19.6685ZM142.626 17.1382C143.665 16.5266 144.486 15.6636 145.106 14.566C145.751 13.4349 146.078 12.0441 146.078 10.3936C146.078 7.67893 145.266 5.56755 143.648 4.08456C142.065 2.59319 139.702 1.84751 136.56 1.84751H120.055V33.116H137.046C140.314 33.116 142.827 32.3368 144.57 30.7868C146.321 29.2032 147.193 26.9159 147.193 23.9415C147.193 21.9307 146.79 20.431 145.978 19.4255C145.165 18.4201 144.051 17.6577 142.626 17.1382ZM127.863 7.47785H133.837C135.454 7.47785 136.569 7.78785 137.189 8.39948C137.8 8.98598 138.11 9.87408 138.11 11.0722C138.11 12.1698 137.8 13.0328 137.189 13.6444C136.577 14.256 135.588 14.566 134.231 14.566H127.872V7.47785H127.863ZM138.161 26.6562C137.482 27.2427 136.426 27.5275 135.002 27.5275H127.863V19.9534H134.709C136.359 19.9534 137.524 20.2634 138.202 20.875C138.881 21.4615 139.225 22.3496 139.225 23.5478C139.225 25.0391 138.873 26.0781 138.161 26.6562Z" fill="black"/>
<path d="M20.9211 20.4895C20.9211 22.6595 20.3513 24.2766 19.2202 25.3407C18.0891 26.4047 16.4721 26.9409 14.3691 26.9409C12.2661 26.9409 10.649 26.4047 9.51795 25.3407C8.38686 24.2766 7.81712 22.6512 7.81712 20.4895V1.84741H0V21.2184C0 23.9079 0.58649 26.1701 1.7511 28.0134C2.94922 29.8567 4.61654 31.2475 6.75305 32.1859C8.92308 33.1243 11.4618 33.5935 14.3775 33.5935C17.2932 33.5935 19.8151 33.1243 21.9516 32.1859C24.1216 31.2475 25.789 29.8567 26.9536 28.0134C28.1517 26.1701 28.7466 23.8996 28.7466 21.2184V1.84741H20.9294V20.4895H20.9211ZM49.056 9.61426C47.4389 9.61426 45.9141 9.87399 44.4897 10.3935C43.0654 10.8794 41.884 11.4491 40.9456 12.0943L40.7026 10.1002H33.4217V33.1159H41.2389V17.4314C41.8254 16.8449 42.5459 16.3673 43.4257 15.9735C44.297 15.5881 45.16 15.387 45.9978 15.387C47.4222 15.387 48.4108 15.6635 48.9554 16.2165C49.5084 16.7695 49.7849 17.6911 49.7849 18.9814V33.1075H57.602V18.3446C57.602 15.3703 56.9234 13.1667 55.5661 11.7424C54.2087 10.3264 52.0387 9.61426 49.056 9.61426ZM73.0855 9.61426C69.0722 9.61426 66.0643 10.6951 64.0535 12.8651C62.0426 15.0351 61.0456 17.9508 61.0456 21.6039C61.0456 25.6172 62.2605 28.625 64.6902 30.6359C67.12 32.6132 70.3373 33.5935 74.3506 33.5935C76.1604 33.5935 77.8277 33.4678 79.3526 33.2081C80.8774 32.9818 82.1845 32.6132 83.2821 32.0937V26.9996C82.4107 27.3515 81.3047 27.6447 79.9809 27.871C78.6823 28.0972 77.4088 28.2145 76.1436 28.2145C73.8814 28.2145 72.08 27.9212 70.7562 27.3431C69.4576 26.7315 68.6365 25.659 68.2762 24.1425H84.5891V20.012C84.5891 16.8365 83.5837 14.3146 81.5812 12.4378C79.5704 10.5526 76.7385 9.61426 73.0855 9.61426ZM77.7942 19.6182H68.2762C68.2762 18.0011 68.6449 16.8197 69.3905 16.0741C70.1362 15.2949 71.4433 14.9095 73.3201 14.9095C74.9371 14.9095 76.085 15.253 76.7636 15.9316C77.4423 16.5768 77.7858 17.4649 77.7858 18.6044V19.6182H77.7942ZM102.553 21.4112L111.048 10.1002H102.553L98.2795 15.8814L94.0065 10.1002H85.5107L94.0065 21.4112L85.1672 33.1075H93.7133L98.2795 27.0415L102.846 33.1075H111.392L102.553 21.4112Z" fill="#FF0000"/>
</svg>
