<svg width="20" height="20" viewBox="0 0 20 20" fill="none" xmlns="http://www.w3.org/2000/svg">
<g clip-path="url(#clip0)">
<path d="M20 10C20 13.3016 17.3333 16 14 16C10.6984 16 8 13.3016 8 10C8 6.69841 10.6667 4 13.9682 4C17.3333 4 20 6.69841 20 10Z" fill="#FFB600"/>
<path d="M14 4C17.3016 4 20 6.69841 20 10C20 13.3016 17.3333 16 14 16C10.6984 16 8 13.3016 8 10" fill="#F7981D"/>
<path d="M14 4C17.3016 4 20 6.69841 20 10C20 13.3016 17.3333 16 14 16" fill="#FF8500"/>
<path d="M5.93651 4C2.66667 4.03175 0 6.69841 0 10C0 13.3016 2.66667 16 6 16C7.55556 16 8.95238 15.3968 10.0317 14.4444C10.254 14.254 10.4444 14.0317 10.6349 13.8095H9.39683C9.2381 13.619 9.07937 13.3968 8.95238 13.2063H11.0794C11.2064 13.0159 11.3333 12.7936 11.4286 12.5714H8.60318C8.50794 12.381 8.4127 12.1587 8.34921 11.9365H11.6508C11.8413 11.3333 11.9683 10.6984 11.9683 10.0317C11.9683 9.5873 11.9048 9.1746 11.8413 8.7619H8.15873C8.19048 8.53968 8.25397 8.34921 8.31746 8.12698H11.619C11.5556 7.90476 11.4603 7.68254 11.3651 7.49206H8.57143C8.66667 7.26984 8.79365 7.07936 8.92064 6.85714H11.0476C10.9206 6.63492 10.7619 6.4127 10.5714 6.22222H9.39683C9.5873 6 9.77778 5.80952 10 5.61905C8.95238 4.63492 7.52381 4.06349 5.96825 4.06349C5.96825 4 5.96825 4 5.93651 4Z" fill="#FF5050"/>
<path d="M0 10C0 13.3016 2.66667 16 6 16C7.55556 16 8.95238 15.3969 10.0317 14.4445C10.254 14.254 10.4444 14.0318 10.6349 13.8096H9.39683C9.2381 13.6191 9.07937 13.3969 8.95238 13.2064H11.0794C11.2064 13.0159 11.3333 12.7937 11.4286 12.5715H8.60318C8.50794 12.381 8.4127 12.1588 8.34921 11.9366H11.6508C11.8413 11.3334 11.9683 10.6985 11.9683 10.0318C11.9683 9.58735 11.9048 9.17465 11.8413 8.76195H8.15873C8.19048 8.53973 8.25397 8.34925 8.31746 8.12703H11.619C11.5556 7.90481 11.4603 7.68259 11.3651 7.49211H8.57143C8.66667 7.26989 8.79365 7.07941 8.92064 6.85719H11.0476C10.9206 6.63497 10.7619 6.41274 10.5714 6.22227H9.39683C9.5873 6.00005 9.77778 5.80957 10 5.61909C8.95238 4.63497 7.52381 4.06354 5.96825 4.06354H5.93651" fill="#E52836"/>
<path d="M6.00002 16C7.55557 16 8.9524 15.3969 10.0318 14.4445C10.254 14.254 10.4445 14.0318 10.6349 13.8096H9.39684C9.23811 13.6191 9.07938 13.3969 8.9524 13.2064H11.0794C11.2064 13.0159 11.3333 12.7937 11.4286 12.5715H8.60319C8.50795 12.381 8.41271 12.1588 8.34922 11.9366H11.6508C11.8413 11.3334 11.9683 10.6985 11.9683 10.0318C11.9683 9.58735 11.9048 9.17465 11.8413 8.76195H8.15875C8.19049 8.53973 8.25398 8.34925 8.31748 8.12703H11.6191C11.5556 7.90481 11.4603 7.68259 11.3651 7.49211H8.57144C8.66668 7.26989 8.79367 7.07941 8.92065 6.85719H11.0476C10.9206 6.63497 10.7619 6.41274 10.5714 6.22227H9.39684C9.58732 6.00005 9.77779 5.80957 10 5.61909C8.9524 4.63497 7.52382 4.06354 5.96827 4.06354H5.93652" fill="#CB2026"/>
<path d="M8.12571 11.5238L8.22095 10.9841C8.1892 10.9841 8.12571 11.0159 8.06222 11.0159C7.84 11.0159 7.80825 10.8889 7.84 10.8254L8.03047 9.71429H8.37968L8.47492 9.11112H8.15746L8.22095 8.73016H7.58603C7.58603 8.73016 7.20508 10.8254 7.20508 11.0794C7.20508 11.4603 7.4273 11.6191 7.71301 11.6191C7.90349 11.6191 8.06222 11.5556 8.12571 11.5238Z" fill="white"/>
<path d="M8.34961 10.5078C8.34961 11.3967 8.95279 11.619 9.46072 11.619C9.93692 11.619 10.1274 11.5237 10.1274 11.5237L10.2544 10.9205C10.2544 10.9205 9.90517 11.0793 9.58771 11.0793C8.88929 11.0793 9.01628 10.5713 9.01628 10.5713H10.3179C10.3179 10.5713 10.4131 10.1586 10.4131 9.99991C10.4131 9.58721 10.1909 9.07927 9.49247 9.07927C8.8258 9.01578 8.34961 9.7142 8.34961 10.5078ZM9.46072 9.58721C9.80993 9.58721 9.74644 9.99991 9.74644 10.0317H9.04802C9.04802 9.99991 9.11152 9.58721 9.46072 9.58721Z" fill="white"/>
<path d="M13.4921 11.5238L13.6191 10.8253C13.6191 10.8253 13.3016 10.9841 13.0794 10.9841C12.635 10.9841 12.4445 10.6349 12.4445 10.2539C12.4445 9.49202 12.8255 9.07932 13.2699 9.07932C13.5874 9.07932 13.8413 9.26979 13.8413 9.26979L13.9366 8.60313C13.9366 8.60313 13.5556 8.4444 13.2064 8.4444C12.4763 8.4444 11.7461 9.07932 11.7461 10.2857C11.7461 11.0793 12.127 11.619 12.889 11.619C13.1429 11.619 13.4921 11.5238 13.4921 11.5238Z" fill="white"/>
<path d="M4.63506 9.01575C4.19062 9.01575 3.87316 9.14273 3.87316 9.14273L3.77792 9.68241C3.77792 9.68241 4.06363 9.55543 4.47633 9.55543C4.69855 9.55543 4.88903 9.58718 4.88903 9.77765C4.88903 9.90464 4.85728 9.93638 4.85728 9.93638C4.85728 9.93638 4.66681 9.93638 4.57157 9.93638C4.03189 9.93638 3.42871 10.1586 3.42871 10.8888C3.42871 11.4602 3.80966 11.5872 4.03189 11.5872C4.47633 11.5872 4.66681 11.3015 4.69855 11.3015L4.66681 11.5554H5.23823L5.4922 9.8094C5.4922 9.04749 4.85728 9.01575 4.63506 9.01575ZM4.76204 10.4443C4.76204 10.5396 4.69855 11.0475 4.3176 11.0475C4.12712 11.0475 4.06363 10.8888 4.06363 10.7935C4.06363 10.6348 4.15887 10.4126 4.63506 10.4126C4.7303 10.4443 4.76204 10.4443 4.76204 10.4443Z" fill="white"/>
<path d="M6.09442 11.5872C6.25315 11.5872 7.0468 11.619 7.0468 10.7618C7.0468 9.9682 6.28489 10.1269 6.28489 9.80947C6.28489 9.65074 6.41188 9.58724 6.6341 9.58724C6.72934 9.58724 7.07855 9.61899 7.07855 9.61899L7.17378 9.04756C7.17378 9.04756 6.95156 8.98407 6.57061 8.98407C6.09442 8.98407 5.61823 9.17455 5.61823 9.80947C5.61823 10.5396 6.41188 10.4761 6.41188 10.7618C6.41188 10.9523 6.18966 10.9841 6.03093 10.9841C5.74521 10.9841 5.4595 10.8888 5.4595 10.8888L5.36426 11.4603C5.396 11.5238 5.55473 11.5872 6.09442 11.5872Z" fill="white"/>
<path d="M18.7617 8.50793L18.6347 9.36508C18.6347 9.36508 18.3807 9.04762 18.0315 9.04762C17.4601 9.04762 16.9521 9.74603 16.9521 10.5714C16.9521 11.0794 17.2061 11.619 17.7458 11.619C18.1268 11.619 18.349 11.3651 18.349 11.3651L18.3172 11.5873H18.9521L19.4283 8.53968L18.7617 8.50793ZM18.476 10.1905C18.476 10.5397 18.3172 10.9841 17.968 10.9841C17.7458 10.9841 17.6188 10.7936 17.6188 10.4762C17.6188 9.96825 17.841 9.65079 18.1267 9.65079C18.349 9.65079 18.476 9.80952 18.476 10.1905Z" fill="white"/>
<path d="M1.17446 11.5556L1.55542 9.26984L1.61891 11.5556H2.06335L2.88875 9.26984L2.53954 11.5556H3.20621L3.71415 8.50793H2.66653L2.03161 10.381L1.99986 8.50793H1.07923L0.571289 11.5556H1.17446Z" fill="white"/>
<path d="M11.0158 11.5555C11.2063 10.5079 11.238 9.65071 11.6825 9.80944C11.746 9.39674 11.8412 9.23801 11.9047 9.07928C11.9047 9.07928 11.8729 9.07928 11.7777 9.07928C11.492 9.07928 11.2698 9.46024 11.2698 9.46024L11.3333 9.11103H10.7301L10.3174 11.5872H11.0158V11.5555Z" fill="white"/>
<path d="M14.9524 9.01575C14.508 9.01575 14.1905 9.14273 14.1905 9.14273L14.0953 9.68241C14.0953 9.68241 14.381 9.55543 14.7937 9.55543C15.0159 9.55543 15.2064 9.58718 15.2064 9.77765C15.2064 9.90464 15.1747 9.93638 15.1747 9.93638C15.1747 9.93638 14.9842 9.93638 14.889 9.93638C14.3493 9.93638 13.7461 10.1586 13.7461 10.8888C13.7461 11.4602 14.127 11.5872 14.3493 11.5872C14.7937 11.5872 14.9842 11.3015 15.0159 11.3015L14.9842 11.5554H15.5556L15.8096 9.8094C15.8413 9.04749 15.1747 9.01575 14.9524 9.01575ZM15.1112 10.4443C15.1112 10.5396 15.0477 11.0475 14.6667 11.0475C14.4763 11.0475 14.4128 10.8888 14.4128 10.7935C14.4128 10.6348 14.508 10.4126 14.9842 10.4126C15.0794 10.4443 15.0794 10.4443 15.1112 10.4443Z" fill="white"/>
<path d="M16.3488 11.5555C16.5393 10.5079 16.571 9.65071 17.0155 9.80944C17.079 9.39674 17.1742 9.23801 17.2377 9.07928C17.2377 9.07928 17.206 9.07928 17.1107 9.07928C16.825 9.07928 16.6028 9.46024 16.6028 9.46024L16.6663 9.11103H16.0631L15.6504 11.5872H16.3488V11.5555Z" fill="white"/>
<path d="M7.14258 11.0794C7.14258 11.4603 7.3648 11.6191 7.65051 11.6191C7.87274 11.6191 8.06321 11.5556 8.1267 11.5238L8.22194 10.9841C8.1902 10.9841 8.1267 11.0159 8.06321 11.0159C7.84099 11.0159 7.80924 10.8889 7.84099 10.8254L8.03147 9.71429H8.38067L8.47591 9.11112H8.15845L8.22194 8.73016" fill="#DCE5E5"/>
<path d="M8.66699 10.5078C8.66699 11.3967 8.95271 11.619 9.46064 11.619C9.93683 11.619 10.1273 11.5237 10.1273 11.5237L10.2543 10.9205C10.2543 10.9205 9.90509 11.0793 9.58763 11.0793C8.88922 11.0793 9.0162 10.5713 9.0162 10.5713H10.3178C10.3178 10.5713 10.413 10.1586 10.413 9.99991C10.413 9.58721 10.1908 9.07927 9.49239 9.07927C8.82572 9.01578 8.66699 9.7142 8.66699 10.5078ZM9.46064 9.58721C9.80985 9.58721 9.87334 9.99991 9.87334 10.0317H9.04795C9.04795 9.99991 9.11144 9.58721 9.46064 9.58721Z" fill="#DCE5E5"/>
<path d="M13.492 11.5238L13.619 10.8253C13.619 10.8253 13.3016 10.9841 13.0793 10.9841C12.6349 10.9841 12.4444 10.6349 12.4444 10.2539C12.4444 9.49202 12.8254 9.07932 13.2698 9.07932C13.5873 9.07932 13.8413 9.26979 13.8413 9.26979L13.9365 8.60313C13.9365 8.60313 13.5555 8.4444 13.2063 8.4444C12.4762 8.4444 12.0635 9.07932 12.0635 10.2857C12.0635 11.0793 12.127 11.619 12.8889 11.619C13.1428 11.619 13.492 11.5238 13.492 11.5238Z" fill="#DCE5E5"/>
<path d="M3.77792 9.71421C3.77792 9.71421 4.06363 9.58722 4.47633 9.58722C4.69855 9.58722 4.88903 9.61897 4.88903 9.80944C4.88903 9.93643 4.85728 9.96817 4.85728 9.96817C4.85728 9.96817 4.66681 9.96817 4.57157 9.96817C4.03189 9.96817 3.42871 10.1904 3.42871 10.9206C3.42871 11.492 3.80966 11.619 4.03189 11.619C4.47633 11.619 4.66681 11.3333 4.69855 11.3333L4.66681 11.5872H5.23823L5.4922 9.84119C5.4922 9.11103 4.85728 9.07928 4.60331 9.07928L3.77792 9.71421ZM5.0795 10.4444C5.0795 10.5396 4.69855 11.0475 4.3176 11.0475C4.12712 11.0475 4.06363 10.8888 4.06363 10.7936C4.06363 10.6348 4.15887 10.4126 4.63506 10.4126C4.7303 10.4444 5.0795 10.4444 5.0795 10.4444Z" fill="#DCE5E5"/>
<path d="M5.39648 11.5238C5.39648 11.5238 5.58696 11.5872 6.12664 11.5872C6.28537 11.5872 7.07903 11.619 7.07903 10.7618C7.07903 9.9682 6.31712 10.1269 6.31712 9.80947C6.31712 9.65074 6.44411 9.58724 6.66633 9.58724C6.76157 9.58724 7.11077 9.61899 7.11077 9.61899L7.20601 9.04756C7.20601 9.04756 6.98379 8.98407 6.60284 8.98407C6.12664 8.98407 5.96791 9.17455 5.96791 9.80947C5.96791 10.5396 6.44411 10.4761 6.44411 10.7618C6.44411 10.9523 6.22188 10.9841 6.06315 10.9841" fill="#DCE5E5"/>
<path d="M18.634 9.36507C18.634 9.36507 18.38 9.04761 18.0308 9.04761C17.4594 9.04761 17.2689 9.74602 17.2689 10.5714C17.2689 11.0794 17.2054 11.619 17.7451 11.619C18.126 11.619 18.3483 11.3651 18.3483 11.3651L18.3165 11.5873H18.9514L19.4276 8.53967L18.634 9.36507ZM18.6022 10.1905C18.6022 10.5397 18.3165 10.9841 17.9673 10.9841C17.7451 10.9841 17.6181 10.7936 17.6181 10.4762C17.6181 9.96824 17.8403 9.65078 18.126 9.65078C18.3483 9.65078 18.6022 9.80951 18.6022 10.1905Z" fill="#DCE5E5"/>
<path d="M1.17446 11.5556L1.55542 9.26984L1.61891 11.5556H2.06335L2.88875 9.26984L2.53954 11.5556H3.20621L3.71415 8.50793H2.9205L2.03161 10.381L1.99986 8.50793H1.65065L0.571289 11.5556H1.17446Z" fill="#DCE5E5"/>
<path d="M10.3496 11.5555H11.0163C11.2067 10.5079 11.2385 9.65071 11.6829 9.80944C11.7464 9.39675 11.8417 9.23802 11.9052 9.07928C11.9052 9.07928 11.8734 9.07928 11.7782 9.07928C11.4925 9.07928 11.2702 9.46024 11.2702 9.46024L11.3337 9.11103" fill="#DCE5E5"/>
<path d="M14.0953 9.71421C14.0953 9.71421 14.381 9.58722 14.7937 9.58722C15.0159 9.58722 15.2064 9.61897 15.2064 9.80944C15.2064 9.93643 15.1747 9.96817 15.1747 9.96817C15.1747 9.96817 14.9842 9.96817 14.889 9.96817C14.3493 9.96817 13.7461 10.1904 13.7461 10.9206C13.7461 11.492 14.127 11.619 14.3493 11.619C14.7937 11.619 14.9842 11.3333 15.0159 11.3333L14.9842 11.5872H15.5556L15.8096 9.84119C15.8096 9.11103 15.1747 9.07928 14.9207 9.07928L14.0953 9.71421ZM15.3969 10.4444C15.3969 10.5396 15.0159 11.0475 14.635 11.0475C14.4445 11.0475 14.381 10.8888 14.381 10.7936C14.381 10.6348 14.4763 10.4126 14.9524 10.4126C15.0794 10.4444 15.3969 10.4444 15.3969 10.4444Z" fill="#DCE5E5"/>
<path d="M15.6836 11.5555H16.3503C16.5407 10.5079 16.5725 9.65071 17.0169 9.80944C17.0804 9.39675 17.1757 9.23802 17.2392 9.07928C17.2392 9.07928 17.2074 9.07928 17.1122 9.07928C16.8265 9.07928 16.6042 9.46024 16.6042 9.46024L16.6677 9.11103" fill="#DCE5E5"/>
</g>
<defs>
<clipPath id="clip0">
<rect width="20" height="20" fill="white"/>
</clipPath>
</defs>
</svg>
