<svg width="69" height="69" viewBox="0 0 69 69" fill="none" xmlns="http://www.w3.org/2000/svg">
<g clip-path="url(#clip0)">
<path d="M68.4321 8.70852C68.3912 8.66998 60.2862 0.940496 60.2862 0.940496C59.9764 0.643203 59.6559 0.335938 59.0576 0.335938H26.4281C25.475 0.335938 24.6996 1.11124 24.6996 2.06431V7.37178L13.1994 9.34313C12.2776 9.50485 11.6577 10.387 11.8174 11.3079L12.401 14.711C8.66303 15.9689 4.82531 17.2656 1.12047 18.5964C0.245035 18.9165 -0.214381 19.8899 0.0980056 20.7706L7.46766 41.2571C7.61591 41.6694 8.00444 41.9261 8.41884 41.9261C8.53231 41.9261 8.64794 41.9068 8.76087 41.8661C9.28619 41.6772 9.55882 41.0982 9.36988 40.5729L2.10925 20.3893C5.59968 19.1397 9.21436 17.9165 12.747 16.7275L16.22 36.9753L20.2164 60.2941C20.3607 61.1173 21.0842 61.7029 21.9009 61.7029C21.9934 61.7029 22.0872 61.6954 22.1812 61.6799L33.0051 59.8224L41.463 58.3726L28.7423 62.9448L18.711 66.5515L10.9205 44.8827C10.7317 44.3574 10.1529 44.0848 9.62742 44.2736C9.1021 44.4624 8.82947 45.0413 9.01828 45.5667L16.9193 67.5434C17.172 68.2345 17.8267 68.6641 18.5187 68.6641C18.7099 68.6641 18.9041 68.6312 19.0934 68.5621L29.426 64.8472L52.8879 56.4143L57.37 55.646H67.2714C68.2245 55.646 68.9999 54.869 68.9999 53.9138V9.84743C69 9.24246 68.6717 8.93385 68.4321 8.70852ZM65.7542 8.94787H60.6964L60.5711 8.9484C60.3289 8.95002 59.762 8.9542 59.6182 8.81135C59.585 8.77833 59.5462 8.66809 59.5462 8.46338L59.5345 3.01683L65.7542 8.94787ZM66.9785 53.6243H26.7211V33.926C26.7211 33.3678 26.2685 32.9153 25.7103 32.9153C25.1521 32.9153 24.6996 33.3678 24.6996 33.926V53.9135C24.6996 54.8686 25.475 55.6458 26.4281 55.6458H45.4047L32.6633 57.8298L22.154 59.6334L18.2124 36.6336L13.8636 11.2801L24.6995 9.42264V29.2362C24.6995 29.7944 25.152 30.2469 25.7102 30.2469C26.2684 30.2469 26.721 29.7944 26.721 29.2362V2.35729H57.5115L57.5247 8.46567C57.5247 9.20608 57.7499 9.80498 58.194 10.2459C58.8763 10.9234 59.8408 10.9706 60.4396 10.9706C60.4911 10.9706 60.5399 10.9702 60.5855 10.9699L66.9785 10.9695V53.6243Z" fill="#FF0000"/>
<path d="M31.5928 16.0303C31.5928 16.5885 32.0453 17.041 32.6035 17.041H61.5021C62.0603 17.041 62.5129 16.5885 62.5129 16.0303C62.5129 15.4721 62.0603 15.0195 61.5021 15.0195H32.6035C32.0453 15.0195 31.5928 15.4721 31.5928 16.0303Z" fill="#FF0000"/>
<path d="M61.5021 22.2001H32.6035C32.0453 22.2001 31.5928 22.6526 31.5928 23.2108C31.5928 23.769 32.0453 24.2216 32.6035 24.2216H61.5021C62.0603 24.2216 62.5129 23.769 62.5129 23.2108C62.5129 22.6526 62.0603 22.2001 61.5021 22.2001Z" fill="#FF0000"/>
<path d="M61.5021 29.3806H32.6035C32.0453 29.3806 31.5928 29.8332 31.5928 30.3914C31.5928 30.9496 32.0453 31.4021 32.6035 31.4021H61.5021C62.0603 31.4021 62.5129 30.9496 62.5129 30.3914C62.5129 29.8332 62.0603 29.3806 61.5021 29.3806Z" fill="#FF0000"/>
<path d="M61.5021 36.5612H32.6035C32.0453 36.5612 31.5928 37.0137 31.5928 37.5719C31.5928 38.1301 32.0453 38.5826 32.6035 38.5826H61.5021C62.0603 38.5826 62.5129 38.1301 62.5129 37.5719C62.5129 37.0137 62.0603 36.5612 61.5021 36.5612Z" fill="#FF0000"/>
<path d="M61.5021 43.7419H32.6035C32.0453 43.7419 31.5928 44.1945 31.5928 44.7527C31.5928 45.3109 32.0453 45.7634 32.6035 45.7634H61.5021C62.0603 45.7634 62.5129 45.3109 62.5129 44.7527C62.5129 44.1945 62.0603 43.7419 61.5021 43.7419Z" fill="#FF0000"/>
</g>
<defs>
<clipPath id="clip0">
<rect width="69" height="69" fill="white"/>
</clipPath>
</defs>
</svg>
