<svg width="41" height="55" viewBox="0 0 41 55" fill="none" xmlns="http://www.w3.org/2000/svg">
<g clip-path="url(#clip0)">
<path d="M31.7369 41.3139L8.73679 41.3105C8.1024 41.3105 7.58691 41.8231 7.58691 42.4564C7.58691 43.0886 8.10121 43.6023 8.73679 43.6023L31.7369 43.6056C32.3713 43.6056 32.8868 43.0931 32.8868 42.4597C32.8867 41.8275 32.3725 41.3139 31.7369 41.3139Z" fill="url(#paint0_linear)"/>
<path d="M27.1339 45.8972H13.3359C12.7003 45.8972 12.186 46.4097 12.186 47.0431C12.186 47.6764 12.7003 48.1889 13.3359 48.1889H27.1339C27.7695 48.1889 28.2838 47.6764 28.2838 47.0431C28.2837 46.4096 27.7695 45.8972 27.1339 45.8972Z" fill="url(#paint1_linear)"/>
<path d="M20.5 13.7502C13.5257 13.7502 7.85181 19.4044 7.85181 26.3543C7.85181 33.3043 13.5257 38.9584 20.5 38.9584C27.4742 38.9584 33.1481 33.3043 33.1481 26.3543C33.1481 19.4044 27.4742 13.7502 20.5 13.7502ZM10.2676 27.5002H14.7743C14.9016 30.6214 15.5485 33.7255 16.6714 35.9158C13.2037 34.5319 10.7001 31.3312 10.2676 27.5002ZM14.7744 25.2086H10.2678C10.7002 21.3776 13.2038 18.177 16.6715 16.793C15.5486 18.9833 14.9017 22.0873 14.7744 25.2086ZM20.5 36.6669C19.1826 36.6669 17.3298 33.1169 17.0965 27.5003H23.9034C23.6702 33.1169 21.8173 36.6669 20.5 36.6669ZM17.0965 25.2086C17.3298 19.5919 19.1826 16.042 20.5 16.042C21.8173 16.042 23.6702 19.5919 23.9034 25.2086H17.0965ZM24.3285 35.9159C25.4514 33.7255 26.0983 30.6215 26.2256 27.5003H30.7323C30.2998 31.3312 27.7962 34.5319 24.3285 35.9159ZM26.2256 25.2086C26.0983 22.0873 25.4514 18.9833 24.3285 16.793C27.7962 18.177 30.2999 21.3777 30.7323 25.2086H26.2256Z" fill="url(#paint2_linear)"/>
<path d="M36.5977 6.87521H34.298V4.50742C34.298 2.00386 32.1722 -0.025011 29.6987 0.000233045C29.3453 0.00388538 29.036 0.0526547 28.6712 0.144607L4.15604 6.90002C1.73578 7.03065 -0.197021 9.01493 -0.197021 11.4586V50.4168C-0.197021 52.9445 1.86568 55.0001 4.40236 55.0001H36.5978C39.1344 55.0001 41.1972 52.9446 41.1972 50.4168V11.4586C41.1971 8.93082 39.1344 6.87521 36.5977 6.87521ZM29.2619 2.35899C30.6037 2.01772 31.9983 3.10085 31.9983 4.50742V6.87521H12.8742L29.2619 2.35899ZM38.8974 50.4168C38.8974 51.6801 37.8655 52.7084 36.5978 52.7084H4.40236C3.13466 52.7084 2.10272 51.6801 2.10272 50.4168V11.4586C2.10272 10.1953 3.13466 9.16694 4.40236 9.16694H36.5978C37.8655 9.16694 38.8974 10.1953 38.8974 11.4586V50.4168Z" fill="url(#paint3_linear)"/>
</g>
<defs>
<linearGradient id="paint0_linear" x1="14.439" y1="41.4062" x2="17.0058" y2="47.9122" gradientUnits="userSpaceOnUse">
<stop stop-color="#E40300"/>
<stop offset="1" stop-color="#B70208"/>
</linearGradient>
<linearGradient id="paint1_linear" x1="16.5458" y1="45.9927" x2="19.9061" y2="51.42" gradientUnits="userSpaceOnUse">
<stop stop-color="#E40300"/>
<stop offset="1" stop-color="#B70208"/>
</linearGradient>
<linearGradient id="paint2_linear" x1="14.7029" y1="14.8006" x2="32.7948" y2="18.9751" gradientUnits="userSpaceOnUse">
<stop stop-color="#E40300"/>
<stop offset="1" stop-color="#B70208"/>
</linearGradient>
<linearGradient id="paint3_linear" x1="11.0139" y1="2.29167" x2="41.2885" y2="7.53078" gradientUnits="userSpaceOnUse">
<stop stop-color="#E40300"/>
<stop offset="1" stop-color="#B70208"/>
</linearGradient>
<clipPath id="clip0">
<rect width="41" height="55" fill="white"/>
</clipPath>
</defs>
</svg>
