<svg width="16" height="16" viewBox="0 0 16 16" fill="none" xmlns="http://www.w3.org/2000/svg">
<g clip-path="url(#clip0)">
<path d="M8.64673 3.80597C9.53149 3.95456 10.3352 4.37329 10.9768 5.01491C11.6184 5.65652 12.0338 6.46022 12.1857 7.34497C12.2229 7.56785 12.4154 7.72319 12.6349 7.72319C12.6619 7.72319 12.6855 7.71981 12.7125 7.71643C12.9624 7.67591 13.1279 7.43953 13.0874 7.18964C12.905 6.11916 12.3985 5.14323 11.6252 4.36992C10.8519 3.5966 9.87593 3.09007 8.80545 2.90771C8.55556 2.86719 8.32255 3.03266 8.27865 3.27917C8.23475 3.52569 8.39684 3.76545 8.64673 3.80597Z" fill="#FF0000"/>
<path d="M15.9814 7.05794C15.6808 5.29519 14.8501 3.69116 13.5737 2.41469C12.2972 1.13821 10.6931 0.307495 8.9304 0.00695018C8.68389 -0.0369496 8.45088 0.131896 8.40698 0.37841C8.36646 0.628302 8.53192 0.861308 8.78182 0.905208C10.3555 1.17198 11.7906 1.91828 12.932 3.0563C14.0734 4.19769 14.8164 5.63288 15.0831 7.20652C15.1203 7.4294 15.3128 7.58473 15.5323 7.58473C15.5593 7.58473 15.5829 7.58136 15.6099 7.57798C15.8564 7.54084 16.0253 7.30445 15.9814 7.05794Z" fill="#FF0000"/>
<path d="M12.5269 13.3242L10.5456 11.3428C10.151 10.9497 9.49748 10.9617 9.0891 11.3702L8.09093 12.3681C8.02787 12.3334 7.9626 12.2971 7.89397 12.2586C7.26364 11.9093 6.40092 11.4306 5.49309 10.5221C4.58257 9.61169 4.10342 8.74764 3.7531 8.11691C3.71613 8.05008 3.68071 7.98566 3.64573 7.92447L4.31565 7.25555L4.645 6.92579C5.05401 6.51667 5.06529 5.86334 4.67158 5.46916L2.69032 3.48745C2.29661 3.09382 1.6428 3.10576 1.23379 3.51487L0.675406 4.07647L0.690664 4.09162C0.50343 4.33053 0.346971 4.60607 0.230539 4.90321C0.12321 5.18606 0.0563883 5.45596 0.0258336 5.72642C-0.235779 7.89525 0.755312 9.87739 3.44501 12.5671C7.16298 16.2848 10.1592 16.004 10.2884 15.9903C10.57 15.9566 10.8397 15.8894 11.1139 15.7829C11.4085 15.6678 11.6839 15.5116 11.9226 15.3247L11.9348 15.3356L12.5005 14.7817C12.9087 14.3726 12.9204 13.7191 12.5269 13.3242Z" fill="#FF0000"/>
</g>
<defs>
<clipPath id="clip0">
<rect width="16" height="16" fill="white"/>
</clipPath>
</defs>
</svg>
