<svg width="20" height="20" viewBox="0 0 20 20" fill="none" xmlns="http://www.w3.org/2000/svg">
<path d="M7.33301 12.873L8.34888 7.15869H9.93618L8.95205 12.873H7.33301Z" fill="#3C58BF"/>
<path d="M7.33301 12.873L8.63459 7.15869H9.93618L8.95205 12.873H7.33301Z" fill="#293688"/>
<path d="M14.6989 7.22223C14.3815 7.09525 13.8735 6.96826 13.2386 6.96826C11.6513 6.96826 10.5085 7.76191 10.5085 8.90477C10.5085 9.76191 11.3021 10.2064 11.937 10.4921C12.572 10.7778 12.7624 10.9683 12.7624 11.2222C12.7624 11.6032 12.2545 11.7937 11.8101 11.7937C11.1751 11.7937 10.8259 11.6984 10.2862 11.4762L10.064 11.381L9.8418 12.6825C10.2227 12.8413 10.9212 13 11.6513 13C13.3339 13 14.445 12.2064 14.445 11C14.445 10.3333 14.0323 9.8254 13.0799 9.4127C12.5085 9.12699 12.1593 8.96826 12.1593 8.68255C12.1593 8.42858 12.445 8.17461 13.0799 8.17461C13.6196 8.17461 14.0005 8.26985 14.2862 8.39683L14.445 8.46032L14.6989 7.22223Z" fill="#3C58BF"/>
<path d="M14.6989 7.22223C14.3815 7.09525 13.8735 6.96826 13.2386 6.96826C11.6513 6.96826 10.7942 7.76191 10.7942 8.90477C10.7942 9.76191 11.3021 10.2064 11.937 10.4921C12.572 10.7778 12.7624 10.9683 12.7624 11.2222C12.7624 11.6032 12.2545 11.7937 11.8101 11.7937C11.1751 11.7937 10.8259 11.6984 10.2862 11.4762L10.064 11.381L9.8418 12.6825C10.2227 12.8413 10.9212 13 11.6513 13C13.3339 13 14.445 12.2064 14.445 11C14.445 10.3333 14.0323 9.8254 13.0799 9.4127C12.5085 9.12699 12.1593 8.96826 12.1593 8.68255C12.1593 8.42858 12.445 8.17461 13.0799 8.17461C13.6196 8.17461 14.0005 8.26985 14.2862 8.39683L14.445 8.46032L14.6989 7.22223Z" fill="#293688"/>
<path d="M17.428 7.15869C17.0471 7.15869 16.7614 7.19044 16.6026 7.57139L14.2217 12.873H15.936L16.2534 11.9206H18.2852L18.4756 12.873H19.9995L18.6661 7.15869H17.428ZM16.6979 10.9682C16.7931 10.6825 17.3328 9.28568 17.3328 9.28568C17.3328 9.28568 17.4598 8.93647 17.555 8.71425L17.6502 9.25393C17.6502 9.25393 17.9677 10.6825 18.0312 11H16.6979V10.9682Z" fill="#3C58BF"/>
<path d="M17.809 7.15869C17.428 7.15869 17.1423 7.19044 16.9836 7.57139L14.2217 12.873H15.936L16.2534 11.9206H18.2852L18.4756 12.873H19.9995L18.6661 7.15869H17.809ZM16.6979 10.9682C16.8249 10.6508 17.3328 9.28568 17.3328 9.28568C17.3328 9.28568 17.4598 8.93647 17.555 8.71425L17.6502 9.25393C17.6502 9.25393 17.9677 10.6825 18.0312 11H16.6979V10.9682Z" fill="#293688"/>
<path d="M4.41318 11.1587L4.25445 10.3333C3.96873 9.38096 3.0481 8.33335 2.03223 7.82541L3.4608 12.9048H5.17508L7.74651 7.19049H6.03223L4.41318 11.1587Z" fill="#3C58BF"/>
<path d="M4.41318 11.1587L4.25445 10.3333C3.96873 9.38096 3.0481 8.33335 2.03223 7.82541L3.4608 12.9048H5.17508L7.74651 7.19049H6.34969L4.41318 11.1587Z" fill="#293688"/>
<path d="M0 7.15869L0.285714 7.22218C2.31746 7.69837 3.71429 8.90472 4.25397 10.3333L3.68254 7.63488C3.5873 7.25393 3.30159 7.15869 2.95238 7.15869H0Z" fill="#FFBC00"/>
<path d="M0 7.15869C2.03175 7.63488 3.71429 8.87298 4.25397 10.3015L3.71429 8.04758C3.61905 7.66663 3.30159 7.44441 2.95238 7.44441L0 7.15869Z" fill="#F7981D"/>
<path d="M0 7.15869C2.03175 7.63488 3.71429 8.87298 4.25397 10.3015L3.87302 9.06345C3.77778 8.6825 3.65079 8.30155 3.20635 8.14282L0 7.15869Z" fill="#ED7C00"/>
<path d="M6.00096 10.9682L4.92159 9.88882L4.41366 11.0952L4.28667 10.3015C4.00096 9.34914 3.08033 8.30152 2.06445 7.79358L3.49302 12.8729H5.20731L6.00096 10.9682Z" fill="#051244"/>
<path d="M8.95401 12.8729L7.58893 11.4761L7.33496 12.8729H8.95401Z" fill="#051244"/>
<path d="M12.6037 10.9047C12.7307 11.0316 12.7942 11.1269 12.7624 11.2539C12.7624 11.6348 12.2545 11.8253 11.8101 11.8253C11.1751 11.8253 10.8259 11.7301 10.2862 11.5078L10.064 11.4126L9.8418 12.7142C10.2227 12.8729 10.9212 13.0316 11.6513 13.0316C12.6672 13.0316 13.4926 12.7459 13.9688 12.238L12.6037 10.9047Z" fill="#051244"/>
<path d="M14.4443 12.873H15.9364L16.2539 11.9206H18.2856L18.4761 12.873H19.9999L19.4602 10.5555L17.5554 8.71423L17.6507 9.22217C17.6507 9.22217 17.9681 10.6507 18.0316 10.9682H16.6983C16.8253 10.6507 17.3332 9.28566 17.3332 9.28566C17.3332 9.28566 17.4602 8.93646 17.5554 8.71423" fill="#051244"/>
</svg>
