<svg width="69" height="69" viewBox="0 0 69 69" fill="none" xmlns="http://www.w3.org/2000/svg">
<g clip-path="url(#clip0)">
<path d="M65.7103 40.4154H64.6777V31.1145C64.6777 29.6421 63.9448 28.3383 62.8256 27.5462V26.2798C62.8256 24.4428 61.3312 22.9484 59.4942 22.9484H58.7232L61.6731 18.6197C62.6619 17.1688 62.2859 15.1839 60.835 14.195L40.8181 0.553987C40.1153 0.0748954 39.2682 -0.101917 38.4321 0.056702C37.5964 0.215052 36.8723 0.689292 36.3934 1.39223L19.1163 26.7447H14.3085L15.4684 15.0026C15.4815 14.8703 15.5675 14.7556 15.6874 14.7104C17.1818 14.147 18.4769 13.0947 19.334 11.7476C19.4016 11.6416 19.5289 11.5809 19.6607 11.5943L27.2015 12.3392C27.7422 12.3917 28.2232 11.9979 28.2766 11.4575C28.3299 10.9171 27.9352 10.4358 27.3948 10.3824L19.854 9.63746C18.9787 9.55175 18.1439 9.9551 17.6749 10.692C17.0448 11.6825 16.0925 12.4561 14.9938 12.8704C14.1667 13.1822 13.5988 13.925 13.5115 14.8092L12.3326 26.7446H11.0788L12.9133 8.17337C12.9793 7.50493 13.5759 7.01384 14.2452 7.08082L29.4837 8.58615C30.0241 8.63831 30.5053 8.24479 30.5587 7.70438C30.612 7.16397 30.2173 6.68272 29.6769 6.62936L14.4384 5.12402C12.6913 4.95166 11.129 6.23261 10.9563 7.97998L9.4777 22.9484H6.9596C5.12274 22.9484 3.62819 24.4428 3.62819 26.2798V27.1437C2.12542 27.8355 1.0791 29.3546 1.0791 31.1145V64.6301C1.0791 67.0397 3.0394 69 5.44915 69H60.3078C62.7174 69 64.6777 67.0397 64.6777 64.6301V55.3293H65.7103C66.9291 55.3293 67.9206 54.3379 67.9206 53.1192V42.6257C67.9207 41.4068 66.9291 40.4154 65.7103 40.4154ZM59.4942 24.9149C60.247 24.9148 60.8592 25.5271 60.8592 26.2799V26.7809C60.6784 26.758 60.4947 26.7449 60.3078 26.7449H56.1361L57.3831 24.9149H59.4942ZM38.0182 2.49946C38.2015 2.23061 38.4785 2.04921 38.7981 1.98857C38.8745 1.97415 38.9512 1.96687 39.0274 1.96687C39.2695 1.96687 39.5062 2.03937 39.7107 2.17872L59.7276 15.8197C60.2826 16.198 60.4265 16.9573 60.0484 17.5122L53.7567 26.7445H52.2468L55.3314 22.2181C55.8317 21.484 55.8729 20.5498 55.4387 19.7799C54.8616 18.757 54.6277 17.5527 54.78 16.3884C54.8932 15.5223 54.5121 14.6768 53.7854 14.1816L43.4087 7.1102C42.6819 6.61494 41.7555 6.56952 40.9909 6.99174C39.9633 7.5591 38.7567 7.78187 37.5937 7.61908C36.7312 7.49806 35.8564 7.88753 35.3636 8.61055L23.0057 26.7446H21.4958L38.0182 2.49946ZM38.4512 19.1957C34.1696 19.1957 30.6549 22.5343 30.3685 26.7446H25.385L36.9882 9.71792C36.9883 9.71792 36.9883 9.71792 36.9883 9.71792C37.0542 9.62102 37.1635 9.56334 37.2758 9.56334C37.2908 9.56334 37.3057 9.56442 37.3207 9.56644C38.9026 9.78772 40.5433 9.48504 41.9411 8.71324C42.0511 8.65232 42.1923 8.66108 42.3012 8.73521L52.678 15.8068C52.7867 15.8809 52.8464 16.0092 52.8302 16.1337C52.623 17.7171 52.9414 19.355 53.7261 20.7461C53.789 20.8578 53.7814 21.0009 53.7067 21.1107L49.8675 26.7445H46.5343C46.2477 22.5343 42.7331 19.1957 38.4512 19.1957ZM44.5626 26.7447H32.34C32.6217 23.6197 35.2542 21.1622 38.4512 21.1622C41.6484 21.1621 44.2811 23.6197 44.5626 26.7447ZM5.59456 26.2798C5.59456 25.527 6.2068 24.9146 6.9596 24.9146H9.2835L9.10278 26.7446H5.59456V26.2798ZM3.04547 31.1145C3.04547 29.7892 4.12373 28.711 5.44915 28.711H60.3078C61.6332 28.711 62.7113 29.7892 62.7113 31.1145V33.8427H3.04547V31.1145ZM62.7113 64.6301C62.7113 65.9554 61.6332 67.0336 60.3078 67.0336H5.44915C4.12373 67.0336 3.04547 65.9554 3.04547 64.6301V61.9019H8.34742C8.89052 61.9019 9.33053 61.4617 9.33053 60.9188C9.33053 60.3758 8.89039 59.9356 8.34742 59.9356H3.04547V35.8091H62.7113V40.4154H53.3632H53.363C50.4176 40.4154 47.8662 42.1323 46.6554 44.6175C46.6513 44.6259 46.6467 44.6339 46.6426 44.6423C46.6323 44.6635 46.6234 44.6854 46.6134 44.7067C46.4692 45.013 46.3439 45.3301 46.2419 45.6574C46.2416 45.6583 46.2414 45.6591 46.2411 45.66C46.0234 46.3593 45.9061 47.1023 45.9061 47.8724C45.9061 51.9842 49.2512 55.3293 53.3629 55.3293H53.363H62.7112V59.9356H14.6429C14.0998 59.9356 13.6597 60.3758 13.6597 60.9188C13.6597 61.4617 14.0999 61.9019 14.6429 61.9019H62.7113V64.6301ZM65.9543 53.1191C65.9543 53.2536 65.8449 53.363 65.7103 53.363H53.3633C51.2819 53.363 49.4671 52.1987 48.5363 50.4874C48.494 50.4096 48.4535 50.3306 48.4149 50.2507C48.3376 50.0907 48.268 49.9265 48.2064 49.7583C47.9905 49.1699 47.8727 48.5346 47.8727 47.8724C47.8727 47.2101 47.9906 46.5748 48.2064 45.9865C48.2681 45.8184 48.3378 45.6541 48.4149 45.494C48.4535 45.4141 48.494 45.3351 48.5363 45.2574C49.4671 43.546 51.2819 42.3817 53.3633 42.3817H65.7103C65.8448 42.3817 65.9543 42.4912 65.9543 42.6257V53.1191Z" fill="#FF0000"/>
<path d="M53.5936 43.8833C51.3939 43.8833 49.6045 45.6728 49.6045 47.8724C49.6045 50.0719 51.3939 51.8613 53.5936 51.8613C55.7932 51.8613 57.5826 50.0719 57.5826 47.8724C57.5826 45.6728 55.7932 43.8833 53.5936 43.8833ZM53.5936 49.8949C52.4782 49.8949 51.5709 48.9875 51.5709 47.8724C51.5709 46.7572 52.4782 45.8497 53.5936 45.8497C54.7089 45.8497 55.6163 46.757 55.6163 47.8724C55.6163 48.9877 54.7089 49.8949 53.5936 49.8949Z" fill="#FF0000"/>
</g>
<defs>
<clipPath id="clip0">
<rect width="69" height="69" fill="white"/>
</clipPath>
</defs>
</svg>
